<svg xmlns="http://www.w3.org/2000/svg" xmlns:svg="http://www.w3.org/2000/svg" id="svg82735" width="90mm" height="75mm" version="1.1" viewBox="0 0 90 75"><g id="layer1"><g id="g4770" transform="matrix(2.5888601,0,0,2.5888601,-1408.6649,-225.88602)" style="fill:#000"><text style="font-variant:normal;font-weight:400;font-size:1.92px;font-family:F1;-inkscape-font-specification:F1;writing-mode:lr-tb;fill:#000;fill-opacity:1;fill-rule:nonzero;stroke:none" id="text4774" transform="translate(545.59998,89.599998)"><tspan id="tspan4772" x="0" y="0">2. PiezoBuzzer</tspan></text></g><g id="g1078" transform="matrix(0,-0.00539655,0.00539655,0,-722.62794,-287.12611)"><text style="font-variant:normal;font-weight:400;font-size:327.68px;font-family:F1;-inkscape-font-specification:F1;writing-mode:lr-tb;fill:gray;fill-opacity:1;fill-rule:nonzero;stroke:none" id="text1082" transform="translate(-62791.699,139674)"><tspan id="tspan1080" x="0 245.76 327.68 534.118 616.038 861.798 983.04 1146.88 1271.398" y="0">DIP Grove</tspan></text></g><g id="g1084" transform="matrix(1.3816078,0,0,1.3816078,-713.7502,-287.59308)"><text style="font-variant:normal;font-weight:400;font-size:1.28px;font-family:F1;-inkscape-font-specification:F1;writing-mode:lr-tb;fill:gray;fill-opacity:1;fill-rule:nonzero;stroke:none" id="text1088" transform="translate(566.88,240.32001)"><tspan id="tspan1086" x="0 .64 1.6 2.24 2.88 3.52" y="0">2N7002</tspan></text></g><g id="g1090" transform="matrix(1.3816078,0,0,1.3816078,-722.645,-284.49035)"><text style="font-variant:normal;font-weight:400;font-size:1.28px;font-family:F1;-inkscape-font-specification:F1;writing-mode:lr-tb;fill:gray;fill-opacity:1;fill-rule:nonzero;stroke:none" id="text1094" transform="translate(560.79999,239.36)"><tspan id="tspan1092" x="0 .64" y="0">1K</tspan></text></g><g id="g1096" transform="matrix(0,-0.00809482,0.00809482,0,-717.34902,-287.02904)"><text style="font-variant:normal;font-weight:400;font-size:327.68px;font-family:F1;-inkscape-font-specification:F1;writing-mode:lr-tb;fill:gray;fill-opacity:1;fill-rule:nonzero;stroke:none" id="text1100" transform="translate(-39321.602,98194.703)"><tspan id="tspan1098" x="0 190.054 435.814 681.574 792.986 983.04 1173.094 1366.426 1556.48" y="0">YMD-12065</tspan></text></g><g id="g1102" transform="matrix(0,-0.0033725,0.0033725,0,-718.44799,-286.72193)"><text style="font-variant:normal;font-weight:400;font-size:327.68px;font-family:F1;-inkscape-font-specification:F1;writing-mode:lr-tb;fill:gray;fill-opacity:1;fill-rule:nonzero;stroke:none" id="text1106" transform="translate(-101122,230293)"><tspan id="tspan1104" x="0 262.144 524.288 786.432 983.04 1179.648 1441.792 1769.472 1966.08" y="0">GND_POWER</tspan></text></g><g id="g1108" transform="matrix(1.3816078,0,0,1.3816078,-719.84061,-286.25253)"><text style="font-variant:normal;font-weight:400;font-size:.8px;font-family:F1;-inkscape-font-specification:F1;writing-mode:lr-tb;fill:gray;fill-opacity:1;fill-rule:nonzero;stroke:none" id="text1112" transform="translate(569.28003,258.88)"><tspan id="tspan1110" x="0 .64 1.28 1.92 2.4 2.88 3.52 4.32 4.8" y="0">GND_POWER</tspan></text></g><g id="g1252" transform="matrix(0,-0.00539655,0.00539655,0,-716.11275,-282.83431)"><text style="font-variant:normal;font-weight:400;font-size:327.68px;font-family:F1;-inkscape-font-specification:F1;writing-mode:lr-tb;fill:gray;fill-opacity:1;fill-rule:nonzero;stroke:none" id="text1256" transform="translate(-62791.699,144589)"><tspan id="tspan1254" x="0 163.84" y="0">1K</tspan></text></g><g id="g1258" transform="matrix(0,-0.00539655,0.00539655,0,-716.13582,-282.35142)"><text style="font-variant:normal;font-weight:400;font-size:327.68px;font-family:F1;-inkscape-font-specification:F1;writing-mode:lr-tb;fill:gray;fill-opacity:1;fill-rule:nonzero;stroke:none" id="text1262" transform="translate(-58695.699,146145)"><tspan id="tspan1260" x="0 163.84 327.68 491.52" y="0">220R</tspan></text></g><g id="g1366" transform="matrix(0,-0.00539655,0.00539655,0,-716.46447,-282.80604)"><text style="font-variant:normal;font-weight:400;font-size:327.68px;font-family:F1;-inkscape-font-specification:F1;writing-mode:lr-tb;fill:gray;fill-opacity:1;fill-rule:nonzero;stroke:none" id="text1370" transform="translate(-55828.5,144343)"><tspan id="tspan1368" x="0 163.84" y="0">1K</tspan></text></g><g id="g4836" transform="matrix(1.3816078,0,0,1.3816078,-718.07849,-286.8143)"><text style="font-variant:normal;font-weight:400;font-size:1.6px;font-family:F1;-inkscape-font-specification:F1;writing-mode:lr-tb;fill:gray;fill-opacity:1;fill-rule:nonzero;stroke:none" id="text4840" transform="translate(547.52002,239.03999)"><tspan id="tspan4838" x="0" y="0">1</tspan></text></g><g id="g4842" transform="matrix(1.3816078,0,0,1.3816078,-718.00353,-286.80836)"><text style="font-variant:normal;font-weight:400;font-size:1.6px;font-family:F1;-inkscape-font-specification:F1;writing-mode:lr-tb;fill:gray;fill-opacity:1;fill-rule:nonzero;stroke:none" id="text4846" transform="translate(547.52002,240.96001)"><tspan id="tspan4844" x="0" y="0">2</tspan></text></g><g id="g4848" transform="matrix(1.3816078,0,0,1.3816078,-717.95881,-286.86228)"><text style="font-variant:normal;font-weight:400;font-size:1.6px;font-family:F1;-inkscape-font-specification:F1;writing-mode:lr-tb;fill:gray;fill-opacity:1;fill-rule:nonzero;stroke:none" id="text4852" transform="translate(547.52002,243.03999)"><tspan id="tspan4850" x="0" y="0">3</tspan></text></g><g id="g4854" transform="matrix(1.3816078,0,0,1.3816078,-717.88321,-287.24226)"><text style="font-variant:normal;font-weight:400;font-size:1.6px;font-family:F1;-inkscape-font-specification:F1;writing-mode:lr-tb;fill:gray;fill-opacity:1;fill-rule:nonzero;stroke:none" id="text4858" transform="translate(547.52002,245.11999)"><tspan id="tspan4856" x="0" y="0">4</tspan></text></g><g id="g4860" transform="matrix(1.3816078,0,0,1.3816078,-722.83161,-287.86314)"><text style="font-variant:normal;font-weight:400;font-size:1.28px;font-family:F1;-inkscape-font-specification:F1;writing-mode:lr-tb;fill:gray;fill-opacity:1;fill-rule:nonzero;stroke:none" id="text4864" transform="translate(546.40002,238.24)"><tspan id="tspan4862" x="0 .64" y="0">J9</tspan></text></g><g id="g4866" transform="matrix(1.3816078,0,0,1.3816078,-719.19674,-288.00189)"><text style="font-variant:normal;font-weight:400;font-size:1.28px;font-family:F1;-inkscape-font-specification:F1;writing-mode:lr-tb;fill:gray;fill-opacity:1;fill-rule:nonzero;stroke:none" id="text4870" transform="translate(566.88,239.36)"><tspan id="tspan4868" x="0 .96" y="0">Q9</tspan></text></g><g id="g4872" transform="matrix(1.3816078,0,0,1.3816078,-716.34874,-288.07161)"><text style="font-variant:normal;font-weight:400;font-size:1.28px;font-family:F1;-inkscape-font-specification:F1;writing-mode:lr-tb;fill:gray;fill-opacity:1;fill-rule:nonzero;stroke:none" id="text4876" transform="translate(555.67999,239.36)"><tspan id="tspan4874" x="0 .96 1.6" y="0">R56</tspan></text></g><g id="g4878" transform="matrix(0,-0.00674639,0.00674639,0,-718.89073,-286.78481)"><text style="font-variant:normal;font-weight:400;font-size:327.68px;font-family:F1;-inkscape-font-specification:F1;writing-mode:lr-tb;fill:gray;fill-opacity:1;fill-rule:nonzero;stroke:none" id="text4882" transform="translate(-44826.602,117047)"><tspan id="tspan4880" x="0" y="0">+</tspan></text></g><g id="g4884" transform="matrix(0,-0.00674639,0.00674639,0,-718.89073,-286.78481)"><text style="font-variant:normal;font-weight:400;font-size:327.68px;font-family:F1;-inkscape-font-specification:F1;writing-mode:lr-tb;fill:gray;fill-opacity:1;fill-rule:nonzero;stroke:none" id="text4888" transform="translate(-44204,116851)"><tspan id="tspan4886" x="0" y="0">+</tspan></text></g><g id="g4890" transform="matrix(0,-0.00674639,0.00674639,0,-718.89073,-286.78481)"><text style="font-variant:normal;font-weight:400;font-size:327.68px;font-family:F1;-inkscape-font-specification:F1;writing-mode:lr-tb;fill:gray;fill-opacity:1;fill-rule:nonzero;stroke:none" id="text4894" transform="translate(-45547.5,117047)"><tspan id="tspan4892" x="0" y="0">-</tspan></text></g><g id="g4896" transform="matrix(0,-0.00674639,0.00674639,0,-718.89073,-286.78481)"><text style="font-variant:normal;font-weight:400;font-size:327.68px;font-family:F1;-inkscape-font-specification:F1;writing-mode:lr-tb;fill:gray;fill-opacity:1;fill-rule:nonzero;stroke:none" id="text4900" transform="translate(-46071.801,116851)"><tspan id="tspan4898" x="0" y="0">-</tspan></text></g><g id="g4902" transform="matrix(0,-0.00809482,0.00809482,0,-717.01779,-286.54057)"><text style="font-variant:normal;font-weight:400;font-size:327.68px;font-family:F1;-inkscape-font-specification:F1;writing-mode:lr-tb;fill:gray;fill-opacity:1;fill-rule:nonzero;stroke:none" id="text4906" transform="translate(-37219,98194.703)"><tspan id="tspan4904" x="0 219.546 465.306 655.36" y="0">BUZ1</tspan></text></g><g id="g4908" transform="matrix(0,-0.0033725,0.0033725,0,-716.53456,-283.59589)"><text style="font-variant:normal;font-weight:400;font-size:327.68px;font-family:F1;-inkscape-font-specification:F1;writing-mode:lr-tb;fill:gray;fill-opacity:1;fill-rule:nonzero;stroke:none" id="text4912" transform="translate(-100467,227476)"><tspan id="tspan4910" x="0 196.608 393.216 589.824" y="0">TP18</tspan></text></g><g id="g4914" transform="matrix(1.3816078,0,0,1.3816078,-718.78825,-287.15009)"><text style="font-variant:normal;font-weight:400;font-size:.8px;font-family:F1;-inkscape-font-specification:F1;writing-mode:lr-tb;fill:gray;fill-opacity:1;fill-rule:nonzero;stroke:none" id="text4918" transform="translate(556.79999,243.36)"><tspan id="tspan4916" x="0 .48 .96 1.44" y="0">TP19</tspan></text></g><g id="g4920" transform="matrix(0,-0.0033725,0.0033725,0,-718.89073,-286.78481)"><text style="font-variant:normal;font-weight:400;font-size:327.68px;font-family:F1;-inkscape-font-specification:F1;writing-mode:lr-tb;fill:gray;fill-opacity:1;fill-rule:nonzero;stroke:none" id="text4924" transform="translate(-104596,225968)"><tspan id="tspan4922" x="0 196.608 393.216 589.824" y="0">TP20</tspan></text></g><g id="g4926" transform="matrix(0,-0.0033725,0.0033725,0,-716.85834,-293.44891)"><text style="font-variant:normal;font-weight:400;font-size:327.68px;font-family:F1;-inkscape-font-specification:F1;writing-mode:lr-tb;fill:gray;fill-opacity:1;fill-rule:nonzero;stroke:none" id="text4930" transform="translate(-98828.297,227213)"><tspan id="tspan4928" x="0 196.608 393.216 589.824" y="0">TP21</tspan></text></g><g id="g5472" transform="matrix(0,-0.00539655,0.00539655,0,-719.70914,-289.40706)"><text style="font-variant:normal;font-weight:400;font-size:327.68px;font-family:F1;-inkscape-font-specification:F1;writing-mode:lr-tb;fill:gray;fill-opacity:1;fill-rule:nonzero;stroke:none" id="text5476" transform="translate(-64102.398,144589)"><tspan id="tspan5474" x="0 245.76 409.6" y="0">R57</tspan></text></g><g id="g5478" transform="matrix(0,-0.00539655,0.00539655,0,-720.47315,-289.25267)"><text style="font-variant:normal;font-weight:400;font-size:327.68px;font-family:F1;-inkscape-font-specification:F1;writing-mode:lr-tb;fill:gray;fill-opacity:1;fill-rule:nonzero;stroke:none" id="text5482" transform="translate(-59965.398,146145)"><tspan id="tspan5480" x="0 245.76 409.6" y="0">R58</tspan></text></g><g id="g5718" transform="matrix(0,-0.00539655,0.00539655,0,-720.35046,-289.18706)"><text style="font-variant:normal;font-weight:400;font-size:327.68px;font-family:F1;-inkscape-font-specification:F1;writing-mode:lr-tb;fill:gray;fill-opacity:1;fill-rule:nonzero;stroke:none" id="text5722" transform="translate(-57139.199,144343)"><tspan id="tspan5720" x="0 245.76 409.6" y="0">R64</tspan></text></g><g id="g6430" transform="matrix(1.3816078,0,0,1.3816078,-718.76862,-287.57391)"><text style="font-variant:normal;font-weight:400;font-size:1.92px;font-family:F1;-inkscape-font-specification:F1;writing-mode:lr-tb;fill:gray;fill-opacity:1;fill-rule:nonzero;stroke:none" id="text6434" transform="translate(550.71997,243.36)"><tspan id="tspan6432" x="0 1.114 2.554" y="0">VCC</tspan></text></g><g id="g6436" transform="matrix(1.3816078,0,0,1.3816078,-718.89073,-286.78481)"><text style="font-variant:normal;font-weight:400;font-size:1.28px;font-family:F1;-inkscape-font-specification:F1;writing-mode:lr-tb;fill:gray;fill-opacity:1;fill-rule:nonzero;stroke:none" id="text6440" transform="translate(570.88,211.03999)"><tspan id="tspan6438" x="0 .806 1.766" y="0">VCC</tspan></text></g><g id="g6890" transform="matrix(1.3816078,0,0,1.3816078,-718.89073,-287.33269)"><text style="font-variant:normal;font-weight:400;font-size:1.92px;font-family:F1;-inkscape-font-specification:F1;writing-mode:lr-tb;fill:gray;fill-opacity:1;fill-rule:nonzero;stroke:none" id="text6894" transform="translate(549.76001,239.36)"><tspan id="tspan6892" x="0 1.281 2.721" y="0">PD5</tspan></text></g><g id="g31102" transform="matrix(1.3816078,0,0,1.3816078,-718.89073,-286.78481)"><path style="fill:none;stroke:#c90d0c;stroke-width:.32;stroke-linecap:round;stroke-linejoin:round;stroke-miterlimit:10;stroke-dasharray:none;stroke-opacity:1" id="path31104" d="m 547.67999,238.24 h -4"/></g><g id="g31106" transform="matrix(1.3816078,0,0,1.3816078,-718.89073,-286.78481)"><path style="fill:none;stroke:#c90d0c;stroke-width:.32;stroke-linecap:round;stroke-linejoin:round;stroke-miterlimit:10;stroke-dasharray:none;stroke-opacity:1" id="path31108" d="m 543.67999,238.24 v 8.15999"/></g><g id="g31110" transform="matrix(1.3816078,0,0,1.3816078,-718.89073,-286.78481)"><path style="fill:none;stroke:#c90d0c;stroke-width:.32;stroke-linecap:round;stroke-linejoin:round;stroke-miterlimit:10;stroke-dasharray:none;stroke-opacity:1" id="path31112" d="m 543.67999,246.39999 h 4"/></g><g id="g31114" transform="matrix(1.3816078,0,0,1.3816078,-718.89073,-286.78481)"><path style="fill:none;stroke:#c90d0c;stroke-width:.32;stroke-linecap:round;stroke-linejoin:round;stroke-miterlimit:10;stroke-dasharray:none;stroke-opacity:1" id="path31116" d="M 547.67999,246.39999 V 238.24"/></g><g id="g31118" transform="matrix(1.3816078,0,0,1.3816078,-718.89073,-286.78481)"><path style="fill:none;stroke:#c90d0c;stroke-width:.16;stroke-linecap:round;stroke-linejoin:round;stroke-miterlimit:10;stroke-dasharray:none;stroke-opacity:1" id="path31120" d="m 545.59998,238.56 -1.44001,0.8"/></g><g id="g31122" transform="matrix(1.3816078,0,0,1.3816078,-718.89073,-286.78481)"><path style="fill:none;stroke:#c90d0c;stroke-width:.16;stroke-linecap:round;stroke-linejoin:round;stroke-miterlimit:10;stroke-dasharray:none;stroke-opacity:1" id="path31124" d="m 544.15997,239.36 1.44001,0.64"/></g><g id="g31126" transform="matrix(1.3816078,0,0,1.3816078,37.125057,43.916821)"><path style="fill:none;stroke:#c90d0c;stroke-width:.16;stroke-linecap:round;stroke-linejoin:round;stroke-miterlimit:10;stroke-dasharray:none;stroke-opacity:1" id="path31128" d="m 0,0 c 0,0.48 -0.32,0.8 -0.8,0.8 -0.48,0 -0.8,-0.32 -0.8,-0.8 0,-0.48 0.32,-0.8 0.8,-0.8 0.48,0 0.8,0.32 0.8,0.8 z"/></g><g id="g31130" transform="matrix(1.3816078,0,0,1.3816078,-718.89073,-286.78481)"><path style="fill:none;stroke:#c90d0c;stroke-width:.16;stroke-linecap:round;stroke-linejoin:round;stroke-miterlimit:10;stroke-dasharray:none;stroke-opacity:1" id="path31132" d="m 549.76001,239.36 h -2.56"/></g><g id="g31134" transform="matrix(1.3816078,0,0,1.3816078,37.125057,46.569509)"><path style="fill:none;stroke:#c90d0c;stroke-width:.16;stroke-linecap:round;stroke-linejoin:round;stroke-miterlimit:10;stroke-dasharray:none;stroke-opacity:1" id="path31136" d="m 0,0 c 0,0.48 -0.32,0.8 -0.8,0.8 -0.48,0 -0.8,-0.32 -0.8,-0.8 0,-0.48 0.32,-0.8 0.8,-0.8 0.48,0 0.8,0.32 0.8,0.8 z"/></g><g id="g31138" transform="matrix(1.3816078,0,0,1.3816078,-718.89073,-286.78481)"><path style="fill:none;stroke:#c90d0c;stroke-width:.16;stroke-linecap:round;stroke-linejoin:round;stroke-miterlimit:10;stroke-dasharray:none;stroke-opacity:1" id="path31140" d="m 549.76001,241.28 h -2.56"/></g><g id="g31142" transform="matrix(1.3816078,0,0,1.3816078,37.125057,49.443253)"><path style="fill:none;stroke:#c90d0c;stroke-width:.16;stroke-linecap:round;stroke-linejoin:round;stroke-miterlimit:10;stroke-dasharray:none;stroke-opacity:1" id="path31144" d="m 0,0 c 0,0.48 -0.32,0.8 -0.8,0.8 -0.48,0 -0.8,-0.32 -0.8,-0.8 0,-0.48 0.32,-0.8 0.8,-0.8 0.48,0 0.8,0.32 0.8,0.8 z"/></g><g id="g31146" transform="matrix(1.3816078,0,0,1.3816078,-718.89073,-286.78481)"><path style="fill:none;stroke:#c90d0c;stroke-width:.16;stroke-linecap:round;stroke-linejoin:round;stroke-miterlimit:10;stroke-dasharray:none;stroke-opacity:1" id="path31148" d="m 549.76001,243.36 h -2.56"/></g><g id="g31150" transform="matrix(1.3816078,0,0,1.3816078,37.125057,52.095935)"><path style="fill:none;stroke:#c90d0c;stroke-width:.16;stroke-linecap:round;stroke-linejoin:round;stroke-miterlimit:10;stroke-dasharray:none;stroke-opacity:1" id="path31152" d="m 0,0 c 0,0.48 -0.32,0.8 -0.8,0.8 -0.48,0 -0.8,-0.32 -0.8,-0.8 0,-0.48 0.32,-0.8 0.8,-0.8 0.48,0 0.8,0.32 0.8,0.8 z"/></g><g id="g31154" transform="matrix(1.3816078,0,0,1.3816078,-718.89073,-286.78481)"><path style="fill:none;stroke:#c90d0c;stroke-width:.16;stroke-linecap:round;stroke-linejoin:round;stroke-miterlimit:10;stroke-dasharray:none;stroke-opacity:1" id="path31156" d="m 549.76001,245.28 h -2.56"/></g><g id="g31158" transform="matrix(1.3816078,0,0,1.3816078,-718.89073,-286.78481)"><path style="fill:none;stroke:#c90d0c;stroke-width:.16;stroke-linecap:round;stroke-linejoin:round;stroke-miterlimit:10;stroke-dasharray:none;stroke-opacity:1" id="path31160" d="m 568.79999,241.28 v -1.92"/></g><g id="g31162" transform="matrix(1.3816078,0,0,1.3816078,-718.89073,-286.78481)"><path style="fill:none;stroke:#c90d0c;stroke-width:.16;stroke-linecap:round;stroke-linejoin:round;stroke-miterlimit:10;stroke-dasharray:none;stroke-opacity:1" id="path31164" d="m 568.79999,239.36 v -2.08"/></g><g id="g31166" transform="matrix(1.3816078,0,0,1.3816078,-718.89073,-286.78481)"><path style="fill:none;stroke:#c90d0c;stroke-width:.16;stroke-linecap:round;stroke-linejoin:round;stroke-miterlimit:10;stroke-dasharray:none;stroke-opacity:1" id="path31168" d="m 568.79999,239.36 2.08001,1.92"/></g><g id="g31170" transform="matrix(1.3816078,0,0,1.3816078,-718.89073,-286.78481)"><path style="fill:none;stroke:#c90d0c;stroke-width:.16;stroke-linecap:round;stroke-linejoin:round;stroke-miterlimit:10;stroke-dasharray:none;stroke-opacity:1" id="path31172" d="M 568.79999,239.36 570.88,237.28"/></g><g id="g31174" transform="matrix(1.3816078,0,0,1.3816078,-718.89073,-286.78481)"><path style="fill:none;stroke:#c90d0c;stroke-width:.16;stroke-linecap:round;stroke-linejoin:round;stroke-miterlimit:10;stroke-dasharray:none;stroke-opacity:1" id="path31176" d="m 570.88,241.28 -0.47998,-0.95999"/></g><g id="g31178" transform="matrix(1.3816078,0,0,1.3816078,-718.89073,-286.78481)"><path style="fill:none;stroke:#c90d0c;stroke-width:.16;stroke-linecap:round;stroke-linejoin:round;stroke-miterlimit:10;stroke-dasharray:none;stroke-opacity:1" id="path31180" d="m 570.88,241.28 -0.96002,-0.48"/></g><g id="g31182" transform="matrix(1.3816078,0,0,1.3816078,-718.89073,-286.78481)"><path style="fill:none;stroke:#c90d0c;stroke-width:.16;stroke-linecap:round;stroke-linejoin:round;stroke-miterlimit:10;stroke-dasharray:none;stroke-opacity:1" id="path31184" d="m 566.88,239.36 h 1.91999"/></g><g id="g31186" transform="matrix(1.3816078,0,0,1.3816078,-718.89073,-286.78481)"><path style="fill:none;stroke:#c90d0c;stroke-width:.16;stroke-linecap:round;stroke-linejoin:round;stroke-miterlimit:10;stroke-dasharray:none;stroke-opacity:1" id="path31188" d="m 570.88,243.36 v -2.08"/></g><g id="g31190" transform="matrix(1.3816078,0,0,1.3816078,-718.89073,-286.78481)"><path style="fill:none;stroke:#c90d0c;stroke-width:.16;stroke-linecap:round;stroke-linejoin:round;stroke-miterlimit:10;stroke-dasharray:none;stroke-opacity:1" id="path31192" d="m 570.88,235.2 v 2.08"/></g><g id="g31194" transform="matrix(1.3816078,0,0,1.3816078,-718.89073,-286.78481)"><path style="fill:none;stroke:#c90d0c;stroke-width:.32;stroke-linecap:round;stroke-linejoin:round;stroke-miterlimit:10;stroke-dasharray:none;stroke-opacity:1" id="path31196" d="m 557.76001,238.88 h 2.08002"/></g><g id="g31198" transform="matrix(1.3816078,0,0,1.3816078,-718.89073,-286.78481)"><path style="fill:none;stroke:#c90d0c;stroke-width:.32;stroke-linecap:round;stroke-linejoin:round;stroke-miterlimit:10;stroke-dasharray:none;stroke-opacity:1" id="path31200" d="m 559.84003,238.88 v 0.79999"/></g><g id="g31202" transform="matrix(1.3816078,0,0,1.3816078,-718.89073,-286.78481)"><path style="fill:none;stroke:#c90d0c;stroke-width:.32;stroke-linecap:round;stroke-linejoin:round;stroke-miterlimit:10;stroke-dasharray:none;stroke-opacity:1" id="path31204" d="m 559.84003,239.67999 h -2.08002"/></g><g id="g31206" transform="matrix(1.3816078,0,0,1.3816078,-718.89073,-286.78481)"><path style="fill:none;stroke:#c90d0c;stroke-width:.32;stroke-linecap:round;stroke-linejoin:round;stroke-miterlimit:10;stroke-dasharray:none;stroke-opacity:1" id="path31208" d="M 557.76001,239.67999 V 238.88"/></g><g id="g31210" transform="matrix(1.3816078,0,0,1.3816078,-718.89073,-286.78481)"><path style="fill:none;stroke:#c90d0c;stroke-width:.16;stroke-linecap:round;stroke-linejoin:round;stroke-miterlimit:10;stroke-dasharray:none;stroke-opacity:1" id="path31212" d="m 555.67999,239.36 h 2.08002"/></g><g id="g31214" transform="matrix(1.3816078,0,0,1.3816078,-718.89073,-286.78481)"><path style="fill:none;stroke:#c90d0c;stroke-width:.16;stroke-linecap:round;stroke-linejoin:round;stroke-miterlimit:10;stroke-dasharray:none;stroke-opacity:1" id="path31216" d="m 561.76001,239.36 h -1.91998"/></g><g id="g31218" transform="matrix(1.3816078,0,0,1.3816078,-718.89073,-286.78481)"><path style="fill:none;stroke:#c90d0c;stroke-width:.16;stroke-linecap:round;stroke-linejoin:round;stroke-miterlimit:10;stroke-dasharray:none;stroke-opacity:1" id="path31220" d="m 570.88,214.08 v 2.08"/></g><g id="g31222" transform="matrix(1.3816078,0,0,1.3816078,-718.89073,-286.78481)"><path style="fill:none;stroke:#c90d0c;stroke-width:.16;stroke-linecap:round;stroke-linejoin:round;stroke-miterlimit:10;stroke-dasharray:none;stroke-opacity:1" id="path31224" d="m 570.88,226.24 v -2.08"/></g><g id="g31226" transform="matrix(1.3816078,0,0,1.3816078,-718.89073,-286.78481)"><path style="fill:none;stroke:#c90d0c;stroke-width:.16;stroke-linecap:round;stroke-linejoin:round;stroke-miterlimit:10;stroke-dasharray:none;stroke-opacity:1" id="path31228" d="m 570.88,216.16 v 1.12"/></g><g id="g31230" transform="matrix(1.3816078,0,0,1.3816078,-718.89073,-286.78481)"><path style="fill:none;stroke:#c90d0c;stroke-width:.16;stroke-linecap:round;stroke-linejoin:round;stroke-miterlimit:10;stroke-dasharray:none;stroke-opacity:1" id="path31232" d="m 570.88,224.16 v -1.12001"/></g><g id="g31234" transform="matrix(1.3816078,0,0,1.3816078,73.820559,17.389951)"><path style="fill:none;stroke:#c90d0c;stroke-width:.16;stroke-linecap:round;stroke-linejoin:round;stroke-miterlimit:10;stroke-dasharray:none;stroke-opacity:1" id="path31236" d="m 0,0 c 0,1.6 -1.28,2.88 -2.88,2.88 -1.6,0 -2.88,-1.28 -2.88,-2.88 0,-1.6 1.28,-2.88 2.88,-2.88 C -1.28,-2.88 0,-1.6 0,0 Z"/></g><g id="g31238" transform="matrix(1.3816078,0,0,1.3816078,-718.89073,-286.78481)"><path style="fill:none;stroke:#c90d0c;stroke-width:.16;stroke-linecap:round;stroke-linejoin:round;stroke-miterlimit:10;stroke-dasharray:none;stroke-opacity:1" id="path31240" d="M 560.32001,246.39999 V 245.28"/></g><g id="g31242" transform="matrix(1.3816078,0,0,1.3816078,-718.89073,-286.78481)"><path style="fill:none;stroke:#c90d0c;stroke-width:.16;stroke-linecap:round;stroke-linejoin:round;stroke-miterlimit:10;stroke-dasharray:none;stroke-opacity:1" id="path31244" d="m 560.32001,245.28 v -0.95999"/></g><g id="g31246" transform="matrix(1.3816078,0,0,1.3816078,-718.89073,-286.78481)"><path style="fill:none;stroke:#c90d0c;stroke-width:.16;stroke-linecap:round;stroke-linejoin:round;stroke-miterlimit:10;stroke-dasharray:none;stroke-opacity:1" id="path31248" d="M 560.79999,245.75999 V 244.8"/></g><g id="g31250" transform="matrix(1.3816078,0,0,1.3816078,-718.89073,-286.78481)"><path style="fill:none;stroke:#c90d0c;stroke-width:.16;stroke-linecap:round;stroke-linejoin:round;stroke-miterlimit:10;stroke-dasharray:none;stroke-opacity:1" id="path31252" d="m 561.28003,245.60001 v -0.48002"/></g><g id="g31254" transform="matrix(1.3816078,0,0,1.3816078,-718.89073,-286.78481)"><path style="fill:none;stroke:#c90d0c;stroke-width:.16;stroke-linecap:round;stroke-linejoin:round;stroke-miterlimit:10;stroke-dasharray:none;stroke-opacity:1" id="path31256" d="m 559.84003,245.28 h 0.47998"/></g><g id="g31258" transform="matrix(1.3816078,0,0,1.3816078,-718.89073,-286.78481)"><path style="fill:none;stroke:#c90d0c;stroke-width:.16;stroke-linecap:round;stroke-linejoin:round;stroke-miterlimit:10;stroke-dasharray:none;stroke-opacity:1" id="path31260" d="M 569.91998,256.95999 H 570.88"/></g><g id="g31262" transform="matrix(1.3816078,0,0,1.3816078,-718.89073,-286.78481)"><path style="fill:none;stroke:#c90d0c;stroke-width:.16;stroke-linecap:round;stroke-linejoin:round;stroke-miterlimit:10;stroke-dasharray:none;stroke-opacity:1" id="path31264" d="m 570.88,256.95999 h 0.96003"/></g><g id="g31266" transform="matrix(1.3816078,0,0,1.3816078,-718.89073,-286.78481)"><path style="fill:none;stroke:#c90d0c;stroke-width:.16;stroke-linecap:round;stroke-linejoin:round;stroke-miterlimit:10;stroke-dasharray:none;stroke-opacity:1" id="path31268" d="m 570.40002,257.44 h 0.95996"/></g><g id="g31270" transform="matrix(1.3816078,0,0,1.3816078,-718.89073,-286.78481)"><path style="fill:none;stroke:#c90d0c;stroke-width:.16;stroke-linecap:round;stroke-linejoin:round;stroke-miterlimit:10;stroke-dasharray:none;stroke-opacity:1" id="path31272" d="m 570.56,257.92001 h 0.47998"/></g><g id="g31274" transform="matrix(1.3816078,0,0,1.3816078,-718.89073,-286.78481)"><path style="fill:none;stroke:#c90d0c;stroke-width:.16;stroke-linecap:round;stroke-linejoin:round;stroke-miterlimit:10;stroke-dasharray:none;stroke-opacity:1" id="path31276" d="m 570.88,256.48001 v 0.47998"/></g><g id="g31278" transform="matrix(1.3816078,0,0,1.3816078,48.841062,54.969685)"><path style="fill:none;stroke:#c90d0c;stroke-width:.16;stroke-linecap:round;stroke-linejoin:round;stroke-miterlimit:10;stroke-dasharray:none;stroke-opacity:1" id="path31280" d="m 0,0 c 0,0.48 -0.48,0.96 -0.96,0.96 -0.48,0 -0.96,-0.48 -0.96,-0.96 0,-0.48 0.48,-0.96 0.96,-0.96 C -0.48,-0.96 0,-0.48 0,0 Z"/></g><g id="g31282" transform="matrix(1.3816078,0,0,1.3816078,-718.89073,-286.78481)"><path style="fill:none;stroke:#c90d0c;stroke-width:.16;stroke-linecap:round;stroke-linejoin:round;stroke-miterlimit:10;stroke-dasharray:none;stroke-opacity:1" id="path31284" d="m 554.71997,245.28 v 1.11999"/></g><g id="g31286" transform="matrix(1.3816078,0,0,1.3816078,57.241265,49.443253)"><path style="fill:none;stroke:#c90d0c;stroke-width:.16;stroke-linecap:round;stroke-linejoin:round;stroke-miterlimit:10;stroke-dasharray:none;stroke-opacity:1" id="path31288" d="m 0,0 c 0,0.48 -0.48,0.96 -0.96,0.96 -0.48,0 -0.96,-0.48 -0.96,-0.96 0,-0.48 0.48,-0.96 0.96,-0.96 C -0.48,-0.96 0,-0.48 0,0 Z"/></g><g id="g31290" transform="matrix(1.3816078,0,0,1.3816078,-718.89073,-286.78481)"><path style="fill:none;stroke:#c90d0c;stroke-width:.16;stroke-linecap:round;stroke-linejoin:round;stroke-miterlimit:10;stroke-dasharray:none;stroke-opacity:1" id="path31292" d="m 558.71997,243.36 h 1.12006"/></g><g id="g31294" transform="matrix(1.3816078,0,0,1.3816078,44.641002,60.496118)"><path style="fill:none;stroke:#c90d0c;stroke-width:.16;stroke-linecap:round;stroke-linejoin:round;stroke-miterlimit:10;stroke-dasharray:none;stroke-opacity:1" id="path31296" d="m 0,0 c 0,0.48 -0.48,0.96 -0.96,0.96 -0.48,0 -0.96,-0.48 -0.96,-0.96 0,-0.48 0.48,-0.96 0.96,-0.96 C -0.48,-0.96 0,-0.48 0,0 Z"/></g><g id="g31298" transform="matrix(1.3816078,0,0,1.3816078,-718.89073,-286.78481)"><path style="fill:none;stroke:#c90d0c;stroke-width:.16;stroke-linecap:round;stroke-linejoin:round;stroke-miterlimit:10;stroke-dasharray:none;stroke-opacity:1" id="path31300" d="m 551.67999,253.44 v -1.11999"/></g><g id="g31302" transform="matrix(1.3816078,0,0,1.3816078,48.841062,41.043079)"><path style="fill:none;stroke:#c90d0c;stroke-width:.16;stroke-linecap:round;stroke-linejoin:round;stroke-miterlimit:10;stroke-dasharray:none;stroke-opacity:1" id="path31304" d="m 0,0 c 0,0.48 -0.48,0.96 -0.96,0.96 -0.48,0 -0.96,-0.48 -0.96,-0.96 0,-0.48 0.48,-0.96 0.96,-0.96 C -0.48,-0.96 0,-0.48 0,0 Z"/></g><g id="g31306" transform="matrix(1.3816078,0,0,1.3816078,-718.89073,-286.78481)"><path style="fill:none;stroke:#c90d0c;stroke-width:.16;stroke-linecap:round;stroke-linejoin:round;stroke-miterlimit:10;stroke-dasharray:none;stroke-opacity:1" id="path31308" d="m 554.71997,239.36 v -1.12"/></g><g id="g34024" transform="matrix(1.3816078,0,0,1.3816078,-718.89073,-286.78481)"><path style="fill:none;stroke:#c90d0c;stroke-width:.32;stroke-linecap:round;stroke-linejoin:round;stroke-miterlimit:10;stroke-dasharray:none;stroke-opacity:1" id="path34026" d="m 564.47998,248.32001 v -1.92002"/></g><g id="g34028" transform="matrix(1.3816078,0,0,1.3816078,-718.89073,-286.78481)"><path style="fill:none;stroke:#c90d0c;stroke-width:.32;stroke-linecap:round;stroke-linejoin:round;stroke-miterlimit:10;stroke-dasharray:none;stroke-opacity:1" id="path34030" d="m 564.47998,246.39999 h 0.80005"/></g><g id="g34032" transform="matrix(1.3816078,0,0,1.3816078,-718.89073,-286.78481)"><path style="fill:none;stroke:#c90d0c;stroke-width:.32;stroke-linecap:round;stroke-linejoin:round;stroke-miterlimit:10;stroke-dasharray:none;stroke-opacity:1" id="path34034" d="m 565.28003,246.39999 v 1.92002"/></g><g id="g34036" transform="matrix(1.3816078,0,0,1.3816078,-718.89073,-286.78481)"><path style="fill:none;stroke:#c90d0c;stroke-width:.32;stroke-linecap:round;stroke-linejoin:round;stroke-miterlimit:10;stroke-dasharray:none;stroke-opacity:1" id="path34038" d="m 565.28003,248.32001 h -0.80005"/></g><g id="g34040" transform="matrix(1.3816078,0,0,1.3816078,-718.89073,-286.78481)"><path style="fill:none;stroke:#c90d0c;stroke-width:.16;stroke-linecap:round;stroke-linejoin:round;stroke-miterlimit:10;stroke-dasharray:none;stroke-opacity:1" id="path34042" d="m 564.79999,250.39999 v -2.07998"/></g><g id="g34044" transform="matrix(1.3816078,0,0,1.3816078,-718.89073,-286.78481)"><path style="fill:none;stroke:#c90d0c;stroke-width:.16;stroke-linecap:round;stroke-linejoin:round;stroke-miterlimit:10;stroke-dasharray:none;stroke-opacity:1" id="path34046" d="m 564.79999,244.32001 v 2.07998"/></g><g id="g34048" transform="matrix(1.3816078,0,0,1.3816078,-718.89073,-286.78481)"><path style="fill:none;stroke:#c90d0c;stroke-width:.32;stroke-linecap:round;stroke-linejoin:round;stroke-miterlimit:10;stroke-dasharray:none;stroke-opacity:1" id="path34050" d="m 570.40002,232.16 v -1.92"/></g><g id="g34052" transform="matrix(1.3816078,0,0,1.3816078,-718.89073,-286.78481)"><path style="fill:none;stroke:#c90d0c;stroke-width:.32;stroke-linecap:round;stroke-linejoin:round;stroke-miterlimit:10;stroke-dasharray:none;stroke-opacity:1" id="path34054" d="m 570.40002,230.24 h 0.79999"/></g><g id="g34056" transform="matrix(1.3816078,0,0,1.3816078,-718.89073,-286.78481)"><path style="fill:none;stroke:#c90d0c;stroke-width:.32;stroke-linecap:round;stroke-linejoin:round;stroke-miterlimit:10;stroke-dasharray:none;stroke-opacity:1" id="path34058" d="m 571.20001,230.24 v 1.92"/></g><g id="g34060" transform="matrix(1.3816078,0,0,1.3816078,-718.89073,-286.78481)"><path style="fill:none;stroke:#c90d0c;stroke-width:.32;stroke-linecap:round;stroke-linejoin:round;stroke-miterlimit:10;stroke-dasharray:none;stroke-opacity:1" id="path34062" d="m 571.20001,232.16 h -0.79999"/></g><g id="g34064" transform="matrix(1.3816078,0,0,1.3816078,-718.89073,-286.78481)"><path style="fill:none;stroke:#c90d0c;stroke-width:.16;stroke-linecap:round;stroke-linejoin:round;stroke-miterlimit:10;stroke-dasharray:none;stroke-opacity:1" id="path34066" d="m 570.88,234.24 v -2.08"/></g><g id="g34068" transform="matrix(1.3816078,0,0,1.3816078,-718.89073,-286.78481)"><path style="fill:none;stroke:#c90d0c;stroke-width:.16;stroke-linecap:round;stroke-linejoin:round;stroke-miterlimit:10;stroke-dasharray:none;stroke-opacity:1" id="path34070" d="m 570.88,228.16 v 2.08"/></g><g id="g34988" transform="matrix(1.3816078,0,0,1.3816078,-718.89073,-286.78481)"><path style="fill:none;stroke:#c90d0c;stroke-width:.32;stroke-linecap:round;stroke-linejoin:round;stroke-miterlimit:10;stroke-dasharray:none;stroke-opacity:1" id="path34990" d="M 563.35998,221.11999 V 219.2"/></g><g id="g34992" transform="matrix(1.3816078,0,0,1.3816078,-718.89073,-286.78481)"><path style="fill:none;stroke:#c90d0c;stroke-width:.32;stroke-linecap:round;stroke-linejoin:round;stroke-miterlimit:10;stroke-dasharray:none;stroke-opacity:1" id="path34994" d="m 563.35998,219.2 h 0.79999"/></g><g id="g34996" transform="matrix(1.3816078,0,0,1.3816078,-718.89073,-286.78481)"><path style="fill:none;stroke:#c90d0c;stroke-width:.32;stroke-linecap:round;stroke-linejoin:round;stroke-miterlimit:10;stroke-dasharray:none;stroke-opacity:1" id="path34998" d="m 564.15997,219.2 v 1.91999"/></g><g id="g35000" transform="matrix(1.3816078,0,0,1.3816078,-718.89073,-286.78481)"><path style="fill:none;stroke:#c90d0c;stroke-width:.32;stroke-linecap:round;stroke-linejoin:round;stroke-miterlimit:10;stroke-dasharray:none;stroke-opacity:1" id="path35002" d="m 564.15997,221.11999 h -0.79999"/></g><g id="g35004" transform="matrix(1.3816078,0,0,1.3816078,-718.89073,-286.78481)"><path style="fill:none;stroke:#c90d0c;stroke-width:.16;stroke-linecap:round;stroke-linejoin:round;stroke-miterlimit:10;stroke-dasharray:none;stroke-opacity:1" id="path35006" d="m 563.84003,223.2 v -2.08001"/></g><g id="g35008" transform="matrix(1.3816078,0,0,1.3816078,-718.89073,-286.78481)"><path style="fill:none;stroke:#c90d0c;stroke-width:.16;stroke-linecap:round;stroke-linejoin:round;stroke-miterlimit:10;stroke-dasharray:none;stroke-opacity:1" id="path35010" d="M 563.84003,217.11999 V 219.2"/></g><g id="g36084" transform="matrix(1.3816078,0,0,1.3816078,-718.89073,-286.78481)"><path style="fill:none;stroke:#0dab76;stroke-width:.16;stroke-linecap:round;stroke-linejoin:round;stroke-miterlimit:10;stroke-dasharray:none;stroke-opacity:1" id="path36086" d="m 549.76001,245.28 h 4.95996"/></g><g id="g36088" transform="matrix(1.3816078,0,0,1.3816078,-718.89073,-286.78481)"><path style="fill:none;stroke:#0dab76;stroke-width:.16;stroke-linecap:round;stroke-linejoin:round;stroke-miterlimit:10;stroke-dasharray:none;stroke-opacity:1" id="path36090" d="m 554.71997,245.28 h 5.12006"/></g><g id="g36092" transform="matrix(1.3816078,0,0,1.3816078,48.177916,52.095935)"><path style="fill:#0dab76;fill-opacity:1;fill-rule:evenodd;stroke:none" id="path36094" d="M 0,0 C 0,0.32 -0.16,0.48 -0.48,0.48 -0.8,0.48 -0.96,0.32 -0.96,0 c 0,-0.32 0.16,-0.48 0.48,-0.48 C -0.16,-0.48 0,-0.32 0,0 Z"/></g><g id="g36096" transform="matrix(1.3816078,0,0,1.3816078,48.177916,52.095935)"><path style="fill:none;stroke:#0dab76;stroke-width:.16;stroke-linecap:round;stroke-linejoin:round;stroke-miterlimit:10;stroke-dasharray:none;stroke-opacity:1" id="path36098" d="M 0,0 C 0,0.32 -0.16,0.48 -0.48,0.48 -0.8,0.48 -0.96,0.32 -0.96,0 c 0,-0.32 0.16,-0.48 0.48,-0.48 C -0.16,-0.48 0,-0.32 0,0 Z"/></g><g id="g36100" transform="matrix(1.3816078,0,0,1.3816078,-718.89073,-286.78481)"><path style="fill:none;stroke:#0dab76;stroke-width:.16;stroke-linecap:round;stroke-linejoin:round;stroke-miterlimit:10;stroke-dasharray:none;stroke-opacity:1" id="path36102" d="m 570.88,243.36 v 10.08"/></g><g id="g36104" transform="matrix(1.3816078,0,0,1.3816078,-718.89073,-286.78481)"><path style="fill:none;stroke:#0dab76;stroke-width:.16;stroke-linecap:round;stroke-linejoin:round;stroke-miterlimit:10;stroke-dasharray:none;stroke-opacity:1" id="path36106" d="m 570.88,253.44 v 3.04001"/></g><g id="g36108" transform="matrix(1.3816078,0,0,1.3816078,-718.89073,-286.78481)"><path style="fill:none;stroke:#0dab76;stroke-width:.16;stroke-linecap:round;stroke-linejoin:round;stroke-miterlimit:10;stroke-dasharray:none;stroke-opacity:1" id="path36110" d="M 564.79999,250.39999 V 253.44"/></g><g id="g36112" transform="matrix(1.3816078,0,0,1.3816078,-718.89073,-286.78481)"><path style="fill:none;stroke:#0dab76;stroke-width:.16;stroke-linecap:round;stroke-linejoin:round;stroke-miterlimit:10;stroke-dasharray:none;stroke-opacity:1" id="path36114" d="M 564.79999,253.44 H 570.88"/></g><g id="g36116" transform="matrix(1.3816078,0,0,1.3816078,70.504658,63.369855)"><path style="fill:#0dab76;fill-opacity:1;fill-rule:evenodd;stroke:none" id="path36118" d="M 0,0 C 0,0.32 -0.16,0.48 -0.48,0.48 -0.8,0.48 -0.96,0.32 -0.96,0 c 0,-0.32 0.16,-0.48 0.48,-0.48 C -0.16,-0.48 0,-0.32 0,0 Z"/></g><g id="g36120" transform="matrix(1.3816078,0,0,1.3816078,70.504658,63.369855)"><path style="fill:none;stroke:#0dab76;stroke-width:.16;stroke-linecap:round;stroke-linejoin:round;stroke-miterlimit:10;stroke-dasharray:none;stroke-opacity:1" id="path36122" d="M 0,0 C 0,0.32 -0.16,0.48 -0.48,0.48 -0.8,0.48 -0.96,0.32 -0.96,0 c 0,-0.32 0.16,-0.48 0.48,-0.48 C -0.16,-0.48 0,-0.32 0,0 Z"/></g><g id="g37064" transform="matrix(1.3816078,0,0,1.3816078,-718.89073,-286.78481)"><path style="fill:none;stroke:#0dab76;stroke-width:.16;stroke-linecap:round;stroke-linejoin:round;stroke-miterlimit:10;stroke-dasharray:none;stroke-opacity:1" id="path37066" d="m 549.76001,243.36 h 8.95996"/></g><g id="g37068" transform="matrix(1.3816078,0,0,1.3816078,-718.89073,-286.78481)"><path style="fill:none;stroke:#0dab76;stroke-width:.16;stroke-linecap:round;stroke-linejoin:round;stroke-miterlimit:10;stroke-dasharray:none;stroke-opacity:1" id="path37070" d="m 570.88,211.03999 v 2.08"/></g><g id="g37072" transform="matrix(1.3816078,0,0,1.3816078,-718.89073,-286.78481)"><path style="fill:none;stroke:#0dab76;stroke-width:.16;stroke-linecap:round;stroke-linejoin:round;stroke-miterlimit:10;stroke-dasharray:none;stroke-opacity:1" id="path37074" d="M 570.88,213.11999 V 214.08"/></g><g id="g37076" transform="matrix(1.3816078,0,0,1.3816078,-718.89073,-286.78481)"><path style="fill:none;stroke:#0dab76;stroke-width:.16;stroke-linecap:round;stroke-linejoin:round;stroke-miterlimit:10;stroke-dasharray:none;stroke-opacity:1" id="path37078" d="m 563.84003,217.11999 v -4"/></g><g id="g37080" transform="matrix(1.3816078,0,0,1.3816078,-718.89073,-286.78481)"><path style="fill:none;stroke:#0dab76;stroke-width:.16;stroke-linecap:round;stroke-linejoin:round;stroke-miterlimit:10;stroke-dasharray:none;stroke-opacity:1" id="path37082" d="M 563.84003,213.11999 H 570.88"/></g><g id="g37084" transform="matrix(1.3816078,0,0,1.3816078,70.504658,7.663421)"><path style="fill:#0dab76;fill-opacity:1;fill-rule:evenodd;stroke:none" id="path37086" d="M 0,0 C 0,0.32 -0.16,0.48 -0.48,0.48 -0.8,0.48 -0.96,0.32 -0.96,0 c 0,-0.32 0.16,-0.48 0.48,-0.48 C -0.16,-0.48 0,-0.32 0,0 Z"/></g><g id="g37088" transform="matrix(1.3816078,0,0,1.3816078,70.504658,7.663421)"><path style="fill:none;stroke:#0dab76;stroke-width:.16;stroke-linecap:round;stroke-linejoin:round;stroke-miterlimit:10;stroke-dasharray:none;stroke-opacity:1" id="path37090" d="M 0,0 C 0,0.32 -0.16,0.48 -0.48,0.48 -0.8,0.48 -0.96,0.32 -0.96,0 c 0,-0.32 0.16,-0.48 0.48,-0.48 C -0.16,-0.48 0,-0.32 0,0 Z"/></g><g id="g37460" transform="matrix(1.3816078,0,0,1.3816078,-718.89073,-286.78481)"><path style="fill:none;stroke:#0dab76;stroke-width:.16;stroke-linecap:round;stroke-linejoin:round;stroke-miterlimit:10;stroke-dasharray:none;stroke-opacity:1" id="path37462" d="m 555.67999,239.36 h -0.96002"/></g><g id="g37464" transform="matrix(1.3816078,0,0,1.3816078,-718.89073,-286.78481)"><path style="fill:none;stroke:#0dab76;stroke-width:.16;stroke-linecap:round;stroke-linejoin:round;stroke-miterlimit:10;stroke-dasharray:none;stroke-opacity:1" id="path37466" d="m 554.71997,239.36 h -4.95996"/></g><g id="g37468" transform="matrix(1.3816078,0,0,1.3816078,48.177916,43.916821)"><path style="fill:#0dab76;fill-opacity:1;fill-rule:evenodd;stroke:none" id="path37470" d="M 0,0 C 0,0.32 -0.16,0.48 -0.48,0.48 -0.8,0.48 -0.96,0.32 -0.96,0 c 0,-0.32 0.16,-0.48 0.48,-0.48 C -0.16,-0.48 0,-0.32 0,0 Z"/></g><g id="g37472" transform="matrix(1.3816078,0,0,1.3816078,48.177916,43.916821)"><path style="fill:none;stroke:#0dab76;stroke-width:.16;stroke-linecap:round;stroke-linejoin:round;stroke-miterlimit:10;stroke-dasharray:none;stroke-opacity:1" id="path37474" d="M 0,0 C 0,0.32 -0.16,0.48 -0.48,0.48 -0.8,0.48 -0.96,0.32 -0.96,0 c 0,-0.32 0.16,-0.48 0.48,-0.48 C -0.16,-0.48 0,-0.32 0,0 Z"/></g><g id="g38904" transform="matrix(1.3816078,0,0,1.3816078,-718.89073,-286.78481)"><path style="fill:none;stroke:#0dab76;stroke-width:.16;stroke-linecap:round;stroke-linejoin:round;stroke-miterlimit:10;stroke-dasharray:none;stroke-opacity:1" id="path38906" d="m 561.76001,239.36 h 3.03998"/></g><g id="g38908" transform="matrix(1.3816078,0,0,1.3816078,-718.89073,-286.78481)"><path style="fill:none;stroke:#0dab76;stroke-width:.16;stroke-linecap:round;stroke-linejoin:round;stroke-miterlimit:10;stroke-dasharray:none;stroke-opacity:1" id="path38910" d="M 564.79999,239.36 H 566.88"/></g><g id="g38912" transform="matrix(1.3816078,0,0,1.3816078,-718.89073,-286.78481)"><path style="fill:none;stroke:#0dab76;stroke-width:.16;stroke-linecap:round;stroke-linejoin:round;stroke-miterlimit:10;stroke-dasharray:none;stroke-opacity:1" id="path38914" d="M 564.79999,244.32001 V 239.36"/></g><g id="g38916" transform="matrix(1.3816078,0,0,1.3816078,62.104554,43.916821)"><path style="fill:#0dab76;fill-opacity:1;fill-rule:evenodd;stroke:none" id="path38918" d="M 0,0 C 0,0.32 -0.16,0.48 -0.48,0.48 -0.8,0.48 -0.96,0.32 -0.96,0 c 0,-0.32 0.16,-0.48 0.48,-0.48 C -0.16,-0.48 0,-0.32 0,0 Z"/></g><g id="g38920" transform="matrix(1.3816078,0,0,1.3816078,62.104554,43.916821)"><path style="fill:none;stroke:#0dab76;stroke-width:.16;stroke-linecap:round;stroke-linejoin:round;stroke-miterlimit:10;stroke-dasharray:none;stroke-opacity:1" id="path38922" d="M 0,0 C 0,0.32 -0.16,0.48 -0.48,0.48 -0.8,0.48 -0.96,0.32 -0.96,0 c 0,-0.32 0.16,-0.48 0.48,-0.48 C -0.16,-0.48 0,-0.32 0,0 Z"/></g><g id="g38924" transform="matrix(1.3816078,0,0,1.3816078,-718.89073,-286.78481)"><path style="fill:none;stroke:#0dab76;stroke-width:.16;stroke-linecap:round;stroke-linejoin:round;stroke-miterlimit:10;stroke-dasharray:none;stroke-opacity:1" id="path38926" d="m 570.88,226.24 v 0.96"/></g><g id="g38928" transform="matrix(1.3816078,0,0,1.3816078,-718.89073,-286.78481)"><path style="fill:none;stroke:#0dab76;stroke-width:.16;stroke-linecap:round;stroke-linejoin:round;stroke-miterlimit:10;stroke-dasharray:none;stroke-opacity:1" id="path38930" d="m 570.88,227.2 v 0.96"/></g><g id="g38932" transform="matrix(1.3816078,0,0,1.3816078,-718.89073,-286.78481)"><path style="fill:none;stroke:#0dab76;stroke-width:.16;stroke-linecap:round;stroke-linejoin:round;stroke-miterlimit:10;stroke-dasharray:none;stroke-opacity:1" id="path38934" d="m 563.84003,223.2 v 4"/></g><g id="g38936" transform="matrix(1.3816078,0,0,1.3816078,-718.89073,-286.78481)"><path style="fill:none;stroke:#0dab76;stroke-width:.16;stroke-linecap:round;stroke-linejoin:round;stroke-miterlimit:10;stroke-dasharray:none;stroke-opacity:1" id="path38938" d="M 563.84003,227.2 H 570.88"/></g><g id="g38940" transform="matrix(1.3816078,0,0,1.3816078,70.504658,27.116472)"><path style="fill:#0dab76;fill-opacity:1;fill-rule:evenodd;stroke:none" id="path38942" d="M 0,0 C 0,0.32 -0.16,0.48 -0.48,0.48 -0.8,0.48 -0.96,0.32 -0.96,0 c 0,-0.32 0.16,-0.48 0.48,-0.48 C -0.16,-0.48 0,-0.32 0,0 Z"/></g><g id="g38944" transform="matrix(1.3816078,0,0,1.3816078,70.504658,27.116472)"><path style="fill:none;stroke:#0dab76;stroke-width:.16;stroke-linecap:round;stroke-linejoin:round;stroke-miterlimit:10;stroke-dasharray:none;stroke-opacity:1" id="path38946" d="M 0,0 C 0,0.32 -0.16,0.48 -0.48,0.48 -0.8,0.48 -0.96,0.32 -0.96,0 c 0,-0.32 0.16,-0.48 0.48,-0.48 C -0.16,-0.48 0,-0.32 0,0 Z"/></g><g id="g39164" transform="matrix(1.3816078,0,0,1.3816078,-718.89073,-286.78481)"><path style="fill:none;stroke:#0dab76;stroke-width:.16;stroke-linecap:round;stroke-linejoin:round;stroke-miterlimit:10;stroke-dasharray:none;stroke-opacity:1" id="path39166" d="m 570.88,234.24 v 0.96"/></g></g></svg>