<svg xmlns="http://www.w3.org/2000/svg" xmlns:svg="http://www.w3.org/2000/svg" id="svg82735" width="90mm" height="75mm" version="1.1" viewBox="0 0 90 75"><defs id="defs82732"><clipPath id="clipPath6222" clipPathUnits="userSpaceOnUse"><path id="path6220" d="M 248,26.4 V 747.84003 H 874.56 V 26.4 Z" clip-rule="evenodd"/></clipPath><clipPath id="clipPath6454" clipPathUnits="userSpaceOnUse"><path id="path6452" d="M 248,26.4 V 747.84003 H 874.56 V 26.4 Z" clip-rule="evenodd"/></clipPath><clipPath id="clipPath6488" clipPathUnits="userSpaceOnUse"><path id="path6486" d="M 248,26.4 V 747.84003 H 874.56 V 26.4 Z" clip-rule="evenodd"/></clipPath><clipPath id="clipPath6522" clipPathUnits="userSpaceOnUse"><path id="path6520" d="M 248,26.4 V 747.84003 H 874.56 V 26.4 Z" clip-rule="evenodd"/></clipPath><clipPath id="clipPath7180" clipPathUnits="userSpaceOnUse"><path id="path7178" d="M 248,26.4 V 747.84003 H 874.56 V 26.4 Z" clip-rule="evenodd"/></clipPath><clipPath id="clipPath7336" clipPathUnits="userSpaceOnUse"><path id="path7334" d="M 248,26.4 V 747.84003 H 874.56 V 26.4 Z" clip-rule="evenodd"/></clipPath><clipPath id="clipPath8512" clipPathUnits="userSpaceOnUse"><path id="path8510" d="M 248,26.4 V 747.84003 H 874.56 V 26.4 Z" clip-rule="evenodd"/></clipPath><clipPath id="clipPath8546" clipPathUnits="userSpaceOnUse"><path id="path8544" d="M 248,26.4 V 747.84003 H 874.56 V 26.4 Z" clip-rule="evenodd"/></clipPath><clipPath id="clipPath8580" clipPathUnits="userSpaceOnUse"><path id="path8578" d="M 248,26.4 V 747.84003 H 874.56 V 26.4 Z" clip-rule="evenodd"/></clipPath><clipPath id="clipPath8614" clipPathUnits="userSpaceOnUse"><path id="path8612" d="M 248,26.4 V 747.84003 H 874.56 V 26.4 Z" clip-rule="evenodd"/></clipPath><clipPath id="clipPath8648" clipPathUnits="userSpaceOnUse"><path id="path8646" d="M 248,26.4 V 747.84003 H 874.56 V 26.4 Z" clip-rule="evenodd"/></clipPath><clipPath id="clipPath8682" clipPathUnits="userSpaceOnUse"><path id="path8680" d="M 248,26.4 V 747.84003 H 874.56 V 26.4 Z" clip-rule="evenodd"/></clipPath><clipPath id="clipPath8716" clipPathUnits="userSpaceOnUse"><path id="path8714" d="M 248,26.4 V 747.84003 H 874.56 V 26.4 Z" clip-rule="evenodd"/></clipPath><clipPath id="clipPath8750" clipPathUnits="userSpaceOnUse"><path id="path8748" d="M 248,26.4 V 747.84003 H 874.56 V 26.4 Z" clip-rule="evenodd"/></clipPath><clipPath id="clipPath8784" clipPathUnits="userSpaceOnUse"><path id="path8782" d="M 248,26.4 V 747.84003 H 874.56 V 26.4 Z" clip-rule="evenodd"/></clipPath><clipPath id="clipPath8830" clipPathUnits="userSpaceOnUse"><path id="path8828" d="M 248,26.4 V 747.84003 H 874.56 V 26.4 Z" clip-rule="evenodd"/></clipPath><clipPath id="clipPath8870" clipPathUnits="userSpaceOnUse"><path id="path8868" d="M 248,26.4 V 747.84003 H 874.56 V 26.4 Z" clip-rule="evenodd"/></clipPath><clipPath id="clipPath8916" clipPathUnits="userSpaceOnUse"><path id="path8914" d="M 248,26.4 V 747.84003 H 874.56 V 26.4 Z" clip-rule="evenodd"/></clipPath><clipPath id="clipPath8950" clipPathUnits="userSpaceOnUse"><path id="path8948" d="M 248,26.4 V 747.84003 H 874.56 V 26.4 Z" clip-rule="evenodd"/></clipPath><clipPath id="clipPath8984" clipPathUnits="userSpaceOnUse"><path id="path8982" d="M 248,26.4 V 747.84003 H 874.56 V 26.4 Z" clip-rule="evenodd"/></clipPath><clipPath id="clipPath9018" clipPathUnits="userSpaceOnUse"><path id="path9016" d="M 248,26.4 V 747.84003 H 874.56 V 26.4 Z" clip-rule="evenodd"/></clipPath><clipPath id="clipPath9052" clipPathUnits="userSpaceOnUse"><path id="path9050" d="M 248,26.4 V 747.84003 H 874.56 V 26.4 Z" clip-rule="evenodd"/></clipPath><clipPath id="clipPath9092" clipPathUnits="userSpaceOnUse"><path id="path9090" d="M 248,26.4 V 747.84003 H 874.56 V 26.4 Z" clip-rule="evenodd"/></clipPath><clipPath id="clipPath9126" clipPathUnits="userSpaceOnUse"><path id="path9124" d="M 248,26.4 V 747.84003 H 874.56 V 26.4 Z" clip-rule="evenodd"/></clipPath><clipPath id="clipPath9160" clipPathUnits="userSpaceOnUse"><path id="path9158" d="M 248,26.4 V 747.84003 H 874.56 V 26.4 Z" clip-rule="evenodd"/></clipPath><clipPath id="clipPath9194" clipPathUnits="userSpaceOnUse"><path id="path9192" d="M 248,26.4 V 747.84003 H 874.56 V 26.4 Z" clip-rule="evenodd"/></clipPath><clipPath id="clipPath9228" clipPathUnits="userSpaceOnUse"><path id="path9226" d="M 248,26.4 V 747.84003 H 874.56 V 26.4 Z" clip-rule="evenodd"/></clipPath><clipPath id="clipPath9262" clipPathUnits="userSpaceOnUse"><path id="path9260" d="M 248,26.4 V 747.84003 H 874.56 V 26.4 Z" clip-rule="evenodd"/></clipPath></defs><g id="layer1"><g id="g4770" transform="matrix(2.5888601,0,0,2.5888601,-1408.6649,-225.88602)" style="fill:#000"><text style="font-variant:normal;font-weight:400;font-size:1.92px;font-family:F1;-inkscape-font-specification:F1;writing-mode:lr-tb;fill:#000;fill-opacity:1;fill-rule:nonzero;stroke:none" id="text4774" transform="translate(545.59998,89.599998)"><tspan id="tspan4772" x="0" y="0">4.Button</tspan></text><g id="g1024" transform="matrix(0.64429836,0,0,0.64429836,370.75801,-323.88713)"><text style="font-variant:normal;font-weight:400;font-size:1.28px;font-family:F1;-inkscape-font-specification:F1;writing-mode:lr-tb;fill:gray;fill-opacity:1;fill-rule:nonzero;stroke:none" id="text1028" transform="translate(315.20001,665.44)"><tspan id="tspan1026" x="0 .64 1.28" y="0">10k</tspan></text></g><g id="g1030" transform="matrix(0.64429836,0,0,0.64429836,369.61891,-317.98023)"><text style="font-variant:normal;font-weight:400;font-size:1.28px;font-family:F1;-inkscape-font-specification:F1;writing-mode:lr-tb;fill:gray;fill-opacity:1;fill-rule:nonzero;stroke:none" id="text1034" transform="translate(272.64001,657.28003)"><tspan id="tspan1032" x="0 .806 1.92 2.24 3.2 3.84 4.48 4.8" y="0">TWIG_2.0</tspan></text></g><g id="g1036" transform="matrix(0.64429836,0,0,0.64429836,371.17479,-324.45123)"><text style="font-variant:normal;font-weight:400;font-size:1.92px;font-family:F1;-inkscape-font-specification:F1;writing-mode:lr-tb;fill:gray;fill-opacity:1;fill-rule:nonzero;stroke:none" id="text1040" transform="translate(297.92001,668.47998)"><tspan id="tspan1038" x="0 1.281 2.394" y="0">BTN</tspan></text></g><g id="g4608" transform="matrix(0.64429836,0,0,0.64429836,368.38422,-325.68413)"><text style="font-variant:normal;font-weight:400;font-size:1.28px;font-family:F1;-inkscape-font-specification:F1;writing-mode:lr-tb;fill:gray;fill-opacity:1;fill-rule:nonzero;stroke:none" id="text4612" transform="translate(318.72,665.44)"><tspan id="tspan4610" x="0 .96 1.6" y="0">R55</tspan></text></g><g id="g4614" transform="matrix(0.64429836,0,0,0.64429836,369.62256,-324.52001)"><text style="font-variant:normal;font-weight:400;font-size:1.6px;font-family:F1;-inkscape-font-specification:F1;writing-mode:lr-tb;fill:gray;fill-opacity:1;fill-rule:nonzero;stroke:none" id="text4618" x="278.309" y="664.02"><tspan id="tspan4616" x="278.309" y="664.02">1</tspan></text></g><g id="g4620" transform="matrix(0.64429836,0,0,0.64429836,370.08643,-324.54001)"><text style="font-variant:normal;font-weight:400;font-size:1.6px;font-family:F1;-inkscape-font-specification:F1;writing-mode:lr-tb;fill:gray;fill-opacity:1;fill-rule:nonzero;stroke:none" id="text4624" transform="translate(277.60001,662.23999)"><tspan id="tspan4622" x="0" y="0">2</tspan></text></g><g id="g4626" transform="matrix(0.64429836,0,0,0.64429836,370.07741,-324.54051)"><text style="font-variant:normal;font-weight:400;font-size:1.6px;font-family:F1;-inkscape-font-specification:F1;writing-mode:lr-tb;fill:gray;fill-opacity:1;fill-rule:nonzero;stroke:none" id="text4630" transform="translate(277.60001,660.15997)"><tspan id="tspan4628" x="0" y="0">3</tspan></text></g><g id="g4632" transform="matrix(0.64429836,0,0,0.64429836,370.00699,-324.5823)"><text style="font-variant:normal;font-weight:400;font-size:1.6px;font-family:F1;-inkscape-font-specification:F1;writing-mode:lr-tb;fill:gray;fill-opacity:1;fill-rule:nonzero;stroke:none" id="text4636" transform="translate(277.60001,658.23999)"><tspan id="tspan4634" x="0" y="0">4</tspan></text></g><g id="g4638" transform="matrix(0.64429836,0,0,0.64429836,367.58238,-331.28189)"><text style="font-variant:normal;font-weight:400;font-size:1.28px;font-family:F1;-inkscape-font-specification:F1;writing-mode:lr-tb;fill:gray;fill-opacity:1;fill-rule:nonzero;stroke:none" id="text4642" transform="translate(276.79999,666.88)"><tspan id="tspan4640" x="0 .64" y="0">J5</tspan></text></g><g id="g4650" transform="matrix(0.64429836,0,0,0.64429836,369.62256,-324.52001)"><text style="font-variant:normal;font-weight:400;font-size:1.6px;font-family:F1;-inkscape-font-specification:F1;writing-mode:lr-tb;fill:gray;fill-opacity:1;fill-rule:nonzero;stroke:none" id="text4654" transform="translate(293.92001,660.15997)"><tspan id="tspan4652" x="0 .96" y="0">0A</tspan></text></g><g id="g4662" transform="matrix(0.64429836,0,0,0.64429836,369.62256,-324.52001)"><text style="font-variant:normal;font-weight:400;font-size:1.6px;font-family:F1;-inkscape-font-specification:F1;writing-mode:lr-tb;fill:gray;fill-opacity:1;fill-rule:nonzero;stroke:none" id="text4666" transform="translate(307.84,660.15997)"><tspan id="tspan4664" x="0 .96" y="0">1A</tspan></text></g><g id="g4674" transform="matrix(0.64429836,0,0,0.64429836,369.62256,-324.52001)"><text style="font-variant:normal;font-weight:400;font-size:1.6px;font-family:F1;-inkscape-font-specification:F1;writing-mode:lr-tb;fill:gray;fill-opacity:1;fill-rule:nonzero;stroke:none" id="text4678" transform="translate(293.92001,664.32001)"><tspan id="tspan4676" x="0 .96" y="0">0B</tspan></text></g><g id="g4686" transform="matrix(0.64429836,0,0,0.64429836,369.62256,-324.52001)"><text style="font-variant:normal;font-weight:400;font-size:1.6px;font-family:F1;-inkscape-font-specification:F1;writing-mode:lr-tb;fill:gray;fill-opacity:1;fill-rule:nonzero;stroke:none" id="text4690" transform="translate(307.84,664.32001)"><tspan id="tspan4688" x="0 .96" y="0">1B</tspan></text></g><g id="g4692" transform="matrix(0.64429836,0,0,0.64429836,370.88019,-324.11933)"><text style="font-variant:normal;font-weight:400;font-size:1.92px;font-family:F1;-inkscape-font-specification:F1;writing-mode:lr-tb;fill:gray;fill-opacity:1;fill-rule:nonzero;stroke:none" id="text4696" transform="translate(297.92001,657.59998)"><tspan id="tspan4694" x="0 1.281 3.047" y="0">SW2</tspan></text></g><g id="g5914" transform="matrix(0.64429836,0,0,0.64429836,369.50852,-324.89772)"><text style="font-variant:normal;font-weight:400;font-size:1.92px;font-family:F1;-inkscape-font-specification:F1;writing-mode:lr-tb;fill:gray;fill-opacity:1;fill-rule:nonzero;stroke:none" id="text5918" transform="translate(280.79999,658.56)"><tspan id="tspan5916" x="0 1.44 2.88" y="0">GND</tspan></text></g><g id="g6310" transform="matrix(0.64429836,0,0,0.64429836,369.62256,-324.68058)"><text style="font-variant:normal;font-weight:400;font-size:1.92px;font-family:F1;-inkscape-font-specification:F1;writing-mode:lr-tb;fill:gray;fill-opacity:1;fill-rule:nonzero;stroke:none" id="text6314" transform="translate(280.79999,660.47998)"><tspan id="tspan6312" x="0 1.114 2.554" y="0">VCC</tspan></text></g><g id="g6920" transform="matrix(0.64429836,0,0,0.64429836,368.34539,-324.79067)"><text style="font-variant:normal;font-weight:400;font-size:1.92px;font-family:F1;-inkscape-font-specification:F1;writing-mode:lr-tb;fill:gray;fill-opacity:1;fill-rule:nonzero;stroke:none" id="text6924" transform="translate(282.72,664.47998)"><tspan id="tspan6922" x="0 1.281 2.721" y="0">PD6</tspan></text></g><g id="g27278" transform="matrix(0.64429836,0,0,0.64429836,369.62256,-324.52001)"><path style="fill:none;stroke:#c90d0c;stroke-width:.32;stroke-linecap:round;stroke-linejoin:round;stroke-miterlimit:10;stroke-dasharray:none;stroke-opacity:1" id="path27280" d="m 319.04001,664.96002 h -2.08002"/></g><g id="g27282" transform="matrix(0.64429836,0,0,0.64429836,369.62256,-324.52001)"><path style="fill:none;stroke:#c90d0c;stroke-width:.32;stroke-linecap:round;stroke-linejoin:round;stroke-miterlimit:10;stroke-dasharray:none;stroke-opacity:1" id="path27284" d="m 316.95999,664.96002 v -0.80005"/></g><g id="g27286" transform="matrix(0.64429836,0,0,0.64429836,369.62256,-324.52001)"><path style="fill:none;stroke:#c90d0c;stroke-width:.32;stroke-linecap:round;stroke-linejoin:round;stroke-miterlimit:10;stroke-dasharray:none;stroke-opacity:1" id="path27288" d="m 316.95999,664.15997 h 2.08002"/></g><g id="g27290" transform="matrix(0.64429836,0,0,0.64429836,369.62256,-324.52001)"><path style="fill:none;stroke:#c90d0c;stroke-width:.32;stroke-linecap:round;stroke-linejoin:round;stroke-miterlimit:10;stroke-dasharray:none;stroke-opacity:1" id="path27292" d="m 319.04001,664.15997 v 0.80005"/></g><g id="g27294" transform="matrix(0.64429836,0,0,0.64429836,369.62256,-324.52001)"><path style="fill:none;stroke:#c90d0c;stroke-width:.16;stroke-linecap:round;stroke-linejoin:round;stroke-miterlimit:10;stroke-dasharray:none;stroke-opacity:1" id="path27296" d="m 320.95999,664.47998 h -1.91998"/></g><g id="g27298" transform="matrix(0.64429836,0,0,0.64429836,369.62256,-324.52001)"><path style="fill:none;stroke:#c90d0c;stroke-width:.16;stroke-linecap:round;stroke-linejoin:round;stroke-miterlimit:10;stroke-dasharray:none;stroke-opacity:1" id="path27300" d="m 315.04001,664.47998 h 1.91998"/></g><g id="g27302" transform="matrix(0.64429836,0,0,0.64429836,369.62256,-324.52001)"><path style="fill:none;stroke:#c90d0c;stroke-width:.32;stroke-linecap:round;stroke-linejoin:round;stroke-miterlimit:10;stroke-dasharray:none;stroke-opacity:1" id="path27304" d="m 277.76001,665.59998 h -4.16"/></g><g id="g27306" transform="matrix(0.64429836,0,0,0.64429836,369.62256,-324.52001)"><path style="fill:none;stroke:#c90d0c;stroke-width:.32;stroke-linecap:round;stroke-linejoin:round;stroke-miterlimit:10;stroke-dasharray:none;stroke-opacity:1" id="path27308" d="M 273.60001,665.59998 V 657.44"/></g><g id="g27310" transform="matrix(0.64429836,0,0,0.64429836,369.62256,-324.52001)"><path style="fill:none;stroke:#c90d0c;stroke-width:.32;stroke-linecap:round;stroke-linejoin:round;stroke-miterlimit:10;stroke-dasharray:none;stroke-opacity:1" id="path27312" d="m 273.60001,657.44 h 4.16"/></g><g id="g27314" transform="matrix(0.64429836,0,0,0.64429836,369.62256,-324.52001)"><path style="fill:none;stroke:#c90d0c;stroke-width:.32;stroke-linecap:round;stroke-linejoin:round;stroke-miterlimit:10;stroke-dasharray:none;stroke-opacity:1" id="path27316" d="m 277.76001,657.44 v 8.15998"/></g><g id="g27318" transform="matrix(0.64429836,0,0,0.64429836,369.62256,-324.52001)"><path style="fill:none;stroke:#c90d0c;stroke-width:.16;stroke-linecap:round;stroke-linejoin:round;stroke-miterlimit:10;stroke-dasharray:none;stroke-opacity:1" id="path27320" d="m 275.67999,665.28003 -1.6,-0.80005"/></g><g id="g27322" transform="matrix(0.64429836,0,0,0.64429836,369.62256,-324.52001)"><path style="fill:none;stroke:#c90d0c;stroke-width:.16;stroke-linecap:round;stroke-linejoin:round;stroke-miterlimit:10;stroke-dasharray:none;stroke-opacity:1" id="path27324" d="m 274.07999,664.47998 1.6,-0.79999"/></g><g id="g27326" transform="matrix(0.64429836,0,0,0.64429836,548.27359,103.60336)"><path style="fill:none;stroke:#c90d0c;stroke-width:.16;stroke-linecap:round;stroke-linejoin:round;stroke-miterlimit:10;stroke-dasharray:none;stroke-opacity:1" id="path27328" d="m 0,0 c 0,0.48 -0.32,0.8 -0.8,0.8 -0.48,0 -0.8,-0.32 -0.8,-0.8 0,-0.48 0.32,-0.8 0.8,-0.8 0.48,0 0.8,0.32 0.8,0.8 z"/></g><g id="g27330" transform="matrix(0.64429836,0,0,0.64429836,369.62256,-324.52001)"><path style="fill:none;stroke:#c90d0c;stroke-width:.16;stroke-linecap:round;stroke-linejoin:round;stroke-miterlimit:10;stroke-dasharray:none;stroke-opacity:1" id="path27332" d="M 279.67999,664.47998 H 277.28"/></g><g id="g27334" transform="matrix(0.64429836,0,0,0.64429836,548.27359,102.3663)"><path style="fill:none;stroke:#c90d0c;stroke-width:.16;stroke-linecap:round;stroke-linejoin:round;stroke-miterlimit:10;stroke-dasharray:none;stroke-opacity:1" id="path27336" d="m 0,0 c 0,0.48 -0.32,0.8 -0.8,0.8 -0.48,0 -0.8,-0.32 -0.8,-0.8 0,-0.48 0.32,-0.8 0.8,-0.8 0.48,0 0.8,0.32 0.8,0.8 z"/></g><g id="g27338" transform="matrix(0.64429836,0,0,0.64429836,369.62256,-324.52001)"><path style="fill:none;stroke:#c90d0c;stroke-width:.16;stroke-linecap:round;stroke-linejoin:round;stroke-miterlimit:10;stroke-dasharray:none;stroke-opacity:1" id="path27340" d="M 279.67999,662.56 H 277.28"/></g><g id="g27342" transform="matrix(0.64429836,0,0,0.64429836,548.27359,101.02616)"><path style="fill:none;stroke:#c90d0c;stroke-width:.16;stroke-linecap:round;stroke-linejoin:round;stroke-miterlimit:10;stroke-dasharray:none;stroke-opacity:1" id="path27344" d="m 0,0 c 0,0.48 -0.32,0.8 -0.8,0.8 -0.48,0 -0.8,-0.32 -0.8,-0.8 0,-0.48 0.32,-0.8 0.8,-0.8 0.48,0 0.8,0.32 0.8,0.8 z"/></g><g id="g27346" transform="matrix(0.64429836,0,0,0.64429836,369.62256,-324.52001)"><path style="fill:none;stroke:#c90d0c;stroke-width:.16;stroke-linecap:round;stroke-linejoin:round;stroke-miterlimit:10;stroke-dasharray:none;stroke-opacity:1" id="path27348" d="M 279.67999,660.47998 H 277.28"/></g><g id="g27350" transform="matrix(0.64429836,0,0,0.64429836,548.27359,99.686048)"><path style="fill:none;stroke:#c90d0c;stroke-width:.16;stroke-linecap:round;stroke-linejoin:round;stroke-miterlimit:10;stroke-dasharray:none;stroke-opacity:1" id="path27352" d="m 0,0 c 0,0.48 -0.32,0.8 -0.8,0.8 -0.48,0 -0.8,-0.32 -0.8,-0.8 0,-0.48 0.32,-0.8 0.8,-0.8 0.48,0 0.8,0.32 0.8,0.8 z"/></g><g id="g27354" transform="matrix(0.64429836,0,0,0.64429836,369.62256,-324.52001)"><path style="fill:none;stroke:#c90d0c;stroke-width:.16;stroke-linecap:round;stroke-linejoin:round;stroke-miterlimit:10;stroke-dasharray:none;stroke-opacity:1" id="path27356" d="M 279.67999,658.40002 H 277.28"/></g><g id="g27358" transform="matrix(0.64429836,0,0,0.64429836,369.62256,-324.52001)"><path style="fill:none;stroke:#c90d0c;stroke-width:.32;stroke-linecap:round;stroke-linejoin:round;stroke-miterlimit:10;stroke-dasharray:none;stroke-opacity:1" id="path27360" d="m 297.92001,658.40002 h 8"/></g><g id="g27362" transform="matrix(0.64429836,0,0,0.64429836,369.62256,-324.52001)"><path style="fill:none;stroke:#c90d0c;stroke-width:.32;stroke-linecap:round;stroke-linejoin:round;stroke-miterlimit:10;stroke-dasharray:none;stroke-opacity:1" id="path27364" d="M 305.92001,658.40002 V 666.56"/></g><g id="g27366" transform="matrix(0.64429836,0,0,0.64429836,369.62256,-324.52001)"><path style="fill:none;stroke:#c90d0c;stroke-width:.32;stroke-linecap:round;stroke-linejoin:round;stroke-miterlimit:10;stroke-dasharray:none;stroke-opacity:1" id="path27368" d="m 305.92001,666.56 h -8"/></g><g id="g27370" transform="matrix(0.64429836,0,0,0.64429836,369.62256,-324.52001)"><path style="fill:none;stroke:#c90d0c;stroke-width:.32;stroke-linecap:round;stroke-linejoin:round;stroke-miterlimit:10;stroke-dasharray:none;stroke-opacity:1" id="path27372" d="m 297.92001,666.56 v -8.15998"/></g><g id="g27374" transform="matrix(0.64429836,0,0,0.64429836,565.48929,102.3663)"><path style="fill:none;stroke:#c90d0c;stroke-width:.32;stroke-linecap:round;stroke-linejoin:round;stroke-miterlimit:10;stroke-dasharray:none;stroke-opacity:1" id="path27376" d="M 0,0 C 0,1.12 -0.96,2.08 -2.08,2.08 -3.2,2.08 -4.16,1.12 -4.16,0 c 0,-1.12 0.96,-2.08 2.08,-2.08 C -0.96,-2.08 0,-1.12 0,0 Z"/></g><g id="g27378" transform="matrix(0.64429836,0,0,0.64429836,369.62256,-324.52001)"><path style="fill:none;stroke:#c90d0c;stroke-width:.16;stroke-linecap:round;stroke-linejoin:round;stroke-miterlimit:10;stroke-dasharray:none;stroke-opacity:1" id="path27380" d="m 297.92001,659.67999 1.43998,0.79999"/></g><g id="g27382" transform="matrix(0.64429836,0,0,0.64429836,369.62256,-324.52001)"><path style="fill:none;stroke:#c90d0c;stroke-width:.16;stroke-linecap:round;stroke-linejoin:round;stroke-miterlimit:10;stroke-dasharray:none;stroke-opacity:1" id="path27384" d="m 299.35999,660.47998 -1.43998,0.80005"/></g><g id="g27386" transform="matrix(0.64429836,0,0,0.64429836,561.57196,101.02616)"><path style="fill:none;stroke:#c90d0c;stroke-width:.16;stroke-linecap:round;stroke-linejoin:round;stroke-miterlimit:10;stroke-dasharray:none;stroke-opacity:1" id="path27388" d="m 0,0 c 0,0.48 -0.32,0.8 -0.8,0.8 -0.48,0 -0.8,-0.32 -0.8,-0.8 0,-0.48 0.32,-0.8 0.8,-0.8 0.48,0 0.8,0.32 0.8,0.8 z"/></g><g id="g27390" transform="matrix(0.64429836,0,0,0.64429836,369.62256,-324.52001)"><path style="fill:none;stroke:#c90d0c;stroke-width:.16;stroke-linecap:round;stroke-linejoin:round;stroke-miterlimit:10;stroke-dasharray:none;stroke-opacity:1" id="path27392" d="m 293.76001,660.47998 h 2.56"/></g><g id="g27394" transform="matrix(0.64429836,0,0,0.64429836,369.62256,-324.52001)"><path style="fill:none;stroke:#c90d0c;stroke-width:.16;stroke-linecap:round;stroke-linejoin:round;stroke-miterlimit:10;stroke-dasharray:none;stroke-opacity:1" id="path27396" d="m 305.92001,661.28003 -1.6,-0.80005"/></g><g id="g27398" transform="matrix(0.64429836,0,0,0.64429836,369.62256,-324.52001)"><path style="fill:none;stroke:#c90d0c;stroke-width:.16;stroke-linecap:round;stroke-linejoin:round;stroke-miterlimit:10;stroke-dasharray:none;stroke-opacity:1" id="path27400" d="m 304.32001,660.47998 1.6,-0.79999"/></g><g id="g27402" transform="matrix(0.64429836,0,0,0.64429836,567.75717,101.02616)"><path style="fill:none;stroke:#c90d0c;stroke-width:.16;stroke-linecap:round;stroke-linejoin:round;stroke-miterlimit:10;stroke-dasharray:none;stroke-opacity:1" id="path27404" d="m 0,0 c 0,0.48 -0.32,0.8 -0.8,0.8 -0.48,0 -0.8,-0.32 -0.8,-0.8 0,-0.48 0.32,-0.8 0.8,-0.8 0.48,0 0.8,0.32 0.8,0.8 z"/></g><g id="g27406" transform="matrix(0.64429836,0,0,0.64429836,369.62256,-324.52001)"><path style="fill:none;stroke:#c90d0c;stroke-width:.16;stroke-linecap:round;stroke-linejoin:round;stroke-miterlimit:10;stroke-dasharray:none;stroke-opacity:1" id="path27408" d="m 309.92001,660.47998 h -2.40002"/></g><g id="g27410" transform="matrix(0.64429836,0,0,0.64429836,369.62256,-324.52001)"><path style="fill:none;stroke:#c90d0c;stroke-width:.16;stroke-linecap:round;stroke-linejoin:round;stroke-miterlimit:10;stroke-dasharray:none;stroke-opacity:1" id="path27412" d="m 293.76001,664.47998 h 4.16"/></g><g id="g27414" transform="matrix(0.64429836,0,0,0.64429836,369.62256,-324.52001)"><path style="fill:none;stroke:#c90d0c;stroke-width:.16;stroke-linecap:round;stroke-linejoin:round;stroke-miterlimit:10;stroke-dasharray:none;stroke-opacity:1" id="path27416" d="m 309.92001,664.47998 h -4"/></g><g id="g36044" transform="matrix(0.64429836,0,0,0.64429836,369.62256,-324.52001)"><path style="fill:none;stroke:#0dab76;stroke-width:.16;stroke-linecap:round;stroke-linejoin:round;stroke-miterlimit:10;stroke-dasharray:none;stroke-opacity:1" id="path36046" d="m 279.67999,658.40002 h 5.12"/></g><g id="g36048" transform="matrix(0.64429836,0,0,0.64429836,369.62256,-324.52001)"><path style="fill:none;stroke:#0dab76;stroke-width:.16;stroke-linecap:round;stroke-linejoin:round;stroke-miterlimit:10;stroke-dasharray:none;stroke-opacity:1" id="path36050" d="m 284.79999,658.40002 h 0.96002"/></g><g id="g36052" transform="matrix(0.64429836,0,0,0.64429836,369.62256,-324.52001)"><path style="fill:none;stroke:#0dab76;stroke-width:.16;stroke-linecap:round;stroke-linejoin:round;stroke-miterlimit:10;stroke-dasharray:none;stroke-opacity:1" id="path36054" d="m 285.76001,658.40002 v -1.92004"/></g><g id="g36056" transform="matrix(0.64429836,0,0,0.64429836,369.62256,-324.52001)"><path style="fill:none;stroke:#0dab76;stroke-width:.16;stroke-linecap:round;stroke-linejoin:round;stroke-miterlimit:10;stroke-dasharray:none;stroke-opacity:1" id="path36058" d="m 285.76001,656.47998 h 35.19998"/></g><g id="g36060" transform="matrix(0.64429836,0,0,0.64429836,369.62256,-324.52001)"><path style="fill:none;stroke:#0dab76;stroke-width:.16;stroke-linecap:round;stroke-linejoin:round;stroke-miterlimit:10;stroke-dasharray:none;stroke-opacity:1" id="path36062" d="m 320.95999,656.47998 v 8"/></g><g id="g36988" transform="matrix(0.64429836,0,0,0.64429836,369.62256,-324.52001)"><path style="fill:none;stroke:#0dab76;stroke-width:.16;stroke-linecap:round;stroke-linejoin:round;stroke-miterlimit:10;stroke-dasharray:none;stroke-opacity:1" id="path36990" d="m 279.67999,660.47998 h 14.08002"/></g><g id="g37492" transform="matrix(0.64429836,0,0,0.64429836,369.62256,-324.52001)"><path style="fill:none;stroke:#0dab76;stroke-width:.16;stroke-linecap:round;stroke-linejoin:round;stroke-miterlimit:10;stroke-dasharray:none;stroke-opacity:1" id="path37494" d="m 279.67999,664.47998 h 5.12"/></g><g id="g37496" transform="matrix(0.64429836,0,0,0.64429836,369.62256,-324.52001)"><path style="fill:none;stroke:#0dab76;stroke-width:.16;stroke-linecap:round;stroke-linejoin:round;stroke-miterlimit:10;stroke-dasharray:none;stroke-opacity:1" id="path37498" d="m 284.79999,664.47998 v 5.12"/></g><g id="g37500" transform="matrix(0.64429836,0,0,0.64429836,369.62256,-324.52001)"><path style="fill:none;stroke:#0dab76;stroke-width:.16;stroke-linecap:round;stroke-linejoin:round;stroke-miterlimit:10;stroke-dasharray:none;stroke-opacity:1" id="path37502" d="m 315.04001,664.47998 h -2.08002"/></g><g id="g37504" transform="matrix(0.64429836,0,0,0.64429836,369.62256,-324.52001)"><path style="fill:none;stroke:#0dab76;stroke-width:.16;stroke-linecap:round;stroke-linejoin:round;stroke-miterlimit:10;stroke-dasharray:none;stroke-opacity:1" id="path37506" d="m 312.95999,664.47998 h -3.03998"/></g><g id="g37508" transform="matrix(0.64429836,0,0,0.64429836,369.62256,-324.52001)"><path style="fill:none;stroke:#0dab76;stroke-width:.16;stroke-linecap:round;stroke-linejoin:round;stroke-miterlimit:10;stroke-dasharray:none;stroke-opacity:1" id="path37510" d="m 284.79999,669.59998 h 28.16"/></g><g id="g37512" transform="matrix(0.64429836,0,0,0.64429836,369.62256,-324.52001)"><path style="fill:none;stroke:#0dab76;stroke-width:.16;stroke-linecap:round;stroke-linejoin:round;stroke-miterlimit:10;stroke-dasharray:none;stroke-opacity:1" id="path37514" d="m 312.95999,669.59998 v -5.12"/></g><g id="g37516" transform="matrix(0.64429836,0,0,0.64429836,571.57144,103.60336)"><path style="fill:#0dab76;fill-opacity:1;fill-rule:evenodd;stroke:none" id="path37518" d="M 0,0 C 0,0.32 -0.16,0.48 -0.48,0.48 -0.8,0.48 -0.96,0.32 -0.96,0 c 0,-0.32 0.16,-0.48 0.48,-0.48 C -0.16,-0.48 0,-0.32 0,0 Z"/></g><g id="g37520" transform="matrix(0.64429836,0,0,0.64429836,571.57144,103.60336)"><path style="fill:none;stroke:#0dab76;stroke-width:.16;stroke-linecap:round;stroke-linejoin:round;stroke-miterlimit:10;stroke-dasharray:none;stroke-opacity:1" id="path37522" d="M 0,0 C 0,0.32 -0.16,0.48 -0.48,0.48 -0.8,0.48 -0.96,0.32 -0.96,0 c 0,-0.32 0.16,-0.48 0.48,-0.48 C -0.16,-0.48 0,-0.32 0,0 Z"/></g></g></g></svg>