<?xml version="1.0" encoding="UTF-8" standalone="no"?>
<!-- Created with Inkscape (http://www.inkscape.org/) -->

<svg
   width="90mm"
   height="75mm"
   viewBox="0 0 90 75"
   version="1.1"
   id="svg82735"
   inkscape:version="1.1.1 (3bf5ae0d25, 2021-09-20)"
   sodipodi:docname="4.svg"
   xmlns:inkscape="http://www.inkscape.org/namespaces/inkscape"
   xmlns:sodipodi="http://sodipodi.sourceforge.net/DTD/sodipodi-0.dtd"
   xmlns="http://www.w3.org/2000/svg"
   xmlns:svg="http://www.w3.org/2000/svg">
  <sodipodi:namedview
     id="namedview82737"
     pagecolor="#ffffff"
     bordercolor="#666666"
     borderopacity="1.0"
     inkscape:pageshadow="2"
     inkscape:pageopacity="0.0"
     inkscape:pagecheckerboard="0"
     inkscape:document-units="mm"
     showgrid="false"
     inkscape:zoom="1.8116734"
     inkscape:cx="162.2809"
     inkscape:cy="103.21949"
     inkscape:window-width="1920"
     inkscape:window-height="1163"
     inkscape:window-x="1920"
     inkscape:window-y="0"
     inkscape:window-maximized="1"
     inkscape:current-layer="g4770" />
  <defs
     id="defs82732">
    <clipPath
       clipPathUnits="userSpaceOnUse"
       id="clipPath6222">
      <path
         d="M 248,26.4 V 747.84003 H 874.56 V 26.4 Z"
         clip-rule="evenodd"
         id="path6220" />
    </clipPath>
    <clipPath
       clipPathUnits="userSpaceOnUse"
       id="clipPath6454">
      <path
         d="M 248,26.4 V 747.84003 H 874.56 V 26.4 Z"
         clip-rule="evenodd"
         id="path6452" />
    </clipPath>
    <clipPath
       clipPathUnits="userSpaceOnUse"
       id="clipPath6488">
      <path
         d="M 248,26.4 V 747.84003 H 874.56 V 26.4 Z"
         clip-rule="evenodd"
         id="path6486" />
    </clipPath>
    <clipPath
       clipPathUnits="userSpaceOnUse"
       id="clipPath6522">
      <path
         d="M 248,26.4 V 747.84003 H 874.56 V 26.4 Z"
         clip-rule="evenodd"
         id="path6520" />
    </clipPath>
    <clipPath
       clipPathUnits="userSpaceOnUse"
       id="clipPath7180">
      <path
         d="M 248,26.4 V 747.84003 H 874.56 V 26.4 Z"
         clip-rule="evenodd"
         id="path7178" />
    </clipPath>
    <clipPath
       clipPathUnits="userSpaceOnUse"
       id="clipPath7336">
      <path
         d="M 248,26.4 V 747.84003 H 874.56 V 26.4 Z"
         clip-rule="evenodd"
         id="path7334" />
    </clipPath>
    <clipPath
       clipPathUnits="userSpaceOnUse"
       id="clipPath8512">
      <path
         d="M 248,26.4 V 747.84003 H 874.56 V 26.4 Z"
         clip-rule="evenodd"
         id="path8510" />
    </clipPath>
    <clipPath
       clipPathUnits="userSpaceOnUse"
       id="clipPath8546">
      <path
         d="M 248,26.4 V 747.84003 H 874.56 V 26.4 Z"
         clip-rule="evenodd"
         id="path8544" />
    </clipPath>
    <clipPath
       clipPathUnits="userSpaceOnUse"
       id="clipPath8580">
      <path
         d="M 248,26.4 V 747.84003 H 874.56 V 26.4 Z"
         clip-rule="evenodd"
         id="path8578" />
    </clipPath>
    <clipPath
       clipPathUnits="userSpaceOnUse"
       id="clipPath8614">
      <path
         d="M 248,26.4 V 747.84003 H 874.56 V 26.4 Z"
         clip-rule="evenodd"
         id="path8612" />
    </clipPath>
    <clipPath
       clipPathUnits="userSpaceOnUse"
       id="clipPath8648">
      <path
         d="M 248,26.4 V 747.84003 H 874.56 V 26.4 Z"
         clip-rule="evenodd"
         id="path8646" />
    </clipPath>
    <clipPath
       clipPathUnits="userSpaceOnUse"
       id="clipPath8682">
      <path
         d="M 248,26.4 V 747.84003 H 874.56 V 26.4 Z"
         clip-rule="evenodd"
         id="path8680" />
    </clipPath>
    <clipPath
       clipPathUnits="userSpaceOnUse"
       id="clipPath8716">
      <path
         d="M 248,26.4 V 747.84003 H 874.56 V 26.4 Z"
         clip-rule="evenodd"
         id="path8714" />
    </clipPath>
    <clipPath
       clipPathUnits="userSpaceOnUse"
       id="clipPath8750">
      <path
         d="M 248,26.4 V 747.84003 H 874.56 V 26.4 Z"
         clip-rule="evenodd"
         id="path8748" />
    </clipPath>
    <clipPath
       clipPathUnits="userSpaceOnUse"
       id="clipPath8784">
      <path
         d="M 248,26.4 V 747.84003 H 874.56 V 26.4 Z"
         clip-rule="evenodd"
         id="path8782" />
    </clipPath>
    <clipPath
       clipPathUnits="userSpaceOnUse"
       id="clipPath8830">
      <path
         d="M 248,26.4 V 747.84003 H 874.56 V 26.4 Z"
         clip-rule="evenodd"
         id="path8828" />
    </clipPath>
    <clipPath
       clipPathUnits="userSpaceOnUse"
       id="clipPath8870">
      <path
         d="M 248,26.4 V 747.84003 H 874.56 V 26.4 Z"
         clip-rule="evenodd"
         id="path8868" />
    </clipPath>
    <clipPath
       clipPathUnits="userSpaceOnUse"
       id="clipPath8916">
      <path
         d="M 248,26.4 V 747.84003 H 874.56 V 26.4 Z"
         clip-rule="evenodd"
         id="path8914" />
    </clipPath>
    <clipPath
       clipPathUnits="userSpaceOnUse"
       id="clipPath8950">
      <path
         d="M 248,26.4 V 747.84003 H 874.56 V 26.4 Z"
         clip-rule="evenodd"
         id="path8948" />
    </clipPath>
    <clipPath
       clipPathUnits="userSpaceOnUse"
       id="clipPath8984">
      <path
         d="M 248,26.4 V 747.84003 H 874.56 V 26.4 Z"
         clip-rule="evenodd"
         id="path8982" />
    </clipPath>
    <clipPath
       clipPathUnits="userSpaceOnUse"
       id="clipPath9018">
      <path
         d="M 248,26.4 V 747.84003 H 874.56 V 26.4 Z"
         clip-rule="evenodd"
         id="path9016" />
    </clipPath>
    <clipPath
       clipPathUnits="userSpaceOnUse"
       id="clipPath9052">
      <path
         d="M 248,26.4 V 747.84003 H 874.56 V 26.4 Z"
         clip-rule="evenodd"
         id="path9050" />
    </clipPath>
    <clipPath
       clipPathUnits="userSpaceOnUse"
       id="clipPath9092">
      <path
         d="M 248,26.4 V 747.84003 H 874.56 V 26.4 Z"
         clip-rule="evenodd"
         id="path9090" />
    </clipPath>
    <clipPath
       clipPathUnits="userSpaceOnUse"
       id="clipPath9126">
      <path
         d="M 248,26.4 V 747.84003 H 874.56 V 26.4 Z"
         clip-rule="evenodd"
         id="path9124" />
    </clipPath>
    <clipPath
       clipPathUnits="userSpaceOnUse"
       id="clipPath9160">
      <path
         d="M 248,26.4 V 747.84003 H 874.56 V 26.4 Z"
         clip-rule="evenodd"
         id="path9158" />
    </clipPath>
    <clipPath
       clipPathUnits="userSpaceOnUse"
       id="clipPath9194">
      <path
         d="M 248,26.4 V 747.84003 H 874.56 V 26.4 Z"
         clip-rule="evenodd"
         id="path9192" />
    </clipPath>
    <clipPath
       clipPathUnits="userSpaceOnUse"
       id="clipPath9228">
      <path
         d="M 248,26.4 V 747.84003 H 874.56 V 26.4 Z"
         clip-rule="evenodd"
         id="path9226" />
    </clipPath>
    <clipPath
       clipPathUnits="userSpaceOnUse"
       id="clipPath9262">
      <path
         d="M 248,26.4 V 747.84003 H 874.56 V 26.4 Z"
         clip-rule="evenodd"
         id="path9260" />
    </clipPath>
  </defs>
  <g
     inkscape:label="Kiht 1"
     inkscape:groupmode="layer"
     id="layer1">
    <g
       id="g4770"
       transform="matrix(2.5888601,0,0,2.5888601,-1408.6649,-225.88602)"
       style="fill:#000000">
      <text
         transform="translate(545.59998,89.599998)"
         style="font-variant:normal;font-weight:normal;font-size:1.92px;font-family:F1;-inkscape-font-specification:F1;writing-mode:lr-tb;fill:#000000;fill-opacity:1;fill-rule:nonzero;stroke:none"
         id="text4774"><tspan
           sodipodi:role="line"
           id="tspan4772"
           x="0"
           y="0">4.Button</tspan></text>
      <g
         id="g1024"
         transform="matrix(0.64429836,0,0,0.64429836,370.75801,-323.88713)">
        <text
           transform="translate(315.20001,665.44)"
           style="font-variant:normal;font-weight:normal;font-size:1.28px;font-family:F1;-inkscape-font-specification:F1;writing-mode:lr-tb;fill:#808080;fill-opacity:1;fill-rule:nonzero;stroke:none"
           id="text1028"><tspan
             x="0 0.63999999 1.28"
             y="0"
             sodipodi:role="line"
             id="tspan1026">10k</tspan></text>
      </g>
      <g
         id="g1030"
         transform="matrix(0.64429836,0,0,0.64429836,369.61891,-317.98023)">
        <text
           transform="translate(272.64001,657.28003)"
           style="font-variant:normal;font-weight:normal;font-size:1.28px;font-family:F1;-inkscape-font-specification:F1;writing-mode:lr-tb;fill:#808080;fill-opacity:1;fill-rule:nonzero;stroke:none"
           id="text1034"><tspan
             x="0 0.8064 1.92 2.24 3.2 3.8399999 4.48 4.8000002"
             y="0"
             sodipodi:role="line"
             id="tspan1032">TWIG_2.0</tspan></text>
      </g>
      <g
         id="g1036"
         transform="matrix(0.64429836,0,0,0.64429836,371.17479,-324.45123)">
        <text
           transform="translate(297.92001,668.47998)"
           style="font-variant:normal;font-weight:normal;font-size:1.92px;font-family:F1;-inkscape-font-specification:F1;writing-mode:lr-tb;fill:#808080;fill-opacity:1;fill-rule:nonzero;stroke:none"
           id="text1040"><tspan
             x="0 1.280625 2.3942249"
             y="0"
             sodipodi:role="line"
             id="tspan1038">BTN</tspan></text>
      </g>
      <g
         id="g4608"
         transform="matrix(0.64429836,0,0,0.64429836,368.38422,-325.68413)">
        <text
           transform="translate(318.72,665.44)"
           style="font-variant:normal;font-weight:normal;font-size:1.28px;font-family:F1;-inkscape-font-specification:F1;writing-mode:lr-tb;fill:#808080;fill-opacity:1;fill-rule:nonzero;stroke:none"
           id="text4612"><tspan
             x="0 0.95999998 1.6"
             y="0"
             sodipodi:role="line"
             id="tspan4610">R55</tspan></text>
      </g>
      <g
         id="g4614"
         transform="matrix(0.64429836,0,0,0.64429836,369.62256,-324.52001)">
        <text
           style="font-variant:normal;font-weight:normal;font-size:1.6px;font-family:F1;-inkscape-font-specification:F1;writing-mode:lr-tb;fill:#808080;fill-opacity:1;fill-rule:nonzero;stroke:none"
           id="text4618"
           x="278.30869"
           y="664.02032"><tspan
             x="278.30869"
             y="664.02032"
             id="tspan4616">1</tspan></text>
      </g>
      <g
         id="g4620"
         transform="matrix(0.64429836,0,0,0.64429836,370.08643,-324.54001)">
        <text
           transform="translate(277.60001,662.23999)"
           style="font-variant:normal;font-weight:normal;font-size:1.6px;font-family:F1;-inkscape-font-specification:F1;writing-mode:lr-tb;fill:#808080;fill-opacity:1;fill-rule:nonzero;stroke:none"
           id="text4624"><tspan
             x="0"
             y="0"
             id="tspan4622">2</tspan></text>
      </g>
      <g
         id="g4626"
         transform="matrix(0.64429836,0,0,0.64429836,370.07741,-324.54051)">
        <text
           transform="translate(277.60001,660.15997)"
           style="font-variant:normal;font-weight:normal;font-size:1.6px;font-family:F1;-inkscape-font-specification:F1;writing-mode:lr-tb;fill:#808080;fill-opacity:1;fill-rule:nonzero;stroke:none"
           id="text4630"><tspan
             x="0"
             y="0"
             id="tspan4628">3</tspan></text>
      </g>
      <g
         id="g4632"
         transform="matrix(0.64429836,0,0,0.64429836,370.00699,-324.5823)">
        <text
           transform="translate(277.60001,658.23999)"
           style="font-variant:normal;font-weight:normal;font-size:1.6px;font-family:F1;-inkscape-font-specification:F1;writing-mode:lr-tb;fill:#808080;fill-opacity:1;fill-rule:nonzero;stroke:none"
           id="text4636"><tspan
             x="0"
             y="0"
             id="tspan4634">4</tspan></text>
      </g>
      <g
         id="g4638"
         transform="matrix(0.64429836,0,0,0.64429836,367.58238,-331.28189)">
        <text
           transform="translate(276.79999,666.88)"
           style="font-variant:normal;font-weight:normal;font-size:1.28px;font-family:F1;-inkscape-font-specification:F1;writing-mode:lr-tb;fill:#808080;fill-opacity:1;fill-rule:nonzero;stroke:none"
           id="text4642"><tspan
             x="0 0.63999999"
             y="0"
             sodipodi:role="line"
             id="tspan4640">J5</tspan></text>
      </g>
      <g
         id="g4650"
         transform="matrix(0.64429836,0,0,0.64429836,369.62256,-324.52001)">
        <text
           transform="translate(293.92001,660.15997)"
           style="font-variant:normal;font-weight:normal;font-size:1.6px;font-family:F1;-inkscape-font-specification:F1;writing-mode:lr-tb;fill:#808080;fill-opacity:1;fill-rule:nonzero;stroke:none"
           id="text4654"><tspan
             x="0 0.95999998"
             y="0"
             sodipodi:role="line"
             id="tspan4652">0A</tspan></text>
      </g>
      <g
         id="g4662"
         transform="matrix(0.64429836,0,0,0.64429836,369.62256,-324.52001)">
        <text
           transform="translate(307.84,660.15997)"
           style="font-variant:normal;font-weight:normal;font-size:1.6px;font-family:F1;-inkscape-font-specification:F1;writing-mode:lr-tb;fill:#808080;fill-opacity:1;fill-rule:nonzero;stroke:none"
           id="text4666"><tspan
             x="0 0.95999998"
             y="0"
             sodipodi:role="line"
             id="tspan4664">1A</tspan></text>
      </g>
      <g
         id="g4674"
         transform="matrix(0.64429836,0,0,0.64429836,369.62256,-324.52001)">
        <text
           transform="translate(293.92001,664.32001)"
           style="font-variant:normal;font-weight:normal;font-size:1.6px;font-family:F1;-inkscape-font-specification:F1;writing-mode:lr-tb;fill:#808080;fill-opacity:1;fill-rule:nonzero;stroke:none"
           id="text4678"><tspan
             x="0 0.95999998"
             y="0"
             sodipodi:role="line"
             id="tspan4676">0B</tspan></text>
      </g>
      <g
         id="g4686"
         transform="matrix(0.64429836,0,0,0.64429836,369.62256,-324.52001)">
        <text
           transform="translate(307.84,664.32001)"
           style="font-variant:normal;font-weight:normal;font-size:1.6px;font-family:F1;-inkscape-font-specification:F1;writing-mode:lr-tb;fill:#808080;fill-opacity:1;fill-rule:nonzero;stroke:none"
           id="text4690"><tspan
             x="0 0.95999998"
             y="0"
             sodipodi:role="line"
             id="tspan4688">1B</tspan></text>
      </g>
      <g
         id="g4692"
         transform="matrix(0.64429836,0,0,0.64429836,370.88019,-324.11933)">
        <text
           transform="translate(297.92001,657.59998)"
           style="font-variant:normal;font-weight:normal;font-size:1.92px;font-family:F1;-inkscape-font-specification:F1;writing-mode:lr-tb;fill:#808080;fill-opacity:1;fill-rule:nonzero;stroke:none"
           id="text4696"><tspan
             x="0 1.280625 3.047025"
             y="0"
             sodipodi:role="line"
             id="tspan4694">SW2</tspan></text>
      </g>
      <g
         id="g5914"
         transform="matrix(0.64429836,0,0,0.64429836,369.50852,-324.89772)">
        <text
           transform="translate(280.79999,658.56)"
           style="font-variant:normal;font-weight:normal;font-size:1.92px;font-family:F1;-inkscape-font-specification:F1;writing-mode:lr-tb;fill:#808080;fill-opacity:1;fill-rule:nonzero;stroke:none"
           id="text5918"><tspan
             x="0 1.4400001 2.8800001"
             y="0"
             sodipodi:role="line"
             id="tspan5916">GND</tspan></text>
      </g>
      <g
         id="g6310"
         transform="matrix(0.64429836,0,0,0.64429836,369.62256,-324.68058)">
        <text
           transform="translate(280.79999,660.47998)"
           style="font-variant:normal;font-weight:normal;font-size:1.92px;font-family:F1;-inkscape-font-specification:F1;writing-mode:lr-tb;fill:#808080;fill-opacity:1;fill-rule:nonzero;stroke:none"
           id="text6314"><tspan
             x="0 1.1136 2.5536001"
             y="0"
             sodipodi:role="line"
             id="tspan6312">VCC</tspan></text>
      </g>
      <g
         id="g6920"
         transform="matrix(0.64429836,0,0,0.64429836,368.34539,-324.79067)">
        <text
           transform="translate(282.72,664.47998)"
           style="font-variant:normal;font-weight:normal;font-size:1.92px;font-family:F1;-inkscape-font-specification:F1;writing-mode:lr-tb;fill:#808080;fill-opacity:1;fill-rule:nonzero;stroke:none"
           id="text6924"><tspan
             x="0 1.280625 2.7206249"
             y="0"
             sodipodi:role="line"
             id="tspan6922">PD6</tspan></text>
      </g>
      <g
         id="g27278"
         transform="matrix(0.64429836,0,0,0.64429836,369.62256,-324.52001)">
        <path
           d="m 319.04001,664.96002 h -2.08002"
           style="fill:none;stroke:#c90d0c;stroke-width:0.32;stroke-linecap:round;stroke-linejoin:round;stroke-miterlimit:10;stroke-dasharray:none;stroke-opacity:1"
           id="path27280" />
      </g>
      <g
         id="g27282"
         transform="matrix(0.64429836,0,0,0.64429836,369.62256,-324.52001)">
        <path
           d="m 316.95999,664.96002 v -0.80005"
           style="fill:none;stroke:#c90d0c;stroke-width:0.32;stroke-linecap:round;stroke-linejoin:round;stroke-miterlimit:10;stroke-dasharray:none;stroke-opacity:1"
           id="path27284" />
      </g>
      <g
         id="g27286"
         transform="matrix(0.64429836,0,0,0.64429836,369.62256,-324.52001)">
        <path
           d="m 316.95999,664.15997 h 2.08002"
           style="fill:none;stroke:#c90d0c;stroke-width:0.32;stroke-linecap:round;stroke-linejoin:round;stroke-miterlimit:10;stroke-dasharray:none;stroke-opacity:1"
           id="path27288" />
      </g>
      <g
         id="g27290"
         transform="matrix(0.64429836,0,0,0.64429836,369.62256,-324.52001)">
        <path
           d="m 319.04001,664.15997 v 0.80005"
           style="fill:none;stroke:#c90d0c;stroke-width:0.32;stroke-linecap:round;stroke-linejoin:round;stroke-miterlimit:10;stroke-dasharray:none;stroke-opacity:1"
           id="path27292" />
      </g>
      <g
         id="g27294"
         transform="matrix(0.64429836,0,0,0.64429836,369.62256,-324.52001)">
        <path
           d="m 320.95999,664.47998 h -1.91998"
           style="fill:none;stroke:#c90d0c;stroke-width:0.16;stroke-linecap:round;stroke-linejoin:round;stroke-miterlimit:10;stroke-dasharray:none;stroke-opacity:1"
           id="path27296" />
      </g>
      <g
         id="g27298"
         transform="matrix(0.64429836,0,0,0.64429836,369.62256,-324.52001)">
        <path
           d="m 315.04001,664.47998 h 1.91998"
           style="fill:none;stroke:#c90d0c;stroke-width:0.16;stroke-linecap:round;stroke-linejoin:round;stroke-miterlimit:10;stroke-dasharray:none;stroke-opacity:1"
           id="path27300" />
      </g>
      <g
         id="g27302"
         transform="matrix(0.64429836,0,0,0.64429836,369.62256,-324.52001)">
        <path
           d="m 277.76001,665.59998 h -4.16"
           style="fill:none;stroke:#c90d0c;stroke-width:0.32;stroke-linecap:round;stroke-linejoin:round;stroke-miterlimit:10;stroke-dasharray:none;stroke-opacity:1"
           id="path27304" />
      </g>
      <g
         id="g27306"
         transform="matrix(0.64429836,0,0,0.64429836,369.62256,-324.52001)">
        <path
           d="M 273.60001,665.59998 V 657.44"
           style="fill:none;stroke:#c90d0c;stroke-width:0.32;stroke-linecap:round;stroke-linejoin:round;stroke-miterlimit:10;stroke-dasharray:none;stroke-opacity:1"
           id="path27308" />
      </g>
      <g
         id="g27310"
         transform="matrix(0.64429836,0,0,0.64429836,369.62256,-324.52001)">
        <path
           d="m 273.60001,657.44 h 4.16"
           style="fill:none;stroke:#c90d0c;stroke-width:0.32;stroke-linecap:round;stroke-linejoin:round;stroke-miterlimit:10;stroke-dasharray:none;stroke-opacity:1"
           id="path27312" />
      </g>
      <g
         id="g27314"
         transform="matrix(0.64429836,0,0,0.64429836,369.62256,-324.52001)">
        <path
           d="m 277.76001,657.44 v 8.15998"
           style="fill:none;stroke:#c90d0c;stroke-width:0.32;stroke-linecap:round;stroke-linejoin:round;stroke-miterlimit:10;stroke-dasharray:none;stroke-opacity:1"
           id="path27316" />
      </g>
      <g
         id="g27318"
         transform="matrix(0.64429836,0,0,0.64429836,369.62256,-324.52001)">
        <path
           d="m 275.67999,665.28003 -1.6,-0.80005"
           style="fill:none;stroke:#c90d0c;stroke-width:0.16;stroke-linecap:round;stroke-linejoin:round;stroke-miterlimit:10;stroke-dasharray:none;stroke-opacity:1"
           id="path27320" />
      </g>
      <g
         id="g27322"
         transform="matrix(0.64429836,0,0,0.64429836,369.62256,-324.52001)">
        <path
           d="m 274.07999,664.47998 1.6,-0.79999"
           style="fill:none;stroke:#c90d0c;stroke-width:0.16;stroke-linecap:round;stroke-linejoin:round;stroke-miterlimit:10;stroke-dasharray:none;stroke-opacity:1"
           id="path27324" />
      </g>
      <g
         id="g27326"
         transform="matrix(0.64429836,0,0,0.64429836,548.27359,103.60336)">
        <path
           d="m 0,0 c 0,0.48 -0.32,0.8 -0.8,0.8 -0.48,0 -0.8,-0.32 -0.8,-0.8 0,-0.48 0.32,-0.8 0.8,-0.8 0.48,0 0.8,0.32 0.8,0.8 z"
           style="fill:none;stroke:#c90d0c;stroke-width:0.16;stroke-linecap:round;stroke-linejoin:round;stroke-miterlimit:10;stroke-dasharray:none;stroke-opacity:1"
           id="path27328" />
      </g>
      <g
         id="g27330"
         transform="matrix(0.64429836,0,0,0.64429836,369.62256,-324.52001)">
        <path
           d="M 279.67999,664.47998 H 277.28"
           style="fill:none;stroke:#c90d0c;stroke-width:0.16;stroke-linecap:round;stroke-linejoin:round;stroke-miterlimit:10;stroke-dasharray:none;stroke-opacity:1"
           id="path27332" />
      </g>
      <g
         id="g27334"
         transform="matrix(0.64429836,0,0,0.64429836,548.27359,102.3663)">
        <path
           d="m 0,0 c 0,0.48 -0.32,0.8 -0.8,0.8 -0.48,0 -0.8,-0.32 -0.8,-0.8 0,-0.48 0.32,-0.8 0.8,-0.8 0.48,0 0.8,0.32 0.8,0.8 z"
           style="fill:none;stroke:#c90d0c;stroke-width:0.16;stroke-linecap:round;stroke-linejoin:round;stroke-miterlimit:10;stroke-dasharray:none;stroke-opacity:1"
           id="path27336" />
      </g>
      <g
         id="g27338"
         transform="matrix(0.64429836,0,0,0.64429836,369.62256,-324.52001)">
        <path
           d="M 279.67999,662.56 H 277.28"
           style="fill:none;stroke:#c90d0c;stroke-width:0.16;stroke-linecap:round;stroke-linejoin:round;stroke-miterlimit:10;stroke-dasharray:none;stroke-opacity:1"
           id="path27340" />
      </g>
      <g
         id="g27342"
         transform="matrix(0.64429836,0,0,0.64429836,548.27359,101.02616)">
        <path
           d="m 0,0 c 0,0.48 -0.32,0.8 -0.8,0.8 -0.48,0 -0.8,-0.32 -0.8,-0.8 0,-0.48 0.32,-0.8 0.8,-0.8 0.48,0 0.8,0.32 0.8,0.8 z"
           style="fill:none;stroke:#c90d0c;stroke-width:0.16;stroke-linecap:round;stroke-linejoin:round;stroke-miterlimit:10;stroke-dasharray:none;stroke-opacity:1"
           id="path27344" />
      </g>
      <g
         id="g27346"
         transform="matrix(0.64429836,0,0,0.64429836,369.62256,-324.52001)">
        <path
           d="M 279.67999,660.47998 H 277.28"
           style="fill:none;stroke:#c90d0c;stroke-width:0.16;stroke-linecap:round;stroke-linejoin:round;stroke-miterlimit:10;stroke-dasharray:none;stroke-opacity:1"
           id="path27348" />
      </g>
      <g
         id="g27350"
         transform="matrix(0.64429836,0,0,0.64429836,548.27359,99.686048)">
        <path
           d="m 0,0 c 0,0.48 -0.32,0.8 -0.8,0.8 -0.48,0 -0.8,-0.32 -0.8,-0.8 0,-0.48 0.32,-0.8 0.8,-0.8 0.48,0 0.8,0.32 0.8,0.8 z"
           style="fill:none;stroke:#c90d0c;stroke-width:0.16;stroke-linecap:round;stroke-linejoin:round;stroke-miterlimit:10;stroke-dasharray:none;stroke-opacity:1"
           id="path27352" />
      </g>
      <g
         id="g27354"
         transform="matrix(0.64429836,0,0,0.64429836,369.62256,-324.52001)">
        <path
           d="M 279.67999,658.40002 H 277.28"
           style="fill:none;stroke:#c90d0c;stroke-width:0.16;stroke-linecap:round;stroke-linejoin:round;stroke-miterlimit:10;stroke-dasharray:none;stroke-opacity:1"
           id="path27356" />
      </g>
      <g
         id="g27358"
         transform="matrix(0.64429836,0,0,0.64429836,369.62256,-324.52001)">
        <path
           d="m 297.92001,658.40002 h 8"
           style="fill:none;stroke:#c90d0c;stroke-width:0.32;stroke-linecap:round;stroke-linejoin:round;stroke-miterlimit:10;stroke-dasharray:none;stroke-opacity:1"
           id="path27360" />
      </g>
      <g
         id="g27362"
         transform="matrix(0.64429836,0,0,0.64429836,369.62256,-324.52001)">
        <path
           d="M 305.92001,658.40002 V 666.56"
           style="fill:none;stroke:#c90d0c;stroke-width:0.32;stroke-linecap:round;stroke-linejoin:round;stroke-miterlimit:10;stroke-dasharray:none;stroke-opacity:1"
           id="path27364" />
      </g>
      <g
         id="g27366"
         transform="matrix(0.64429836,0,0,0.64429836,369.62256,-324.52001)">
        <path
           d="m 305.92001,666.56 h -8"
           style="fill:none;stroke:#c90d0c;stroke-width:0.32;stroke-linecap:round;stroke-linejoin:round;stroke-miterlimit:10;stroke-dasharray:none;stroke-opacity:1"
           id="path27368" />
      </g>
      <g
         id="g27370"
         transform="matrix(0.64429836,0,0,0.64429836,369.62256,-324.52001)">
        <path
           d="m 297.92001,666.56 v -8.15998"
           style="fill:none;stroke:#c90d0c;stroke-width:0.32;stroke-linecap:round;stroke-linejoin:round;stroke-miterlimit:10;stroke-dasharray:none;stroke-opacity:1"
           id="path27372" />
      </g>
      <g
         id="g27374"
         transform="matrix(0.64429836,0,0,0.64429836,565.48929,102.3663)">
        <path
           d="M 0,0 C 0,1.12 -0.96,2.08 -2.08,2.08 -3.2,2.08 -4.16,1.12 -4.16,0 c 0,-1.12 0.96,-2.08 2.08,-2.08 C -0.96,-2.08 0,-1.12 0,0 Z"
           style="fill:none;stroke:#c90d0c;stroke-width:0.32;stroke-linecap:round;stroke-linejoin:round;stroke-miterlimit:10;stroke-dasharray:none;stroke-opacity:1"
           id="path27376" />
      </g>
      <g
         id="g27378"
         transform="matrix(0.64429836,0,0,0.64429836,369.62256,-324.52001)">
        <path
           d="m 297.92001,659.67999 1.43998,0.79999"
           style="fill:none;stroke:#c90d0c;stroke-width:0.16;stroke-linecap:round;stroke-linejoin:round;stroke-miterlimit:10;stroke-dasharray:none;stroke-opacity:1"
           id="path27380" />
      </g>
      <g
         id="g27382"
         transform="matrix(0.64429836,0,0,0.64429836,369.62256,-324.52001)">
        <path
           d="m 299.35999,660.47998 -1.43998,0.80005"
           style="fill:none;stroke:#c90d0c;stroke-width:0.16;stroke-linecap:round;stroke-linejoin:round;stroke-miterlimit:10;stroke-dasharray:none;stroke-opacity:1"
           id="path27384" />
      </g>
      <g
         id="g27386"
         transform="matrix(0.64429836,0,0,0.64429836,561.57196,101.02616)">
        <path
           d="m 0,0 c 0,0.48 -0.32,0.8 -0.8,0.8 -0.48,0 -0.8,-0.32 -0.8,-0.8 0,-0.48 0.32,-0.8 0.8,-0.8 0.48,0 0.8,0.32 0.8,0.8 z"
           style="fill:none;stroke:#c90d0c;stroke-width:0.16;stroke-linecap:round;stroke-linejoin:round;stroke-miterlimit:10;stroke-dasharray:none;stroke-opacity:1"
           id="path27388" />
      </g>
      <g
         id="g27390"
         transform="matrix(0.64429836,0,0,0.64429836,369.62256,-324.52001)">
        <path
           d="m 293.76001,660.47998 h 2.56"
           style="fill:none;stroke:#c90d0c;stroke-width:0.16;stroke-linecap:round;stroke-linejoin:round;stroke-miterlimit:10;stroke-dasharray:none;stroke-opacity:1"
           id="path27392" />
      </g>
      <g
         id="g27394"
         transform="matrix(0.64429836,0,0,0.64429836,369.62256,-324.52001)">
        <path
           d="m 305.92001,661.28003 -1.6,-0.80005"
           style="fill:none;stroke:#c90d0c;stroke-width:0.16;stroke-linecap:round;stroke-linejoin:round;stroke-miterlimit:10;stroke-dasharray:none;stroke-opacity:1"
           id="path27396" />
      </g>
      <g
         id="g27398"
         transform="matrix(0.64429836,0,0,0.64429836,369.62256,-324.52001)">
        <path
           d="m 304.32001,660.47998 1.6,-0.79999"
           style="fill:none;stroke:#c90d0c;stroke-width:0.16;stroke-linecap:round;stroke-linejoin:round;stroke-miterlimit:10;stroke-dasharray:none;stroke-opacity:1"
           id="path27400" />
      </g>
      <g
         id="g27402"
         transform="matrix(0.64429836,0,0,0.64429836,567.75717,101.02616)">
        <path
           d="m 0,0 c 0,0.48 -0.32,0.8 -0.8,0.8 -0.48,0 -0.8,-0.32 -0.8,-0.8 0,-0.48 0.32,-0.8 0.8,-0.8 0.48,0 0.8,0.32 0.8,0.8 z"
           style="fill:none;stroke:#c90d0c;stroke-width:0.16;stroke-linecap:round;stroke-linejoin:round;stroke-miterlimit:10;stroke-dasharray:none;stroke-opacity:1"
           id="path27404" />
      </g>
      <g
         id="g27406"
         transform="matrix(0.64429836,0,0,0.64429836,369.62256,-324.52001)">
        <path
           d="m 309.92001,660.47998 h -2.40002"
           style="fill:none;stroke:#c90d0c;stroke-width:0.16;stroke-linecap:round;stroke-linejoin:round;stroke-miterlimit:10;stroke-dasharray:none;stroke-opacity:1"
           id="path27408" />
      </g>
      <g
         id="g27410"
         transform="matrix(0.64429836,0,0,0.64429836,369.62256,-324.52001)">
        <path
           d="m 293.76001,664.47998 h 4.16"
           style="fill:none;stroke:#c90d0c;stroke-width:0.16;stroke-linecap:round;stroke-linejoin:round;stroke-miterlimit:10;stroke-dasharray:none;stroke-opacity:1"
           id="path27412" />
      </g>
      <g
         id="g27414"
         transform="matrix(0.64429836,0,0,0.64429836,369.62256,-324.52001)">
        <path
           d="m 309.92001,664.47998 h -4"
           style="fill:none;stroke:#c90d0c;stroke-width:0.16;stroke-linecap:round;stroke-linejoin:round;stroke-miterlimit:10;stroke-dasharray:none;stroke-opacity:1"
           id="path27416" />
      </g>
      <g
         id="g36044"
         transform="matrix(0.64429836,0,0,0.64429836,369.62256,-324.52001)">
        <path
           d="m 279.67999,658.40002 h 5.12"
           style="fill:none;stroke:#0dab76;stroke-width:0.16;stroke-linecap:round;stroke-linejoin:round;stroke-miterlimit:10;stroke-dasharray:none;stroke-opacity:1"
           id="path36046" />
      </g>
      <g
         id="g36048"
         transform="matrix(0.64429836,0,0,0.64429836,369.62256,-324.52001)">
        <path
           d="m 284.79999,658.40002 h 0.96002"
           style="fill:none;stroke:#0dab76;stroke-width:0.16;stroke-linecap:round;stroke-linejoin:round;stroke-miterlimit:10;stroke-dasharray:none;stroke-opacity:1"
           id="path36050" />
      </g>
      <g
         id="g36052"
         transform="matrix(0.64429836,0,0,0.64429836,369.62256,-324.52001)">
        <path
           d="m 285.76001,658.40002 v -1.92004"
           style="fill:none;stroke:#0dab76;stroke-width:0.16;stroke-linecap:round;stroke-linejoin:round;stroke-miterlimit:10;stroke-dasharray:none;stroke-opacity:1"
           id="path36054" />
      </g>
      <g
         id="g36056"
         transform="matrix(0.64429836,0,0,0.64429836,369.62256,-324.52001)">
        <path
           d="m 285.76001,656.47998 h 35.19998"
           style="fill:none;stroke:#0dab76;stroke-width:0.16;stroke-linecap:round;stroke-linejoin:round;stroke-miterlimit:10;stroke-dasharray:none;stroke-opacity:1"
           id="path36058" />
      </g>
      <g
         id="g36060"
         transform="matrix(0.64429836,0,0,0.64429836,369.62256,-324.52001)">
        <path
           d="m 320.95999,656.47998 v 8"
           style="fill:none;stroke:#0dab76;stroke-width:0.16;stroke-linecap:round;stroke-linejoin:round;stroke-miterlimit:10;stroke-dasharray:none;stroke-opacity:1"
           id="path36062" />
      </g>
      <g
         id="g36988"
         transform="matrix(0.64429836,0,0,0.64429836,369.62256,-324.52001)">
        <path
           d="m 279.67999,660.47998 h 14.08002"
           style="fill:none;stroke:#0dab76;stroke-width:0.16;stroke-linecap:round;stroke-linejoin:round;stroke-miterlimit:10;stroke-dasharray:none;stroke-opacity:1"
           id="path36990" />
      </g>
      <g
         id="g37492"
         transform="matrix(0.64429836,0,0,0.64429836,369.62256,-324.52001)">
        <path
           d="m 279.67999,664.47998 h 5.12"
           style="fill:none;stroke:#0dab76;stroke-width:0.16;stroke-linecap:round;stroke-linejoin:round;stroke-miterlimit:10;stroke-dasharray:none;stroke-opacity:1"
           id="path37494" />
      </g>
      <g
         id="g37496"
         transform="matrix(0.64429836,0,0,0.64429836,369.62256,-324.52001)">
        <path
           d="m 284.79999,664.47998 v 5.12"
           style="fill:none;stroke:#0dab76;stroke-width:0.16;stroke-linecap:round;stroke-linejoin:round;stroke-miterlimit:10;stroke-dasharray:none;stroke-opacity:1"
           id="path37498" />
      </g>
      <g
         id="g37500"
         transform="matrix(0.64429836,0,0,0.64429836,369.62256,-324.52001)">
        <path
           d="m 315.04001,664.47998 h -2.08002"
           style="fill:none;stroke:#0dab76;stroke-width:0.16;stroke-linecap:round;stroke-linejoin:round;stroke-miterlimit:10;stroke-dasharray:none;stroke-opacity:1"
           id="path37502" />
      </g>
      <g
         id="g37504"
         transform="matrix(0.64429836,0,0,0.64429836,369.62256,-324.52001)">
        <path
           d="m 312.95999,664.47998 h -3.03998"
           style="fill:none;stroke:#0dab76;stroke-width:0.16;stroke-linecap:round;stroke-linejoin:round;stroke-miterlimit:10;stroke-dasharray:none;stroke-opacity:1"
           id="path37506" />
      </g>
      <g
         id="g37508"
         transform="matrix(0.64429836,0,0,0.64429836,369.62256,-324.52001)">
        <path
           d="m 284.79999,669.59998 h 28.16"
           style="fill:none;stroke:#0dab76;stroke-width:0.16;stroke-linecap:round;stroke-linejoin:round;stroke-miterlimit:10;stroke-dasharray:none;stroke-opacity:1"
           id="path37510" />
      </g>
      <g
         id="g37512"
         transform="matrix(0.64429836,0,0,0.64429836,369.62256,-324.52001)">
        <path
           d="m 312.95999,669.59998 v -5.12"
           style="fill:none;stroke:#0dab76;stroke-width:0.16;stroke-linecap:round;stroke-linejoin:round;stroke-miterlimit:10;stroke-dasharray:none;stroke-opacity:1"
           id="path37514" />
      </g>
      <g
         id="g37516"
         transform="matrix(0.64429836,0,0,0.64429836,571.57144,103.60336)">
        <path
           d="M 0,0 C 0,0.32 -0.16,0.48 -0.48,0.48 -0.8,0.48 -0.96,0.32 -0.96,0 c 0,-0.32 0.16,-0.48 0.48,-0.48 C -0.16,-0.48 0,-0.32 0,0 Z"
           style="fill:#0dab76;fill-opacity:1;fill-rule:evenodd;stroke:none"
           id="path37518" />
      </g>
      <g
         id="g37520"
         transform="matrix(0.64429836,0,0,0.64429836,571.57144,103.60336)">
        <path
           d="M 0,0 C 0,0.32 -0.16,0.48 -0.48,0.48 -0.8,0.48 -0.96,0.32 -0.96,0 c 0,-0.32 0.16,-0.48 0.48,-0.48 C -0.16,-0.48 0,-0.32 0,0 Z"
           style="fill:none;stroke:#0dab76;stroke-width:0.16;stroke-linecap:round;stroke-linejoin:round;stroke-miterlimit:10;stroke-dasharray:none;stroke-opacity:1"
           id="path37522" />
      </g>
    </g>
  </g>
</svg>
