<svg xmlns="http://www.w3.org/2000/svg" xmlns:svg="http://www.w3.org/2000/svg" id="svg82735" width="90mm" height="75mm" version="1.1" viewBox="0 0 90 75"><g id="layer1"><g id="g1042" transform="matrix(2.5888601,0,0,2.5888601,-1391.5481,-185.05527)"><text style="font-variant:normal;font-weight:400;font-size:.8px;font-family:F1;-inkscape-font-specification:F1;writing-mode:lr-tb;fill:gray;fill-opacity:1;fill-rule:nonzero;stroke:none" id="text1046" transform="translate(542.08002,98.720001)"><tspan id="tspan1044" x="0 .64 1.28 1.92 2.4 2.88 3.52 4.32 4.8" y="0">GND_POWER</tspan></text></g><g id="g1048" transform="matrix(2.5888601,0,0,2.5888601,-1382.9519,-190.18827)"><text style="font-variant:normal;font-weight:400;font-size:.8px;font-family:F1;-inkscape-font-specification:F1;writing-mode:lr-tb;fill:gray;fill-opacity:1;fill-rule:nonzero;stroke:none" id="text1052" transform="translate(542.08002,81.599998)"><tspan id="tspan1050" x="0 .48 1.12 1.92 2.4 3.04 3.52 4 4.48" y="0">POWER_BAR</tspan></text></g><g id="g1054" transform="matrix(0,-0.01011206,0.01011206,0,-1381.5647,-186.29771)"><text style="font-variant:normal;font-weight:400;font-size:327.68px;font-family:F1;-inkscape-font-specification:F1;writing-mode:lr-tb;fill:gray;fill-opacity:1;fill-rule:nonzero;stroke:none" id="text1058" transform="translate(-23838.699,144835)"><tspan id="tspan1056" x="0 245.76 327.68 534.118 616.038 737.28 819.2 1064.96 1189.478 1353.318 1474.56" y="0">DIP - Grove</tspan></text></g><g id="g1060" transform="matrix(2.5888601,0,0,2.5888601,-1388.6613,-187.238)"><text style="font-variant:normal;font-weight:400;font-size:.8px;font-family:F1;-inkscape-font-specification:F1;writing-mode:lr-tb;fill:gray;fill-opacity:1;fill-rule:nonzero;stroke:none" id="text1064" transform="translate(555.20001,97.760002)"><tspan id="tspan1062" x="0 .64 1.28 1.92 2.4 2.88 3.52 4.32 4.8" y="0">GND_POWER</tspan></text></g><g id="g1066" transform="matrix(0,-0.01516809,0.01516809,0,-1394.5695,-187.53078)"><text style="font-variant:normal;font-weight:400;font-size:327.68px;font-family:F1;-inkscape-font-specification:F1;writing-mode:lr-tb;fill:gray;fill-opacity:1;fill-rule:nonzero;stroke:none" id="text1070" transform="translate(-16083.7,92515)"><tspan id="tspan1068" x="0 301.466 547.226 737.28 927.334 1038.746 1228.8 1336.934 1530.266 1720.32" y="0">WH09-2-103</tspan></text></g><g id="g4698" transform="matrix(2.5888601,0,0,2.5888601,-1390.2876,-187.30322)"><text style="font-variant:normal;font-weight:400;font-size:1.6px;font-family:F1;-inkscape-font-specification:F1;writing-mode:lr-tb;fill:gray;fill-opacity:1;fill-rule:nonzero;stroke:none" id="text4702" transform="translate(561.91998,86.879997)"><tspan id="tspan4700" x="0" y="0">1</tspan></text></g><g id="g4704" transform="matrix(2.5888601,0,0,2.5888601,-1390.1884,-187.214)"><text style="font-variant:normal;font-weight:400;font-size:1.6px;font-family:F1;-inkscape-font-specification:F1;writing-mode:lr-tb;fill:gray;fill-opacity:1;fill-rule:nonzero;stroke:none" id="text4708" transform="translate(561.91998,88.800003)"><tspan id="tspan4706" x="0" y="0">2</tspan></text></g><g id="g4710" transform="matrix(2.5888601,0,0,2.5888601,-1390.5132,-187.35206)"><text style="font-variant:normal;font-weight:400;font-size:1.6px;font-family:F1;-inkscape-font-specification:F1;writing-mode:lr-tb;fill:gray;fill-opacity:1;fill-rule:nonzero;stroke:none" id="text4714" transform="translate(561.91998,90.879997)"><tspan id="tspan4712" x="0" y="0">3</tspan></text></g><g id="g4716" transform="matrix(2.5888601,0,0,2.5888601,-1390.5141,-187.54518)"><text style="font-variant:normal;font-weight:400;font-size:1.6px;font-family:F1;-inkscape-font-specification:F1;writing-mode:lr-tb;fill:gray;fill-opacity:1;fill-rule:nonzero;stroke:none" id="text4720" transform="translate(561.91998,92.959999)"><tspan id="tspan4718" x="0" y="0">4</tspan></text></g><g id="g4722" transform="matrix(2.5888601,0,0,2.5888601,-1376.3806,-188.16824)"><text style="font-variant:normal;font-weight:400;font-size:1.28px;font-family:F1;-inkscape-font-specification:F1;writing-mode:lr-tb;fill:gray;fill-opacity:1;fill-rule:nonzero;stroke:none" id="text4726" transform="translate(562.71997,86.080002)"><tspan id="tspan4724" x="0 .64 1.126" y="0">J11</tspan></text></g><g id="g4728" transform="matrix(0,-0.0063194,0.0063194,0,-1390.2158,-190.32858)"><text style="font-variant:normal;font-weight:400;font-size:327.68px;font-family:F1;-inkscape-font-specification:F1;writing-mode:lr-tb;fill:gray;fill-opacity:1;fill-rule:nonzero;stroke:none" id="text4732" transform="translate(-36110.398,228852)"><tspan id="tspan4730" x="0 196.608 262.144 524.288" y="0">SIG3</tspan></text></g><g id="g4734" transform="matrix(2.5888601,0,0,2.5888601,-1402.4147,-188.57826)"><text style="font-variant:normal;font-weight:400;font-size:.8px;font-family:F1;-inkscape-font-specification:F1;writing-mode:lr-tb;fill:gray;fill-opacity:1;fill-rule:nonzero;stroke:none" id="text4738" transform="translate(556.47998,91.839996)"><tspan id="tspan4736" x="0 .48 1.12 1.76" y="0">VCC4</tspan></text></g><g id="g4740" transform="matrix(2.5888601,0,0,2.5888601,-1402.4519,-188.16138)"><text style="font-variant:normal;font-weight:400;font-size:.8px;font-family:F1;-inkscape-font-specification:F1;writing-mode:lr-tb;fill:gray;fill-opacity:1;fill-rule:nonzero;stroke:none" id="text4744" transform="translate(556.32001,93.760002)"><tspan id="tspan4742" x="0 .64 1.28 1.92" y="0">GND4</tspan></text></g><g id="g4746" transform="matrix(2.5888601,0,0,2.5888601,-1388.6613,-187.238)"><text style="font-variant:normal;font-weight:400;font-size:.8px;font-family:F1;-inkscape-font-specification:F1;writing-mode:lr-tb;fill:gray;fill-opacity:1;fill-rule:nonzero;stroke:none" id="text4750" transform="translate(560.79999,84.160004)"><tspan id="tspan4748" x="0 .48 .64 1.28" y="0">SIG4</tspan></text></g><g id="g4752" transform="matrix(0,-0.01264141,0.01264141,0,-1388.6613,-187.238)"><text style="font-variant:normal;font-weight:400;font-size:327.68px;font-family:F1;-inkscape-font-specification:F1;writing-mode:lr-tb;fill:gray;fill-opacity:1;fill-rule:nonzero;stroke:none" id="text4756" transform="translate(-17367,111280)"><tspan id="tspan4754" x="0" y="0">1</tspan></text></g><g id="g4758" transform="matrix(0,-0.01264141,0.01264141,0,-1388.6613,-187.238)"><text style="font-variant:normal;font-weight:400;font-size:327.68px;font-family:F1;-inkscape-font-specification:F1;writing-mode:lr-tb;fill:gray;fill-opacity:1;fill-rule:nonzero;stroke:none" id="text4762" transform="translate(-18513.9,111280)"><tspan id="tspan4760" x="0" y="0">3</tspan></text></g><g id="g4764" transform="matrix(2.5888601,0,0,2.5888601,-1388.6613,-187.238)"><text style="font-variant:normal;font-weight:400;font-size:1.6px;font-family:F1;-inkscape-font-specification:F1;writing-mode:lr-tb;fill:gray;fill-opacity:1;fill-rule:nonzero;stroke:none" id="text4768" transform="translate(545.91998,86.879997)"><tspan id="tspan4766" x="0" y="0">2</tspan></text></g><g id="g4770" transform="matrix(2.5888601,0,0,2.5888601,-1408.6649,-225.88602)" style="fill:#000"><text style="font-variant:normal;font-weight:400;font-size:1.92px;font-family:F1;-inkscape-font-specification:F1;writing-mode:lr-tb;fill:#000;fill-opacity:1;fill-rule:nonzero;stroke:none" id="text4774" transform="translate(545.59998,89.599998)"><tspan id="tspan4772" x="0" y="0">5. Potentsiometer</tspan></text></g><g id="g5920" transform="matrix(2.5888601,0,0,2.5888601,-1388.6613,-187.81327)"><text style="font-variant:normal;font-weight:400;font-size:1.92px;font-family:F1;-inkscape-font-specification:F1;writing-mode:lr-tb;fill:gray;fill-opacity:1;fill-rule:nonzero;stroke:none" id="text5924" transform="translate(556.79999,93.120003)"><tspan id="tspan5922" x="0 1.44 2.88" y="0">GND</tspan></text></g><g id="g6316" transform="matrix(2.5888601,0,0,2.5888601,-1388.4766,-187.94248)"><text style="font-variant:normal;font-weight:400;font-size:1.92px;font-family:F1;-inkscape-font-specification:F1;writing-mode:lr-tb;fill:gray;fill-opacity:1;fill-rule:nonzero;stroke:none" id="text6320" transform="translate(556.79999,91.199997)"><tspan id="tspan6318" x="0 1.114 2.554" y="0">VCC</tspan></text></g><g id="g6322" transform="matrix(2.5888601,0,0,2.5888601,-1388.0363,-188.1254)"><text style="font-variant:normal;font-weight:400;font-size:1.92px;font-family:F1;-inkscape-font-specification:F1;writing-mode:lr-tb;fill:gray;fill-opacity:1;fill-rule:nonzero;stroke:none" id="text6326" transform="translate(541.59998,78.559998)"><tspan id="tspan6324" x="0 1.114 2.554" y="0">VCC</tspan></text></g><g id="g6800" transform="matrix(2.5888601,0,0,2.5888601,-1389.0185,-188.98076)"><text style="font-variant:normal;font-weight:400;font-size:1.28px;font-family:F1;-inkscape-font-specification:F1;writing-mode:lr-tb;fill:gray;fill-opacity:1;fill-rule:nonzero;stroke:none" id="text6804" transform="translate(551.67999,87.199997)"><tspan id="tspan6802" x="0 .806 1.446 1.766 2.56 3.52" y="0">A0/PC0</tspan></text></g><g id="g27418" transform="matrix(2.5888601,0,0,2.5888601,-1388.6613,-187.238)"><path style="fill:none;stroke:#c90d0c;stroke-width:.16;stroke-linecap:round;stroke-linejoin:round;stroke-miterlimit:10;stroke-dasharray:none;stroke-opacity:1" id="path27420" d="m 542.71997,96.639999 h 0.96002"/></g><g id="g27422" transform="matrix(2.5888601,0,0,2.5888601,-1388.6613,-187.238)"><path style="fill:none;stroke:#c90d0c;stroke-width:.16;stroke-linecap:round;stroke-linejoin:round;stroke-miterlimit:10;stroke-dasharray:none;stroke-opacity:1" id="path27424" d="m 543.67999,96.639999 h 0.96002"/></g><g id="g27426" transform="matrix(2.5888601,0,0,2.5888601,-1388.6613,-187.238)"><path style="fill:none;stroke:#c90d0c;stroke-width:.16;stroke-linecap:round;stroke-linejoin:round;stroke-miterlimit:10;stroke-dasharray:none;stroke-opacity:1" id="path27428" d="m 543.20001,97.279999 h 0.95996"/></g><g id="g27430" transform="matrix(2.5888601,0,0,2.5888601,-1388.6613,-187.238)"><path style="fill:none;stroke:#c90d0c;stroke-width:.16;stroke-linecap:round;stroke-linejoin:round;stroke-miterlimit:10;stroke-dasharray:none;stroke-opacity:1" id="path27432" d="m 543.35998,97.760002 h 0.48005"/></g><g id="g27434" transform="matrix(2.5888601,0,0,2.5888601,-1388.6613,-187.238)"><path style="fill:none;stroke:#c90d0c;stroke-width:.16;stroke-linecap:round;stroke-linejoin:round;stroke-miterlimit:10;stroke-dasharray:none;stroke-opacity:1" id="path27436" d="m 543.67999,96.160004 v 0.479995"/></g><g id="g27438" transform="matrix(2.5888601,0,0,2.5888601,-1388.6613,-187.238)"><path style="fill:none;stroke:#c90d0c;stroke-width:.16;stroke-linecap:round;stroke-linejoin:round;stroke-miterlimit:10;stroke-dasharray:none;stroke-opacity:1" id="path27440" d="m 542.71997,78.559998 h 0.96002"/></g><g id="g27442" transform="matrix(2.5888601,0,0,2.5888601,-1388.6613,-187.238)"><path style="fill:none;stroke:#c90d0c;stroke-width:.16;stroke-linecap:round;stroke-linejoin:round;stroke-miterlimit:10;stroke-dasharray:none;stroke-opacity:1" id="path27444" d="m 543.67999,78.559998 h 0.96002"/></g><g id="g27446" transform="matrix(2.5888601,0,0,2.5888601,-1388.6613,-187.238)"><path style="fill:none;stroke:#c90d0c;stroke-width:.16;stroke-linecap:round;stroke-linejoin:round;stroke-miterlimit:10;stroke-dasharray:none;stroke-opacity:1" id="path27448" d="M 543.67999,80 V 78.559998"/></g><g id="g27450" transform="matrix(2.5888601,0,0,2.5888601,-1388.6613,-187.238)"><path style="fill:none;stroke:#c90d0c;stroke-width:.32;stroke-linecap:round;stroke-linejoin:round;stroke-miterlimit:10;stroke-dasharray:none;stroke-opacity:1" id="path27452" d="M 562.71997,86.080002 H 566.88"/></g><g id="g27454" transform="matrix(2.5888601,0,0,2.5888601,-1388.6613,-187.238)"><path style="fill:none;stroke:#c90d0c;stroke-width:.32;stroke-linecap:round;stroke-linejoin:round;stroke-miterlimit:10;stroke-dasharray:none;stroke-opacity:1" id="path27456" d="m 566.88,86.080002 v 8.159996"/></g><g id="g27458" transform="matrix(2.5888601,0,0,2.5888601,-1388.6613,-187.238)"><path style="fill:none;stroke:#c90d0c;stroke-width:.32;stroke-linecap:round;stroke-linejoin:round;stroke-miterlimit:10;stroke-dasharray:none;stroke-opacity:1" id="path27460" d="m 566.88,94.239998 h -4.16003"/></g><g id="g27462" transform="matrix(2.5888601,0,0,2.5888601,-1388.6613,-187.238)"><path style="fill:none;stroke:#c90d0c;stroke-width:.32;stroke-linecap:round;stroke-linejoin:round;stroke-miterlimit:10;stroke-dasharray:none;stroke-opacity:1" id="path27464" d="M 562.71997,94.239998 V 86.080002"/></g><g id="g27466" transform="matrix(2.5888601,0,0,2.5888601,-1388.6613,-187.238)"><path style="fill:none;stroke:#c90d0c;stroke-width:.16;stroke-linecap:round;stroke-linejoin:round;stroke-miterlimit:10;stroke-dasharray:none;stroke-opacity:1" id="path27468" d="m 564.79999,86.400002 1.60003,0.799995"/></g><g id="g27470" transform="matrix(2.5888601,0,0,2.5888601,-1388.6613,-187.238)"><path style="fill:none;stroke:#c90d0c;stroke-width:.16;stroke-linecap:round;stroke-linejoin:round;stroke-miterlimit:10;stroke-dasharray:none;stroke-opacity:1" id="path27472" d="m 566.40002,87.199997 -1.60003,0.639999"/></g><g id="g27474" transform="matrix(2.5888601,0,0,2.5888601,73.526883,38.510588)"><path style="fill:none;stroke:#c90d0c;stroke-width:.16;stroke-linecap:round;stroke-linejoin:round;stroke-miterlimit:10;stroke-dasharray:none;stroke-opacity:1" id="path27476" d="m 0,0 c 0,0.48 -0.32,0.8 -0.8,0.8 -0.48,0 -0.8,-0.32 -0.8,-0.8 0,-0.48 0.32,-0.8 0.8,-0.8 0.48,0 0.8,0.32 0.8,0.8 z"/></g><g id="g27478" transform="matrix(2.5888601,0,0,2.5888601,-1388.6613,-187.238)"><path style="fill:none;stroke:#c90d0c;stroke-width:.16;stroke-linecap:round;stroke-linejoin:round;stroke-miterlimit:10;stroke-dasharray:none;stroke-opacity:1" id="path27480" d="m 560.79999,87.199997 h 2.40002"/></g><g id="g27482" transform="matrix(2.5888601,0,0,2.5888601,73.526883,43.48122)"><path style="fill:none;stroke:#c90d0c;stroke-width:.16;stroke-linecap:round;stroke-linejoin:round;stroke-miterlimit:10;stroke-dasharray:none;stroke-opacity:1" id="path27484" d="m 0,0 c 0,0.48 -0.32,0.8 -0.8,0.8 -0.48,0 -0.8,-0.32 -0.8,-0.8 0,-0.48 0.32,-0.8 0.8,-0.8 0.48,0 0.8,0.32 0.8,0.8 z"/></g><g id="g27486" transform="matrix(2.5888601,0,0,2.5888601,-1388.6613,-187.238)"><path style="fill:none;stroke:#c90d0c;stroke-width:.16;stroke-linecap:round;stroke-linejoin:round;stroke-miterlimit:10;stroke-dasharray:none;stroke-opacity:1" id="path27488" d="m 560.79999,89.120003 h 2.40002"/></g><g id="g27490" transform="matrix(2.5888601,0,0,2.5888601,73.526883,48.866026)"><path style="fill:none;stroke:#c90d0c;stroke-width:.16;stroke-linecap:round;stroke-linejoin:round;stroke-miterlimit:10;stroke-dasharray:none;stroke-opacity:1" id="path27492" d="m 0,0 c 0,0.48 -0.32,0.8 -0.8,0.8 -0.48,0 -0.8,-0.32 -0.8,-0.8 0,-0.48 0.32,-0.8 0.8,-0.8 0.48,0 0.8,0.32 0.8,0.8 z"/></g><g id="g27494" transform="matrix(2.5888601,0,0,2.5888601,-1388.6613,-187.238)"><path style="fill:none;stroke:#c90d0c;stroke-width:.16;stroke-linecap:round;stroke-linejoin:round;stroke-miterlimit:10;stroke-dasharray:none;stroke-opacity:1" id="path27496" d="m 560.79999,91.199997 h 2.40002"/></g><g id="g27498" transform="matrix(2.5888601,0,0,2.5888601,73.526883,53.836657)"><path style="fill:none;stroke:#c90d0c;stroke-width:.16;stroke-linecap:round;stroke-linejoin:round;stroke-miterlimit:10;stroke-dasharray:none;stroke-opacity:1" id="path27500" d="m 0,0 c 0,0.48 -0.32,0.8 -0.8,0.8 -0.48,0 -0.8,-0.32 -0.8,-0.8 0,-0.48 0.32,-0.8 0.8,-0.8 0.48,0 0.8,0.32 0.8,0.8 z"/></g><g id="g27502" transform="matrix(2.5888601,0,0,2.5888601,-1388.6613,-187.238)"><path style="fill:none;stroke:#c90d0c;stroke-width:.16;stroke-linecap:round;stroke-linejoin:round;stroke-miterlimit:10;stroke-dasharray:none;stroke-opacity:1" id="path27504" d="m 560.79999,93.120003 h 2.40002"/></g><g id="g27506" transform="matrix(2.5888601,0,0,2.5888601,-1388.6613,-187.238)"><path style="fill:none;stroke:#c90d0c;stroke-width:.16;stroke-linecap:round;stroke-linejoin:round;stroke-miterlimit:10;stroke-dasharray:none;stroke-opacity:1" id="path27508" d="m 555.67999,95.68 h 1.12"/></g><g id="g27510" transform="matrix(2.5888601,0,0,2.5888601,-1388.6613,-187.238)"><path style="fill:none;stroke:#c90d0c;stroke-width:.16;stroke-linecap:round;stroke-linejoin:round;stroke-miterlimit:10;stroke-dasharray:none;stroke-opacity:1" id="path27512" d="m 556.79999,95.68 h 0.96002"/></g><g id="g27514" transform="matrix(2.5888601,0,0,2.5888601,-1388.6613,-187.238)"><path style="fill:none;stroke:#c90d0c;stroke-width:.16;stroke-linecap:round;stroke-linejoin:round;stroke-miterlimit:10;stroke-dasharray:none;stroke-opacity:1" id="path27516" d="m 556.32001,96.160004 h 0.96002"/></g><g id="g27518" transform="matrix(2.5888601,0,0,2.5888601,-1388.6613,-187.238)"><path style="fill:none;stroke:#c90d0c;stroke-width:.16;stroke-linecap:round;stroke-linejoin:round;stroke-miterlimit:10;stroke-dasharray:none;stroke-opacity:1" id="path27520" d="m 556.47998,96.639999 h 0.48004"/></g><g id="g27522" transform="matrix(2.5888601,0,0,2.5888601,-1388.6613,-187.238)"><path style="fill:none;stroke:#c90d0c;stroke-width:.16;stroke-linecap:round;stroke-linejoin:round;stroke-miterlimit:10;stroke-dasharray:none;stroke-opacity:1" id="path27524" d="M 556.79999,95.199997 V 95.68"/></g><g id="g27526" transform="matrix(2.5888601,0,0,2.5888601,60.271915,30.640467)"><path style="fill:none;stroke:#c90d0c;stroke-width:.16;stroke-linecap:round;stroke-linejoin:round;stroke-miterlimit:10;stroke-dasharray:none;stroke-opacity:1" id="path27528" d="m 0,0 c 0,0.48 -0.48,0.96 -0.96,0.96 -0.48,0 -0.96,-0.48 -0.96,-0.96 0,-0.48 0.48,-0.96 0.96,-0.96 C -0.48,-0.96 0,-0.48 0,0 Z"/></g><g id="g27530" transform="matrix(2.5888601,0,0,2.5888601,-1388.6613,-187.238)"><path style="fill:none;stroke:#c90d0c;stroke-width:.16;stroke-linecap:round;stroke-linejoin:round;stroke-miterlimit:10;stroke-dasharray:none;stroke-opacity:1" id="path27532" d="M 558.71997,86.080002 V 85.120003"/></g><g id="g27534" transform="matrix(2.5888601,0,0,2.5888601,49.916478,48.866026)"><path style="fill:none;stroke:#c90d0c;stroke-width:.16;stroke-linecap:round;stroke-linejoin:round;stroke-miterlimit:10;stroke-dasharray:none;stroke-opacity:1" id="path27536" d="m 0,0 c 0,0.48 -0.48,0.96 -0.96,0.96 -0.48,0 -0.96,-0.48 -0.96,-0.96 0,-0.48 0.48,-0.96 0.96,-0.96 C -0.48,-0.96 0,-0.48 0,0 Z"/></g><g id="g27538" transform="matrix(2.5888601,0,0,2.5888601,-1388.6613,-187.238)"><path style="fill:none;stroke:#c90d0c;stroke-width:.16;stroke-linecap:round;stroke-linejoin:round;stroke-miterlimit:10;stroke-dasharray:none;stroke-opacity:1" id="path27540" d="m 556.79999,91.199997 h -1.12"/></g><g id="g27542" transform="matrix(2.5888601,0,0,2.5888601,49.916478,53.836657)"><path style="fill:none;stroke:#c90d0c;stroke-width:.16;stroke-linecap:round;stroke-linejoin:round;stroke-miterlimit:10;stroke-dasharray:none;stroke-opacity:1" id="path27544" d="m 0,0 c 0,0.48 -0.48,0.96 -0.96,0.96 -0.48,0 -0.96,-0.48 -0.96,-0.96 0,-0.48 0.48,-0.96 0.96,-0.96 C -0.48,-0.96 0,-0.48 0,0 Z"/></g><g id="g27546" transform="matrix(2.5888601,0,0,2.5888601,-1388.6613,-187.238)"><path style="fill:none;stroke:#c90d0c;stroke-width:.16;stroke-linecap:round;stroke-linejoin:round;stroke-miterlimit:10;stroke-dasharray:none;stroke-opacity:1" id="path27548" d="m 556.79999,93.120003 h -1.12"/></g><g id="g27550" transform="matrix(2.5888601,0,0,2.5888601,76.012237,30.640467)"><path style="fill:none;stroke:#c90d0c;stroke-width:.16;stroke-linecap:round;stroke-linejoin:round;stroke-miterlimit:10;stroke-dasharray:none;stroke-opacity:1" id="path27552" d="m 0,0 c 0,0.48 -0.48,0.96 -0.96,0.96 -0.48,0 -0.96,-0.48 -0.96,-0.96 0,-0.48 0.48,-0.96 0.96,-0.96 C -0.48,-0.96 0,-0.48 0,0 Z"/></g><g id="g27554" transform="matrix(2.5888601,0,0,2.5888601,-1388.6613,-187.238)"><path style="fill:none;stroke:#c90d0c;stroke-width:.16;stroke-linecap:round;stroke-linejoin:round;stroke-miterlimit:10;stroke-dasharray:none;stroke-opacity:1" id="path27556" d="m 562.71997,84.160004 h 1.12006"/></g><g id="g27558" transform="matrix(2.5888601,0,0,2.5888601,-1388.6613,-187.238)"><path style="fill:none;stroke:#c90d0c;stroke-width:.32;stroke-linecap:round;stroke-linejoin:round;stroke-miterlimit:10;stroke-dasharray:none;stroke-opacity:1" id="path27560" d="m 542.71997,85.120003 h 1.92004"/></g><g id="g27562" transform="matrix(2.5888601,0,0,2.5888601,-1388.6613,-187.238)"><path style="fill:none;stroke:#c90d0c;stroke-width:.32;stroke-linecap:round;stroke-linejoin:round;stroke-miterlimit:10;stroke-dasharray:none;stroke-opacity:1" id="path27564" d="m 544.64001,89.120003 h -1.92004"/></g><g id="g27566" transform="matrix(2.5888601,0,0,2.5888601,-1388.6613,-187.238)"><path style="fill:none;stroke:#c90d0c;stroke-width:.32;stroke-linecap:round;stroke-linejoin:round;stroke-miterlimit:10;stroke-dasharray:none;stroke-opacity:1" id="path27568" d="m 542.71997,89.120003 v -4"/></g><g id="g27570" transform="matrix(2.5888601,0,0,2.5888601,-1388.6613,-187.238)"><path style="fill:none;stroke:#c90d0c;stroke-width:.16;stroke-linecap:round;stroke-linejoin:round;stroke-miterlimit:10;stroke-dasharray:none;stroke-opacity:1" id="path27572" d="m 545.12,87.199997 -4.47999,2.080002"/></g><g id="g27574" transform="matrix(2.5888601,0,0,2.5888601,-1388.6613,-187.238)"><path style="fill:none;stroke:#c90d0c;stroke-width:.16;stroke-linecap:round;stroke-linejoin:round;stroke-miterlimit:10;stroke-dasharray:none;stroke-opacity:1" id="path27576" d="m 545.12,87.199997 h 0.47998"/></g><g id="g27578" transform="matrix(2.5888601,0,0,2.5888601,-1388.6613,-187.238)"><path style="fill:none;stroke:#c90d0c;stroke-width:.32;stroke-linecap:round;stroke-linejoin:round;stroke-miterlimit:10;stroke-dasharray:none;stroke-opacity:1" id="path27580" d="m 544.64001,85.120003 v 4"/></g><g id="g27582" transform="matrix(2.5888601,0,0,2.5888601,-1388.6613,-187.238)"><path style="fill:none;stroke:#c90d0c;stroke-width:.16;stroke-linecap:round;stroke-linejoin:round;stroke-miterlimit:10;stroke-dasharray:none;stroke-opacity:1" id="path27584" d="m 543.67999,83.040001 v 2.080002"/></g><g id="g27586" transform="matrix(2.5888601,0,0,2.5888601,-1388.6613,-187.238)"><path style="fill:none;stroke:#c90d0c;stroke-width:.16;stroke-linecap:round;stroke-linejoin:round;stroke-miterlimit:10;stroke-dasharray:none;stroke-opacity:1" id="path27588" d="M 543.67999,91.199997 V 89.120003"/></g><g id="g27590" transform="matrix(2.5888601,0,0,2.5888601,-1388.6613,-187.238)"><path style="fill:none;stroke:#c90d0c;stroke-width:.16;stroke-linecap:round;stroke-linejoin:round;stroke-miterlimit:10;stroke-dasharray:none;stroke-opacity:1" id="path27592" d="m 547.67999,87.199997 h -2.08001"/></g><g id="g27594" transform="matrix(2.5888601,0,0,2.5888601,-1388.6613,-187.238)"><path style="fill:none;stroke:#c90d0c;stroke-width:.16;stroke-linecap:round;stroke-linejoin:round;stroke-miterlimit:10;stroke-dasharray:none;stroke-opacity:1" id="path27596" d="m 541.59998,89.120003 -0.95997,0.159996"/></g><g id="g27598" transform="matrix(2.5888601,0,0,2.5888601,-1388.6613,-187.238)"><path style="fill:none;stroke:#c90d0c;stroke-width:.16;stroke-linecap:round;stroke-linejoin:round;stroke-miterlimit:10;stroke-dasharray:none;stroke-opacity:1" id="path27600" d="m 540.64001,89.279999 0.64002,-0.799996"/></g><g id="g27602" transform="matrix(2.5888601,0,0,2.5888601,-1388.6613,-187.238)"><path style="fill:none;stroke:#c90d0c;stroke-width:.16;stroke-linecap:round;stroke-linejoin:round;stroke-miterlimit:10;stroke-dasharray:none;stroke-opacity:1" id="path27604" d="m 541.28003,88.480003 0.31995,0.64"/></g><g id="g27606" transform="matrix(2.5888601,0,0,2.5888601,-1388.6613,-187.238)"><path style="fill:none;stroke:#c90d0c;stroke-width:.16;stroke-linecap:round;stroke-linejoin:round;stroke-miterlimit:10;stroke-dasharray:none;stroke-opacity:1" id="path27608" d="m 540.64001,89.279999 h 0.15998"/></g><g id="g27610" transform="matrix(2.5888601,0,0,2.5888601,-1388.6613,-187.238)"><path style="fill:none;stroke:#c90d0c;stroke-width:.16;stroke-linecap:round;stroke-linejoin:round;stroke-miterlimit:10;stroke-dasharray:none;stroke-opacity:1" id="path27612" d="M 540.64001,89.120003 H 541.44"/></g><g id="g27614" transform="matrix(2.5888601,0,0,2.5888601,-1388.6613,-187.238)"><path style="fill:none;stroke:#c90d0c;stroke-width:.16;stroke-linecap:round;stroke-linejoin:round;stroke-miterlimit:10;stroke-dasharray:none;stroke-opacity:1" id="path27616" d="m 540.79999,89.120003 h 0.79999"/></g><g id="g27618" transform="matrix(2.5888601,0,0,2.5888601,-1388.6613,-187.238)"><path style="fill:none;stroke:#c90d0c;stroke-width:.16;stroke-linecap:round;stroke-linejoin:round;stroke-miterlimit:10;stroke-dasharray:none;stroke-opacity:1" id="path27620" d="m 540.79999,89.120003 h 0.79999"/></g><g id="g27622" transform="matrix(2.5888601,0,0,2.5888601,-1388.6613,-187.238)"><path style="fill:none;stroke:#c90d0c;stroke-width:.16;stroke-linecap:round;stroke-linejoin:round;stroke-miterlimit:10;stroke-dasharray:none;stroke-opacity:1" id="path27624" d="m 540.96002,88.959999 h 0.63996"/></g><g id="g27626" transform="matrix(2.5888601,0,0,2.5888601,-1388.6613,-187.238)"><path style="fill:none;stroke:#c90d0c;stroke-width:.16;stroke-linecap:round;stroke-linejoin:round;stroke-miterlimit:10;stroke-dasharray:none;stroke-opacity:1" id="path27628" d="m 540.96002,88.959999 h 0.63996"/></g><g id="g27630" transform="matrix(2.5888601,0,0,2.5888601,-1388.6613,-187.238)"><path style="fill:none;stroke:#c90d0c;stroke-width:.16;stroke-linecap:round;stroke-linejoin:round;stroke-miterlimit:10;stroke-dasharray:none;stroke-opacity:1" id="path27632" d="M 540.96002,88.800003 H 541.44"/></g><g id="g27634" transform="matrix(2.5888601,0,0,2.5888601,-1388.6613,-187.238)"><path style="fill:none;stroke:#c90d0c;stroke-width:.16;stroke-linecap:round;stroke-linejoin:round;stroke-miterlimit:10;stroke-dasharray:none;stroke-opacity:1" id="path27636" d="m 541.12,88.800003 h 0.32"/></g><g id="g27638" transform="matrix(2.5888601,0,0,2.5888601,-1388.6613,-187.238)"><path style="fill:none;stroke:#c90d0c;stroke-width:.16;stroke-linecap:round;stroke-linejoin:round;stroke-miterlimit:10;stroke-dasharray:none;stroke-opacity:1" id="path27640" d="m 541.12,88.800003 h 0.32"/></g><g id="g27642" transform="matrix(2.5888601,0,0,2.5888601,-1388.6613,-187.238)"><path style="fill:none;stroke:#c90d0c;stroke-width:.16;stroke-linecap:round;stroke-linejoin:round;stroke-miterlimit:10;stroke-dasharray:none;stroke-opacity:1" id="path27644" d="m 541.12,88.639999 h 0.32"/></g><g id="g27646" transform="matrix(2.5888601,0,0,2.5888601,-1388.6613,-187.238)"><path style="fill:none;stroke:#c90d0c;stroke-width:.16;stroke-linecap:round;stroke-linejoin:round;stroke-miterlimit:10;stroke-dasharray:none;stroke-opacity:1" id="path27648" d="M 541.28003,88.639999 H 541.44"/></g><g id="g27650" transform="matrix(2.5888601,0,0,2.5888601,-1388.6613,-187.238)"><path style="fill:none;stroke:#c90d0c;stroke-width:.16;stroke-linecap:round;stroke-linejoin:round;stroke-miterlimit:10;stroke-dasharray:none;stroke-opacity:1" id="path27652" d="M 541.28003,88.639999 541.44,88.800003"/></g><g id="g36064" transform="matrix(2.5888601,0,0,2.5888601,-1388.6613,-187.238)"><path style="fill:none;stroke:#0dab76;stroke-width:.16;stroke-linecap:round;stroke-linejoin:round;stroke-miterlimit:10;stroke-dasharray:none;stroke-opacity:1" id="path36066" d="M 543.67999,96.160004 V 91.199997"/></g><g id="g36068" transform="matrix(2.5888601,0,0,2.5888601,-1388.6613,-187.238)"><path style="fill:none;stroke:#0dab76;stroke-width:.16;stroke-linecap:round;stroke-linejoin:round;stroke-miterlimit:10;stroke-dasharray:none;stroke-opacity:1" id="path36070" d="m 560.79999,93.120003 h -4"/></g><g id="g36072" transform="matrix(2.5888601,0,0,2.5888601,-1388.6613,-187.238)"><path style="fill:none;stroke:#0dab76;stroke-width:.16;stroke-linecap:round;stroke-linejoin:round;stroke-miterlimit:10;stroke-dasharray:none;stroke-opacity:1" id="path36074" d="M 556.79999,95.199997 V 93.120003"/></g><g id="g36076" transform="matrix(2.5888601,0,0,2.5888601,54.058758,53.836657)"><path style="fill:#0dab76;fill-opacity:1;fill-rule:evenodd;stroke:none" id="path36078" d="M 0,0 C 0,0.32 -0.16,0.48 -0.48,0.48 -0.8,0.48 -0.96,0.32 -0.96,0 c 0,-0.32 0.16,-0.48 0.48,-0.48 C -0.16,-0.48 0,-0.32 0,0 Z"/></g><g id="g36080" transform="matrix(2.5888601,0,0,2.5888601,54.058758,53.836657)"><path style="fill:none;stroke:#0dab76;stroke-width:.16;stroke-linecap:round;stroke-linejoin:round;stroke-miterlimit:10;stroke-dasharray:none;stroke-opacity:1" id="path36082" d="M 0,0 C 0,0.32 -0.16,0.48 -0.48,0.48 -0.8,0.48 -0.96,0.32 -0.96,0 c 0,-0.32 0.16,-0.48 0.48,-0.48 C -0.16,-0.48 0,-0.32 0,0 Z"/></g><g id="g36992" transform="matrix(2.5888601,0,0,2.5888601,-1388.6613,-187.238)"><path style="fill:none;stroke:#0dab76;stroke-width:.16;stroke-linecap:round;stroke-linejoin:round;stroke-miterlimit:10;stroke-dasharray:none;stroke-opacity:1" id="path36994" d="m 560.79999,91.199997 h -4"/></g><g id="g36996" transform="matrix(2.5888601,0,0,2.5888601,-1388.6613,-187.238)"><path style="fill:none;stroke:#0dab76;stroke-width:.16;stroke-linecap:round;stroke-linejoin:round;stroke-miterlimit:10;stroke-dasharray:none;stroke-opacity:1" id="path36998" d="M 543.67999,83.040001 V 80"/></g><g id="g37368" transform="matrix(2.5888601,0,0,2.5888601,-1388.6613,-187.238)"><path style="fill:none;stroke:#0dab76;stroke-width:.16;stroke-linecap:round;stroke-linejoin:round;stroke-miterlimit:10;stroke-dasharray:none;stroke-opacity:1" id="path37370" d="m 558.71997,86.080002 v 1.119995"/></g><g id="g37372" transform="matrix(2.5888601,0,0,2.5888601,-1388.6613,-187.238)"><path style="fill:none;stroke:#0dab76;stroke-width:.16;stroke-linecap:round;stroke-linejoin:round;stroke-miterlimit:10;stroke-dasharray:none;stroke-opacity:1" id="path37374" d="m 560.79999,87.199997 h -2.08002"/></g><g id="g37376" transform="matrix(2.5888601,0,0,2.5888601,-1388.6613,-187.238)"><path style="fill:none;stroke:#0dab76;stroke-width:.16;stroke-linecap:round;stroke-linejoin:round;stroke-miterlimit:10;stroke-dasharray:none;stroke-opacity:1" id="path37378" d="m 547.67999,87.199997 h 11.03998"/></g><g id="g37380" transform="matrix(2.5888601,0,0,2.5888601,59.029321,38.510588)"><path style="fill:#0dab76;fill-opacity:1;fill-rule:evenodd;stroke:none" id="path37382" d="M 0,0 C 0,0.32 -0.16,0.48 -0.48,0.48 -0.8,0.48 -0.96,0.32 -0.96,0 c 0,-0.32 0.16,-0.48 0.48,-0.48 C -0.16,-0.48 0,-0.32 0,0 Z"/></g><g id="g37384" transform="matrix(2.5888601,0,0,2.5888601,59.029321,38.510588)"><path style="fill:none;stroke:#0dab76;stroke-width:.16;stroke-linecap:round;stroke-linejoin:round;stroke-miterlimit:10;stroke-dasharray:none;stroke-opacity:1" id="path37386" d="M 0,0 C 0,0.32 -0.16,0.48 -0.48,0.48 -0.8,0.48 -0.96,0.32 -0.96,0 c 0,-0.32 0.16,-0.48 0.48,-0.48 C -0.16,-0.48 0,-0.32 0,0 Z"/></g></g></svg>