<?xml version="1.0" encoding="UTF-8" standalone="no"?>
<!-- Created with Inkscape (http://www.inkscape.org/) -->

<svg
   width="90mm"
   height="75mm"
   viewBox="0 0 90 75"
   version="1.1"
   id="svg82735"
   inkscape:version="1.1.1 (3bf5ae0d25, 2021-09-20)"
   sodipodi:docname="5.svg"
   xmlns:inkscape="http://www.inkscape.org/namespaces/inkscape"
   xmlns:sodipodi="http://sodipodi.sourceforge.net/DTD/sodipodi-0.dtd"
   xmlns="http://www.w3.org/2000/svg"
   xmlns:svg="http://www.w3.org/2000/svg">
  <sodipodi:namedview
     id="namedview82737"
     pagecolor="#ffffff"
     bordercolor="#666666"
     borderopacity="1.0"
     inkscape:pageshadow="2"
     inkscape:pageopacity="0.0"
     inkscape:pagecheckerboard="0"
     inkscape:document-units="mm"
     showgrid="false"
     inkscape:zoom="1.8116734"
     inkscape:cx="223.55022"
     inkscape:cy="129.71433"
     inkscape:window-width="1920"
     inkscape:window-height="1163"
     inkscape:window-x="1920"
     inkscape:window-y="0"
     inkscape:window-maximized="1"
     inkscape:current-layer="layer1" />
  <defs
     id="defs82732" />
  <g
     inkscape:label="Kiht 1"
     inkscape:groupmode="layer"
     id="layer1">
    <g
       id="g1042"
       transform="matrix(2.5888601,0,0,2.5888601,-1391.5481,-185.05527)">
      <text
         transform="translate(542.08002,98.720001)"
         style="font-variant:normal;font-weight:normal;font-size:0.8px;font-family:F1;-inkscape-font-specification:F1;writing-mode:lr-tb;fill:#808080;fill-opacity:1;fill-rule:nonzero;stroke:none"
         id="text1046"><tspan
           x="0 0.63999999 1.28 1.92 2.4000001 2.8800001 3.52 4.3200002 4.8000002"
           y="0"
           sodipodi:role="line"
           id="tspan1044">GND_POWER</tspan></text>
    </g>
    <g
       id="g1048"
       transform="matrix(2.5888601,0,0,2.5888601,-1382.9519,-190.18827)">
      <text
         transform="translate(542.08002,81.599998)"
         style="font-variant:normal;font-weight:normal;font-size:0.8px;font-family:F1;-inkscape-font-specification:F1;writing-mode:lr-tb;fill:#808080;fill-opacity:1;fill-rule:nonzero;stroke:none"
         id="text1052"><tspan
           x="0 0.47999999 1.12 1.92 2.4000001 3.04 3.52 4 4.48"
           y="0"
           sodipodi:role="line"
           id="tspan1050">POWER_BAR</tspan></text>
    </g>
    <g
       id="g1054"
       transform="matrix(0,-0.01011206,0.01011206,0,-1381.5647,-186.29771)">
      <text
         transform="translate(-23838.699,144835)"
         style="font-variant:normal;font-weight:normal;font-size:327.68px;font-family:F1;-inkscape-font-specification:F1;writing-mode:lr-tb;fill:#808080;fill-opacity:1;fill-rule:nonzero;stroke:none"
         id="text1058"><tspan
           x="0 245.75999 327.67999 534.11841 616.03839 737.27997 819.20001 1064.96 1189.4784 1353.3184 1474.5599"
           y="0"
           sodipodi:role="line"
           id="tspan1056">DIP - Grove</tspan></text>
    </g>
    <g
       id="g1060"
       transform="matrix(2.5888601,0,0,2.5888601,-1388.6613,-187.238)">
      <text
         transform="translate(555.20001,97.760002)"
         style="font-variant:normal;font-weight:normal;font-size:0.8px;font-family:F1;-inkscape-font-specification:F1;writing-mode:lr-tb;fill:#808080;fill-opacity:1;fill-rule:nonzero;stroke:none"
         id="text1064"><tspan
           x="0 0.63999999 1.28 1.92 2.4000001 2.8800001 3.52 4.3200002 4.8000002"
           y="0"
           sodipodi:role="line"
           id="tspan1062">GND_POWER</tspan></text>
    </g>
    <g
       id="g1066"
       transform="matrix(0,-0.01516809,0.01516809,0,-1394.5695,-187.53078)">
      <text
         transform="translate(-16083.7,92515)"
         style="font-variant:normal;font-weight:normal;font-size:327.68px;font-family:F1;-inkscape-font-specification:F1;writing-mode:lr-tb;fill:#808080;fill-opacity:1;fill-rule:nonzero;stroke:none"
         id="text1070"><tspan
           x="0 301.46561 547.22559 737.27997 927.33435 1038.7456 1228.7999 1336.9343 1530.2656 1720.3199"
           y="0"
           sodipodi:role="line"
           id="tspan1068">WH09-2-103</tspan></text>
    </g>
    <g
       id="g4698"
       transform="matrix(2.5888601,0,0,2.5888601,-1390.2876,-187.30322)">
      <text
         transform="translate(561.91998,86.879997)"
         style="font-variant:normal;font-weight:normal;font-size:1.6px;font-family:F1;-inkscape-font-specification:F1;writing-mode:lr-tb;fill:#808080;fill-opacity:1;fill-rule:nonzero;stroke:none"
         id="text4702"><tspan
           x="0"
           y="0"
           id="tspan4700">1</tspan></text>
    </g>
    <g
       id="g4704"
       transform="matrix(2.5888601,0,0,2.5888601,-1390.1884,-187.214)">
      <text
         transform="translate(561.91998,88.800003)"
         style="font-variant:normal;font-weight:normal;font-size:1.6px;font-family:F1;-inkscape-font-specification:F1;writing-mode:lr-tb;fill:#808080;fill-opacity:1;fill-rule:nonzero;stroke:none"
         id="text4708"><tspan
           x="0"
           y="0"
           id="tspan4706">2</tspan></text>
    </g>
    <g
       id="g4710"
       transform="matrix(2.5888601,0,0,2.5888601,-1390.5132,-187.35206)">
      <text
         transform="translate(561.91998,90.879997)"
         style="font-variant:normal;font-weight:normal;font-size:1.6px;font-family:F1;-inkscape-font-specification:F1;writing-mode:lr-tb;fill:#808080;fill-opacity:1;fill-rule:nonzero;stroke:none"
         id="text4714"><tspan
           x="0"
           y="0"
           id="tspan4712">3</tspan></text>
    </g>
    <g
       id="g4716"
       transform="matrix(2.5888601,0,0,2.5888601,-1390.5141,-187.54518)">
      <text
         transform="translate(561.91998,92.959999)"
         style="font-variant:normal;font-weight:normal;font-size:1.6px;font-family:F1;-inkscape-font-specification:F1;writing-mode:lr-tb;fill:#808080;fill-opacity:1;fill-rule:nonzero;stroke:none"
         id="text4720"><tspan
           x="0"
           y="0"
           id="tspan4718">4</tspan></text>
    </g>
    <g
       id="g4722"
       transform="matrix(2.5888601,0,0,2.5888601,-1376.3806,-188.16824)">
      <text
         transform="translate(562.71997,86.080002)"
         style="font-variant:normal;font-weight:normal;font-size:1.28px;font-family:F1;-inkscape-font-specification:F1;writing-mode:lr-tb;fill:#808080;fill-opacity:1;fill-rule:nonzero;stroke:none"
         id="text4726"><tspan
           x="0 0.63999999 1.1264"
           y="0"
           sodipodi:role="line"
           id="tspan4724">J11</tspan></text>
    </g>
    <g
       id="g4728"
       transform="matrix(0,-0.0063194,0.0063194,0,-1390.2158,-190.32858)">
      <text
         transform="translate(-36110.398,228852)"
         style="font-variant:normal;font-weight:normal;font-size:327.68px;font-family:F1;-inkscape-font-specification:F1;writing-mode:lr-tb;fill:#808080;fill-opacity:1;fill-rule:nonzero;stroke:none"
         id="text4732"><tspan
           x="0 196.608 262.14398 524.28796"
           y="0"
           sodipodi:role="line"
           id="tspan4730">SIG3</tspan></text>
    </g>
    <g
       id="g4734"
       transform="matrix(2.5888601,0,0,2.5888601,-1402.4147,-188.57826)">
      <text
         transform="translate(556.47998,91.839996)"
         style="font-variant:normal;font-weight:normal;font-size:0.8px;font-family:F1;-inkscape-font-specification:F1;writing-mode:lr-tb;fill:#808080;fill-opacity:1;fill-rule:nonzero;stroke:none"
         id="text4738"><tspan
           x="0 0.47999999 1.12 1.76"
           y="0"
           sodipodi:role="line"
           id="tspan4736">VCC4</tspan></text>
    </g>
    <g
       id="g4740"
       transform="matrix(2.5888601,0,0,2.5888601,-1402.4519,-188.16138)">
      <text
         transform="translate(556.32001,93.760002)"
         style="font-variant:normal;font-weight:normal;font-size:0.8px;font-family:F1;-inkscape-font-specification:F1;writing-mode:lr-tb;fill:#808080;fill-opacity:1;fill-rule:nonzero;stroke:none"
         id="text4744"><tspan
           x="0 0.63999999 1.28 1.92"
           y="0"
           sodipodi:role="line"
           id="tspan4742">GND4</tspan></text>
    </g>
    <g
       id="g4746"
       transform="matrix(2.5888601,0,0,2.5888601,-1388.6613,-187.238)">
      <text
         transform="translate(560.79999,84.160004)"
         style="font-variant:normal;font-weight:normal;font-size:0.8px;font-family:F1;-inkscape-font-specification:F1;writing-mode:lr-tb;fill:#808080;fill-opacity:1;fill-rule:nonzero;stroke:none"
         id="text4750"><tspan
           x="0 0.47999999 0.63999999 1.28"
           y="0"
           sodipodi:role="line"
           id="tspan4748">SIG4</tspan></text>
    </g>
    <g
       id="g4752"
       transform="matrix(0,-0.01264141,0.01264141,0,-1388.6613,-187.238)">
      <text
         transform="translate(-17367,111280)"
         style="font-variant:normal;font-weight:normal;font-size:327.68px;font-family:F1;-inkscape-font-specification:F1;writing-mode:lr-tb;fill:#808080;fill-opacity:1;fill-rule:nonzero;stroke:none"
         id="text4756"><tspan
           x="0"
           y="0"
           id="tspan4754">1</tspan></text>
    </g>
    <g
       id="g4758"
       transform="matrix(0,-0.01264141,0.01264141,0,-1388.6613,-187.238)">
      <text
         transform="translate(-18513.9,111280)"
         style="font-variant:normal;font-weight:normal;font-size:327.68px;font-family:F1;-inkscape-font-specification:F1;writing-mode:lr-tb;fill:#808080;fill-opacity:1;fill-rule:nonzero;stroke:none"
         id="text4762"><tspan
           x="0"
           y="0"
           id="tspan4760">3</tspan></text>
    </g>
    <g
       id="g4764"
       transform="matrix(2.5888601,0,0,2.5888601,-1388.6613,-187.238)">
      <text
         transform="translate(545.91998,86.879997)"
         style="font-variant:normal;font-weight:normal;font-size:1.6px;font-family:F1;-inkscape-font-specification:F1;writing-mode:lr-tb;fill:#808080;fill-opacity:1;fill-rule:nonzero;stroke:none"
         id="text4768"><tspan
           x="0"
           y="0"
           id="tspan4766">2</tspan></text>
    </g>
    <g
       id="g4770"
       transform="matrix(2.5888601,0,0,2.5888601,-1408.6649,-225.88602)"
       style="fill:#000000">
      <text
         transform="translate(545.59998,89.599998)"
         style="font-variant:normal;font-weight:normal;font-size:1.92px;font-family:F1;-inkscape-font-specification:F1;writing-mode:lr-tb;fill:#000000;fill-opacity:1;fill-rule:nonzero;stroke:none"
         id="text4774"><tspan
           sodipodi:role="line"
           id="tspan4772"
           x="0"
           y="0">5. Potentsiometer</tspan></text>
    </g>
    <g
       id="g5920"
       transform="matrix(2.5888601,0,0,2.5888601,-1388.6613,-187.81327)">
      <text
         transform="translate(556.79999,93.120003)"
         style="font-variant:normal;font-weight:normal;font-size:1.92px;font-family:F1;-inkscape-font-specification:F1;writing-mode:lr-tb;fill:#808080;fill-opacity:1;fill-rule:nonzero;stroke:none"
         id="text5924"><tspan
           x="0 1.4400001 2.8800001"
           y="0"
           sodipodi:role="line"
           id="tspan5922">GND</tspan></text>
    </g>
    <g
       id="g6316"
       transform="matrix(2.5888601,0,0,2.5888601,-1388.4766,-187.94248)">
      <text
         transform="translate(556.79999,91.199997)"
         style="font-variant:normal;font-weight:normal;font-size:1.92px;font-family:F1;-inkscape-font-specification:F1;writing-mode:lr-tb;fill:#808080;fill-opacity:1;fill-rule:nonzero;stroke:none"
         id="text6320"><tspan
           x="0 1.1136 2.5536001"
           y="0"
           sodipodi:role="line"
           id="tspan6318">VCC</tspan></text>
    </g>
    <g
       id="g6322"
       transform="matrix(2.5888601,0,0,2.5888601,-1388.0363,-188.1254)">
      <text
         transform="translate(541.59998,78.559998)"
         style="font-variant:normal;font-weight:normal;font-size:1.92px;font-family:F1;-inkscape-font-specification:F1;writing-mode:lr-tb;fill:#808080;fill-opacity:1;fill-rule:nonzero;stroke:none"
         id="text6326"><tspan
           x="0 1.1136 2.5536001"
           y="0"
           sodipodi:role="line"
           id="tspan6324">VCC</tspan></text>
    </g>
    <g
       id="g6800"
       transform="matrix(2.5888601,0,0,2.5888601,-1389.0185,-188.98076)">
      <text
         transform="translate(551.67999,87.199997)"
         style="font-variant:normal;font-weight:normal;font-size:1.28px;font-family:F1;-inkscape-font-specification:F1;writing-mode:lr-tb;fill:#808080;fill-opacity:1;fill-rule:nonzero;stroke:none"
         id="text6804"><tspan
           x="0 0.8064 1.4464 1.7664 2.5599999 3.52"
           y="0"
           sodipodi:role="line"
           id="tspan6802">A0/PC0</tspan></text>
    </g>
    <g
       id="g27418"
       transform="matrix(2.5888601,0,0,2.5888601,-1388.6613,-187.238)">
      <path
         d="m 542.71997,96.639999 h 0.96002"
         style="fill:none;stroke:#c90d0c;stroke-width:0.16;stroke-linecap:round;stroke-linejoin:round;stroke-miterlimit:10;stroke-dasharray:none;stroke-opacity:1"
         id="path27420" />
    </g>
    <g
       id="g27422"
       transform="matrix(2.5888601,0,0,2.5888601,-1388.6613,-187.238)">
      <path
         d="m 543.67999,96.639999 h 0.96002"
         style="fill:none;stroke:#c90d0c;stroke-width:0.16;stroke-linecap:round;stroke-linejoin:round;stroke-miterlimit:10;stroke-dasharray:none;stroke-opacity:1"
         id="path27424" />
    </g>
    <g
       id="g27426"
       transform="matrix(2.5888601,0,0,2.5888601,-1388.6613,-187.238)">
      <path
         d="m 543.20001,97.279999 h 0.95996"
         style="fill:none;stroke:#c90d0c;stroke-width:0.16;stroke-linecap:round;stroke-linejoin:round;stroke-miterlimit:10;stroke-dasharray:none;stroke-opacity:1"
         id="path27428" />
    </g>
    <g
       id="g27430"
       transform="matrix(2.5888601,0,0,2.5888601,-1388.6613,-187.238)">
      <path
         d="m 543.35998,97.760002 h 0.48005"
         style="fill:none;stroke:#c90d0c;stroke-width:0.16;stroke-linecap:round;stroke-linejoin:round;stroke-miterlimit:10;stroke-dasharray:none;stroke-opacity:1"
         id="path27432" />
    </g>
    <g
       id="g27434"
       transform="matrix(2.5888601,0,0,2.5888601,-1388.6613,-187.238)">
      <path
         d="m 543.67999,96.160004 v 0.479995"
         style="fill:none;stroke:#c90d0c;stroke-width:0.16;stroke-linecap:round;stroke-linejoin:round;stroke-miterlimit:10;stroke-dasharray:none;stroke-opacity:1"
         id="path27436" />
    </g>
    <g
       id="g27438"
       transform="matrix(2.5888601,0,0,2.5888601,-1388.6613,-187.238)">
      <path
         d="m 542.71997,78.559998 h 0.96002"
         style="fill:none;stroke:#c90d0c;stroke-width:0.16;stroke-linecap:round;stroke-linejoin:round;stroke-miterlimit:10;stroke-dasharray:none;stroke-opacity:1"
         id="path27440" />
    </g>
    <g
       id="g27442"
       transform="matrix(2.5888601,0,0,2.5888601,-1388.6613,-187.238)">
      <path
         d="m 543.67999,78.559998 h 0.96002"
         style="fill:none;stroke:#c90d0c;stroke-width:0.16;stroke-linecap:round;stroke-linejoin:round;stroke-miterlimit:10;stroke-dasharray:none;stroke-opacity:1"
         id="path27444" />
    </g>
    <g
       id="g27446"
       transform="matrix(2.5888601,0,0,2.5888601,-1388.6613,-187.238)">
      <path
         d="M 543.67999,80 V 78.559998"
         style="fill:none;stroke:#c90d0c;stroke-width:0.16;stroke-linecap:round;stroke-linejoin:round;stroke-miterlimit:10;stroke-dasharray:none;stroke-opacity:1"
         id="path27448" />
    </g>
    <g
       id="g27450"
       transform="matrix(2.5888601,0,0,2.5888601,-1388.6613,-187.238)">
      <path
         d="M 562.71997,86.080002 H 566.88"
         style="fill:none;stroke:#c90d0c;stroke-width:0.32;stroke-linecap:round;stroke-linejoin:round;stroke-miterlimit:10;stroke-dasharray:none;stroke-opacity:1"
         id="path27452" />
    </g>
    <g
       id="g27454"
       transform="matrix(2.5888601,0,0,2.5888601,-1388.6613,-187.238)">
      <path
         d="m 566.88,86.080002 v 8.159996"
         style="fill:none;stroke:#c90d0c;stroke-width:0.32;stroke-linecap:round;stroke-linejoin:round;stroke-miterlimit:10;stroke-dasharray:none;stroke-opacity:1"
         id="path27456" />
    </g>
    <g
       id="g27458"
       transform="matrix(2.5888601,0,0,2.5888601,-1388.6613,-187.238)">
      <path
         d="m 566.88,94.239998 h -4.16003"
         style="fill:none;stroke:#c90d0c;stroke-width:0.32;stroke-linecap:round;stroke-linejoin:round;stroke-miterlimit:10;stroke-dasharray:none;stroke-opacity:1"
         id="path27460" />
    </g>
    <g
       id="g27462"
       transform="matrix(2.5888601,0,0,2.5888601,-1388.6613,-187.238)">
      <path
         d="M 562.71997,94.239998 V 86.080002"
         style="fill:none;stroke:#c90d0c;stroke-width:0.32;stroke-linecap:round;stroke-linejoin:round;stroke-miterlimit:10;stroke-dasharray:none;stroke-opacity:1"
         id="path27464" />
    </g>
    <g
       id="g27466"
       transform="matrix(2.5888601,0,0,2.5888601,-1388.6613,-187.238)">
      <path
         d="m 564.79999,86.400002 1.60003,0.799995"
         style="fill:none;stroke:#c90d0c;stroke-width:0.16;stroke-linecap:round;stroke-linejoin:round;stroke-miterlimit:10;stroke-dasharray:none;stroke-opacity:1"
         id="path27468" />
    </g>
    <g
       id="g27470"
       transform="matrix(2.5888601,0,0,2.5888601,-1388.6613,-187.238)">
      <path
         d="m 566.40002,87.199997 -1.60003,0.639999"
         style="fill:none;stroke:#c90d0c;stroke-width:0.16;stroke-linecap:round;stroke-linejoin:round;stroke-miterlimit:10;stroke-dasharray:none;stroke-opacity:1"
         id="path27472" />
    </g>
    <g
       id="g27474"
       transform="matrix(2.5888601,0,0,2.5888601,73.526883,38.510588)">
      <path
         d="m 0,0 c 0,0.48 -0.32,0.8 -0.8,0.8 -0.48,0 -0.8,-0.32 -0.8,-0.8 0,-0.48 0.32,-0.8 0.8,-0.8 0.48,0 0.8,0.32 0.8,0.8 z"
         style="fill:none;stroke:#c90d0c;stroke-width:0.16;stroke-linecap:round;stroke-linejoin:round;stroke-miterlimit:10;stroke-dasharray:none;stroke-opacity:1"
         id="path27476" />
    </g>
    <g
       id="g27478"
       transform="matrix(2.5888601,0,0,2.5888601,-1388.6613,-187.238)">
      <path
         d="m 560.79999,87.199997 h 2.40002"
         style="fill:none;stroke:#c90d0c;stroke-width:0.16;stroke-linecap:round;stroke-linejoin:round;stroke-miterlimit:10;stroke-dasharray:none;stroke-opacity:1"
         id="path27480" />
    </g>
    <g
       id="g27482"
       transform="matrix(2.5888601,0,0,2.5888601,73.526883,43.48122)">
      <path
         d="m 0,0 c 0,0.48 -0.32,0.8 -0.8,0.8 -0.48,0 -0.8,-0.32 -0.8,-0.8 0,-0.48 0.32,-0.8 0.8,-0.8 0.48,0 0.8,0.32 0.8,0.8 z"
         style="fill:none;stroke:#c90d0c;stroke-width:0.16;stroke-linecap:round;stroke-linejoin:round;stroke-miterlimit:10;stroke-dasharray:none;stroke-opacity:1"
         id="path27484" />
    </g>
    <g
       id="g27486"
       transform="matrix(2.5888601,0,0,2.5888601,-1388.6613,-187.238)">
      <path
         d="m 560.79999,89.120003 h 2.40002"
         style="fill:none;stroke:#c90d0c;stroke-width:0.16;stroke-linecap:round;stroke-linejoin:round;stroke-miterlimit:10;stroke-dasharray:none;stroke-opacity:1"
         id="path27488" />
    </g>
    <g
       id="g27490"
       transform="matrix(2.5888601,0,0,2.5888601,73.526883,48.866026)">
      <path
         d="m 0,0 c 0,0.48 -0.32,0.8 -0.8,0.8 -0.48,0 -0.8,-0.32 -0.8,-0.8 0,-0.48 0.32,-0.8 0.8,-0.8 0.48,0 0.8,0.32 0.8,0.8 z"
         style="fill:none;stroke:#c90d0c;stroke-width:0.16;stroke-linecap:round;stroke-linejoin:round;stroke-miterlimit:10;stroke-dasharray:none;stroke-opacity:1"
         id="path27492" />
    </g>
    <g
       id="g27494"
       transform="matrix(2.5888601,0,0,2.5888601,-1388.6613,-187.238)">
      <path
         d="m 560.79999,91.199997 h 2.40002"
         style="fill:none;stroke:#c90d0c;stroke-width:0.16;stroke-linecap:round;stroke-linejoin:round;stroke-miterlimit:10;stroke-dasharray:none;stroke-opacity:1"
         id="path27496" />
    </g>
    <g
       id="g27498"
       transform="matrix(2.5888601,0,0,2.5888601,73.526883,53.836657)">
      <path
         d="m 0,0 c 0,0.48 -0.32,0.8 -0.8,0.8 -0.48,0 -0.8,-0.32 -0.8,-0.8 0,-0.48 0.32,-0.8 0.8,-0.8 0.48,0 0.8,0.32 0.8,0.8 z"
         style="fill:none;stroke:#c90d0c;stroke-width:0.16;stroke-linecap:round;stroke-linejoin:round;stroke-miterlimit:10;stroke-dasharray:none;stroke-opacity:1"
         id="path27500" />
    </g>
    <g
       id="g27502"
       transform="matrix(2.5888601,0,0,2.5888601,-1388.6613,-187.238)">
      <path
         d="m 560.79999,93.120003 h 2.40002"
         style="fill:none;stroke:#c90d0c;stroke-width:0.16;stroke-linecap:round;stroke-linejoin:round;stroke-miterlimit:10;stroke-dasharray:none;stroke-opacity:1"
         id="path27504" />
    </g>
    <g
       id="g27506"
       transform="matrix(2.5888601,0,0,2.5888601,-1388.6613,-187.238)">
      <path
         d="m 555.67999,95.68 h 1.12"
         style="fill:none;stroke:#c90d0c;stroke-width:0.16;stroke-linecap:round;stroke-linejoin:round;stroke-miterlimit:10;stroke-dasharray:none;stroke-opacity:1"
         id="path27508" />
    </g>
    <g
       id="g27510"
       transform="matrix(2.5888601,0,0,2.5888601,-1388.6613,-187.238)">
      <path
         d="m 556.79999,95.68 h 0.96002"
         style="fill:none;stroke:#c90d0c;stroke-width:0.16;stroke-linecap:round;stroke-linejoin:round;stroke-miterlimit:10;stroke-dasharray:none;stroke-opacity:1"
         id="path27512" />
    </g>
    <g
       id="g27514"
       transform="matrix(2.5888601,0,0,2.5888601,-1388.6613,-187.238)">
      <path
         d="m 556.32001,96.160004 h 0.96002"
         style="fill:none;stroke:#c90d0c;stroke-width:0.16;stroke-linecap:round;stroke-linejoin:round;stroke-miterlimit:10;stroke-dasharray:none;stroke-opacity:1"
         id="path27516" />
    </g>
    <g
       id="g27518"
       transform="matrix(2.5888601,0,0,2.5888601,-1388.6613,-187.238)">
      <path
         d="m 556.47998,96.639999 h 0.48004"
         style="fill:none;stroke:#c90d0c;stroke-width:0.16;stroke-linecap:round;stroke-linejoin:round;stroke-miterlimit:10;stroke-dasharray:none;stroke-opacity:1"
         id="path27520" />
    </g>
    <g
       id="g27522"
       transform="matrix(2.5888601,0,0,2.5888601,-1388.6613,-187.238)">
      <path
         d="M 556.79999,95.199997 V 95.68"
         style="fill:none;stroke:#c90d0c;stroke-width:0.16;stroke-linecap:round;stroke-linejoin:round;stroke-miterlimit:10;stroke-dasharray:none;stroke-opacity:1"
         id="path27524" />
    </g>
    <g
       id="g27526"
       transform="matrix(2.5888601,0,0,2.5888601,60.271915,30.640467)">
      <path
         d="m 0,0 c 0,0.48 -0.48,0.96 -0.96,0.96 -0.48,0 -0.96,-0.48 -0.96,-0.96 0,-0.48 0.48,-0.96 0.96,-0.96 C -0.48,-0.96 0,-0.48 0,0 Z"
         style="fill:none;stroke:#c90d0c;stroke-width:0.16;stroke-linecap:round;stroke-linejoin:round;stroke-miterlimit:10;stroke-dasharray:none;stroke-opacity:1"
         id="path27528" />
    </g>
    <g
       id="g27530"
       transform="matrix(2.5888601,0,0,2.5888601,-1388.6613,-187.238)">
      <path
         d="M 558.71997,86.080002 V 85.120003"
         style="fill:none;stroke:#c90d0c;stroke-width:0.16;stroke-linecap:round;stroke-linejoin:round;stroke-miterlimit:10;stroke-dasharray:none;stroke-opacity:1"
         id="path27532" />
    </g>
    <g
       id="g27534"
       transform="matrix(2.5888601,0,0,2.5888601,49.916478,48.866026)">
      <path
         d="m 0,0 c 0,0.48 -0.48,0.96 -0.96,0.96 -0.48,0 -0.96,-0.48 -0.96,-0.96 0,-0.48 0.48,-0.96 0.96,-0.96 C -0.48,-0.96 0,-0.48 0,0 Z"
         style="fill:none;stroke:#c90d0c;stroke-width:0.16;stroke-linecap:round;stroke-linejoin:round;stroke-miterlimit:10;stroke-dasharray:none;stroke-opacity:1"
         id="path27536" />
    </g>
    <g
       id="g27538"
       transform="matrix(2.5888601,0,0,2.5888601,-1388.6613,-187.238)">
      <path
         d="m 556.79999,91.199997 h -1.12"
         style="fill:none;stroke:#c90d0c;stroke-width:0.16;stroke-linecap:round;stroke-linejoin:round;stroke-miterlimit:10;stroke-dasharray:none;stroke-opacity:1"
         id="path27540" />
    </g>
    <g
       id="g27542"
       transform="matrix(2.5888601,0,0,2.5888601,49.916478,53.836657)">
      <path
         d="m 0,0 c 0,0.48 -0.48,0.96 -0.96,0.96 -0.48,0 -0.96,-0.48 -0.96,-0.96 0,-0.48 0.48,-0.96 0.96,-0.96 C -0.48,-0.96 0,-0.48 0,0 Z"
         style="fill:none;stroke:#c90d0c;stroke-width:0.16;stroke-linecap:round;stroke-linejoin:round;stroke-miterlimit:10;stroke-dasharray:none;stroke-opacity:1"
         id="path27544" />
    </g>
    <g
       id="g27546"
       transform="matrix(2.5888601,0,0,2.5888601,-1388.6613,-187.238)">
      <path
         d="m 556.79999,93.120003 h -1.12"
         style="fill:none;stroke:#c90d0c;stroke-width:0.16;stroke-linecap:round;stroke-linejoin:round;stroke-miterlimit:10;stroke-dasharray:none;stroke-opacity:1"
         id="path27548" />
    </g>
    <g
       id="g27550"
       transform="matrix(2.5888601,0,0,2.5888601,76.012237,30.640467)">
      <path
         d="m 0,0 c 0,0.48 -0.48,0.96 -0.96,0.96 -0.48,0 -0.96,-0.48 -0.96,-0.96 0,-0.48 0.48,-0.96 0.96,-0.96 C -0.48,-0.96 0,-0.48 0,0 Z"
         style="fill:none;stroke:#c90d0c;stroke-width:0.16;stroke-linecap:round;stroke-linejoin:round;stroke-miterlimit:10;stroke-dasharray:none;stroke-opacity:1"
         id="path27552" />
    </g>
    <g
       id="g27554"
       transform="matrix(2.5888601,0,0,2.5888601,-1388.6613,-187.238)">
      <path
         d="m 562.71997,84.160004 h 1.12006"
         style="fill:none;stroke:#c90d0c;stroke-width:0.16;stroke-linecap:round;stroke-linejoin:round;stroke-miterlimit:10;stroke-dasharray:none;stroke-opacity:1"
         id="path27556" />
    </g>
    <g
       id="g27558"
       transform="matrix(2.5888601,0,0,2.5888601,-1388.6613,-187.238)">
      <path
         d="m 542.71997,85.120003 h 1.92004"
         style="fill:none;stroke:#c90d0c;stroke-width:0.32;stroke-linecap:round;stroke-linejoin:round;stroke-miterlimit:10;stroke-dasharray:none;stroke-opacity:1"
         id="path27560" />
    </g>
    <g
       id="g27562"
       transform="matrix(2.5888601,0,0,2.5888601,-1388.6613,-187.238)">
      <path
         d="m 544.64001,89.120003 h -1.92004"
         style="fill:none;stroke:#c90d0c;stroke-width:0.32;stroke-linecap:round;stroke-linejoin:round;stroke-miterlimit:10;stroke-dasharray:none;stroke-opacity:1"
         id="path27564" />
    </g>
    <g
       id="g27566"
       transform="matrix(2.5888601,0,0,2.5888601,-1388.6613,-187.238)">
      <path
         d="m 542.71997,89.120003 v -4"
         style="fill:none;stroke:#c90d0c;stroke-width:0.32;stroke-linecap:round;stroke-linejoin:round;stroke-miterlimit:10;stroke-dasharray:none;stroke-opacity:1"
         id="path27568" />
    </g>
    <g
       id="g27570"
       transform="matrix(2.5888601,0,0,2.5888601,-1388.6613,-187.238)">
      <path
         d="m 545.12,87.199997 -4.47999,2.080002"
         style="fill:none;stroke:#c90d0c;stroke-width:0.16;stroke-linecap:round;stroke-linejoin:round;stroke-miterlimit:10;stroke-dasharray:none;stroke-opacity:1"
         id="path27572" />
    </g>
    <g
       id="g27574"
       transform="matrix(2.5888601,0,0,2.5888601,-1388.6613,-187.238)">
      <path
         d="m 545.12,87.199997 h 0.47998"
         style="fill:none;stroke:#c90d0c;stroke-width:0.16;stroke-linecap:round;stroke-linejoin:round;stroke-miterlimit:10;stroke-dasharray:none;stroke-opacity:1"
         id="path27576" />
    </g>
    <g
       id="g27578"
       transform="matrix(2.5888601,0,0,2.5888601,-1388.6613,-187.238)">
      <path
         d="m 544.64001,85.120003 v 4"
         style="fill:none;stroke:#c90d0c;stroke-width:0.32;stroke-linecap:round;stroke-linejoin:round;stroke-miterlimit:10;stroke-dasharray:none;stroke-opacity:1"
         id="path27580" />
    </g>
    <g
       id="g27582"
       transform="matrix(2.5888601,0,0,2.5888601,-1388.6613,-187.238)">
      <path
         d="m 543.67999,83.040001 v 2.080002"
         style="fill:none;stroke:#c90d0c;stroke-width:0.16;stroke-linecap:round;stroke-linejoin:round;stroke-miterlimit:10;stroke-dasharray:none;stroke-opacity:1"
         id="path27584" />
    </g>
    <g
       id="g27586"
       transform="matrix(2.5888601,0,0,2.5888601,-1388.6613,-187.238)">
      <path
         d="M 543.67999,91.199997 V 89.120003"
         style="fill:none;stroke:#c90d0c;stroke-width:0.16;stroke-linecap:round;stroke-linejoin:round;stroke-miterlimit:10;stroke-dasharray:none;stroke-opacity:1"
         id="path27588" />
    </g>
    <g
       id="g27590"
       transform="matrix(2.5888601,0,0,2.5888601,-1388.6613,-187.238)">
      <path
         d="m 547.67999,87.199997 h -2.08001"
         style="fill:none;stroke:#c90d0c;stroke-width:0.16;stroke-linecap:round;stroke-linejoin:round;stroke-miterlimit:10;stroke-dasharray:none;stroke-opacity:1"
         id="path27592" />
    </g>
    <g
       id="g27594"
       transform="matrix(2.5888601,0,0,2.5888601,-1388.6613,-187.238)">
      <path
         d="m 541.59998,89.120003 -0.95997,0.159996"
         style="fill:none;stroke:#c90d0c;stroke-width:0.16;stroke-linecap:round;stroke-linejoin:round;stroke-miterlimit:10;stroke-dasharray:none;stroke-opacity:1"
         id="path27596" />
    </g>
    <g
       id="g27598"
       transform="matrix(2.5888601,0,0,2.5888601,-1388.6613,-187.238)">
      <path
         d="m 540.64001,89.279999 0.64002,-0.799996"
         style="fill:none;stroke:#c90d0c;stroke-width:0.16;stroke-linecap:round;stroke-linejoin:round;stroke-miterlimit:10;stroke-dasharray:none;stroke-opacity:1"
         id="path27600" />
    </g>
    <g
       id="g27602"
       transform="matrix(2.5888601,0,0,2.5888601,-1388.6613,-187.238)">
      <path
         d="m 541.28003,88.480003 0.31995,0.64"
         style="fill:none;stroke:#c90d0c;stroke-width:0.16;stroke-linecap:round;stroke-linejoin:round;stroke-miterlimit:10;stroke-dasharray:none;stroke-opacity:1"
         id="path27604" />
    </g>
    <g
       id="g27606"
       transform="matrix(2.5888601,0,0,2.5888601,-1388.6613,-187.238)">
      <path
         d="m 540.64001,89.279999 h 0.15998"
         style="fill:none;stroke:#c90d0c;stroke-width:0.16;stroke-linecap:round;stroke-linejoin:round;stroke-miterlimit:10;stroke-dasharray:none;stroke-opacity:1"
         id="path27608" />
    </g>
    <g
       id="g27610"
       transform="matrix(2.5888601,0,0,2.5888601,-1388.6613,-187.238)">
      <path
         d="M 540.64001,89.120003 H 541.44"
         style="fill:none;stroke:#c90d0c;stroke-width:0.16;stroke-linecap:round;stroke-linejoin:round;stroke-miterlimit:10;stroke-dasharray:none;stroke-opacity:1"
         id="path27612" />
    </g>
    <g
       id="g27614"
       transform="matrix(2.5888601,0,0,2.5888601,-1388.6613,-187.238)">
      <path
         d="m 540.79999,89.120003 h 0.79999"
         style="fill:none;stroke:#c90d0c;stroke-width:0.16;stroke-linecap:round;stroke-linejoin:round;stroke-miterlimit:10;stroke-dasharray:none;stroke-opacity:1"
         id="path27616" />
    </g>
    <g
       id="g27618"
       transform="matrix(2.5888601,0,0,2.5888601,-1388.6613,-187.238)">
      <path
         d="m 540.79999,89.120003 h 0.79999"
         style="fill:none;stroke:#c90d0c;stroke-width:0.16;stroke-linecap:round;stroke-linejoin:round;stroke-miterlimit:10;stroke-dasharray:none;stroke-opacity:1"
         id="path27620" />
    </g>
    <g
       id="g27622"
       transform="matrix(2.5888601,0,0,2.5888601,-1388.6613,-187.238)">
      <path
         d="m 540.96002,88.959999 h 0.63996"
         style="fill:none;stroke:#c90d0c;stroke-width:0.16;stroke-linecap:round;stroke-linejoin:round;stroke-miterlimit:10;stroke-dasharray:none;stroke-opacity:1"
         id="path27624" />
    </g>
    <g
       id="g27626"
       transform="matrix(2.5888601,0,0,2.5888601,-1388.6613,-187.238)">
      <path
         d="m 540.96002,88.959999 h 0.63996"
         style="fill:none;stroke:#c90d0c;stroke-width:0.16;stroke-linecap:round;stroke-linejoin:round;stroke-miterlimit:10;stroke-dasharray:none;stroke-opacity:1"
         id="path27628" />
    </g>
    <g
       id="g27630"
       transform="matrix(2.5888601,0,0,2.5888601,-1388.6613,-187.238)">
      <path
         d="M 540.96002,88.800003 H 541.44"
         style="fill:none;stroke:#c90d0c;stroke-width:0.16;stroke-linecap:round;stroke-linejoin:round;stroke-miterlimit:10;stroke-dasharray:none;stroke-opacity:1"
         id="path27632" />
    </g>
    <g
       id="g27634"
       transform="matrix(2.5888601,0,0,2.5888601,-1388.6613,-187.238)">
      <path
         d="m 541.12,88.800003 h 0.32"
         style="fill:none;stroke:#c90d0c;stroke-width:0.16;stroke-linecap:round;stroke-linejoin:round;stroke-miterlimit:10;stroke-dasharray:none;stroke-opacity:1"
         id="path27636" />
    </g>
    <g
       id="g27638"
       transform="matrix(2.5888601,0,0,2.5888601,-1388.6613,-187.238)">
      <path
         d="m 541.12,88.800003 h 0.32"
         style="fill:none;stroke:#c90d0c;stroke-width:0.16;stroke-linecap:round;stroke-linejoin:round;stroke-miterlimit:10;stroke-dasharray:none;stroke-opacity:1"
         id="path27640" />
    </g>
    <g
       id="g27642"
       transform="matrix(2.5888601,0,0,2.5888601,-1388.6613,-187.238)">
      <path
         d="m 541.12,88.639999 h 0.32"
         style="fill:none;stroke:#c90d0c;stroke-width:0.16;stroke-linecap:round;stroke-linejoin:round;stroke-miterlimit:10;stroke-dasharray:none;stroke-opacity:1"
         id="path27644" />
    </g>
    <g
       id="g27646"
       transform="matrix(2.5888601,0,0,2.5888601,-1388.6613,-187.238)">
      <path
         d="M 541.28003,88.639999 H 541.44"
         style="fill:none;stroke:#c90d0c;stroke-width:0.16;stroke-linecap:round;stroke-linejoin:round;stroke-miterlimit:10;stroke-dasharray:none;stroke-opacity:1"
         id="path27648" />
    </g>
    <g
       id="g27650"
       transform="matrix(2.5888601,0,0,2.5888601,-1388.6613,-187.238)">
      <path
         d="M 541.28003,88.639999 541.44,88.800003"
         style="fill:none;stroke:#c90d0c;stroke-width:0.16;stroke-linecap:round;stroke-linejoin:round;stroke-miterlimit:10;stroke-dasharray:none;stroke-opacity:1"
         id="path27652" />
    </g>
    <g
       id="g36064"
       transform="matrix(2.5888601,0,0,2.5888601,-1388.6613,-187.238)">
      <path
         d="M 543.67999,96.160004 V 91.199997"
         style="fill:none;stroke:#0dab76;stroke-width:0.16;stroke-linecap:round;stroke-linejoin:round;stroke-miterlimit:10;stroke-dasharray:none;stroke-opacity:1"
         id="path36066" />
    </g>
    <g
       id="g36068"
       transform="matrix(2.5888601,0,0,2.5888601,-1388.6613,-187.238)">
      <path
         d="m 560.79999,93.120003 h -4"
         style="fill:none;stroke:#0dab76;stroke-width:0.16;stroke-linecap:round;stroke-linejoin:round;stroke-miterlimit:10;stroke-dasharray:none;stroke-opacity:1"
         id="path36070" />
    </g>
    <g
       id="g36072"
       transform="matrix(2.5888601,0,0,2.5888601,-1388.6613,-187.238)">
      <path
         d="M 556.79999,95.199997 V 93.120003"
         style="fill:none;stroke:#0dab76;stroke-width:0.16;stroke-linecap:round;stroke-linejoin:round;stroke-miterlimit:10;stroke-dasharray:none;stroke-opacity:1"
         id="path36074" />
    </g>
    <g
       id="g36076"
       transform="matrix(2.5888601,0,0,2.5888601,54.058758,53.836657)">
      <path
         d="M 0,0 C 0,0.32 -0.16,0.48 -0.48,0.48 -0.8,0.48 -0.96,0.32 -0.96,0 c 0,-0.32 0.16,-0.48 0.48,-0.48 C -0.16,-0.48 0,-0.32 0,0 Z"
         style="fill:#0dab76;fill-opacity:1;fill-rule:evenodd;stroke:none"
         id="path36078" />
    </g>
    <g
       id="g36080"
       transform="matrix(2.5888601,0,0,2.5888601,54.058758,53.836657)">
      <path
         d="M 0,0 C 0,0.32 -0.16,0.48 -0.48,0.48 -0.8,0.48 -0.96,0.32 -0.96,0 c 0,-0.32 0.16,-0.48 0.48,-0.48 C -0.16,-0.48 0,-0.32 0,0 Z"
         style="fill:none;stroke:#0dab76;stroke-width:0.16;stroke-linecap:round;stroke-linejoin:round;stroke-miterlimit:10;stroke-dasharray:none;stroke-opacity:1"
         id="path36082" />
    </g>
    <g
       id="g36992"
       transform="matrix(2.5888601,0,0,2.5888601,-1388.6613,-187.238)">
      <path
         d="m 560.79999,91.199997 h -4"
         style="fill:none;stroke:#0dab76;stroke-width:0.16;stroke-linecap:round;stroke-linejoin:round;stroke-miterlimit:10;stroke-dasharray:none;stroke-opacity:1"
         id="path36994" />
    </g>
    <g
       id="g36996"
       transform="matrix(2.5888601,0,0,2.5888601,-1388.6613,-187.238)">
      <path
         d="M 543.67999,83.040001 V 80"
         style="fill:none;stroke:#0dab76;stroke-width:0.16;stroke-linecap:round;stroke-linejoin:round;stroke-miterlimit:10;stroke-dasharray:none;stroke-opacity:1"
         id="path36998" />
    </g>
    <g
       id="g37368"
       transform="matrix(2.5888601,0,0,2.5888601,-1388.6613,-187.238)">
      <path
         d="m 558.71997,86.080002 v 1.119995"
         style="fill:none;stroke:#0dab76;stroke-width:0.16;stroke-linecap:round;stroke-linejoin:round;stroke-miterlimit:10;stroke-dasharray:none;stroke-opacity:1"
         id="path37370" />
    </g>
    <g
       id="g37372"
       transform="matrix(2.5888601,0,0,2.5888601,-1388.6613,-187.238)">
      <path
         d="m 560.79999,87.199997 h -2.08002"
         style="fill:none;stroke:#0dab76;stroke-width:0.16;stroke-linecap:round;stroke-linejoin:round;stroke-miterlimit:10;stroke-dasharray:none;stroke-opacity:1"
         id="path37374" />
    </g>
    <g
       id="g37376"
       transform="matrix(2.5888601,0,0,2.5888601,-1388.6613,-187.238)">
      <path
         d="m 547.67999,87.199997 h 11.03998"
         style="fill:none;stroke:#0dab76;stroke-width:0.16;stroke-linecap:round;stroke-linejoin:round;stroke-miterlimit:10;stroke-dasharray:none;stroke-opacity:1"
         id="path37378" />
    </g>
    <g
       id="g37380"
       transform="matrix(2.5888601,0,0,2.5888601,59.029321,38.510588)">
      <path
         d="M 0,0 C 0,0.32 -0.16,0.48 -0.48,0.48 -0.8,0.48 -0.96,0.32 -0.96,0 c 0,-0.32 0.16,-0.48 0.48,-0.48 C -0.16,-0.48 0,-0.32 0,0 Z"
         style="fill:#0dab76;fill-opacity:1;fill-rule:evenodd;stroke:none"
         id="path37382" />
    </g>
    <g
       id="g37384"
       transform="matrix(2.5888601,0,0,2.5888601,59.029321,38.510588)">
      <path
         d="M 0,0 C 0,0.32 -0.16,0.48 -0.48,0.48 -0.8,0.48 -0.96,0.32 -0.96,0 c 0,-0.32 0.16,-0.48 0.48,-0.48 C -0.16,-0.48 0,-0.32 0,0 Z"
         style="fill:none;stroke:#0dab76;stroke-width:0.16;stroke-linecap:round;stroke-linejoin:round;stroke-miterlimit:10;stroke-dasharray:none;stroke-opacity:1"
         id="path37386" />
    </g>
  </g>
</svg>
