<svg xmlns="http://www.w3.org/2000/svg" xmlns:svg="http://www.w3.org/2000/svg" id="svg82735" width="90mm" height="75mm" version="1.1" viewBox="0 0 90 75"><defs id="defs82732"><clipPath id="clipPath6222" clipPathUnits="userSpaceOnUse"><path id="path6220" d="M 248,26.4 V 747.84003 H 874.56 V 26.4 Z" clip-rule="evenodd"/></clipPath><clipPath id="clipPath6454" clipPathUnits="userSpaceOnUse"><path id="path6452" d="M 248,26.4 V 747.84003 H 874.56 V 26.4 Z" clip-rule="evenodd"/></clipPath><clipPath id="clipPath6488" clipPathUnits="userSpaceOnUse"><path id="path6486" d="M 248,26.4 V 747.84003 H 874.56 V 26.4 Z" clip-rule="evenodd"/></clipPath><clipPath id="clipPath6522" clipPathUnits="userSpaceOnUse"><path id="path6520" d="M 248,26.4 V 747.84003 H 874.56 V 26.4 Z" clip-rule="evenodd"/></clipPath><clipPath id="clipPath7180" clipPathUnits="userSpaceOnUse"><path id="path7178" d="M 248,26.4 V 747.84003 H 874.56 V 26.4 Z" clip-rule="evenodd"/></clipPath><clipPath id="clipPath7336" clipPathUnits="userSpaceOnUse"><path id="path7334" d="M 248,26.4 V 747.84003 H 874.56 V 26.4 Z" clip-rule="evenodd"/></clipPath><clipPath id="clipPath8512" clipPathUnits="userSpaceOnUse"><path id="path8510" d="M 248,26.4 V 747.84003 H 874.56 V 26.4 Z" clip-rule="evenodd"/></clipPath><clipPath id="clipPath8546" clipPathUnits="userSpaceOnUse"><path id="path8544" d="M 248,26.4 V 747.84003 H 874.56 V 26.4 Z" clip-rule="evenodd"/></clipPath><clipPath id="clipPath8580" clipPathUnits="userSpaceOnUse"><path id="path8578" d="M 248,26.4 V 747.84003 H 874.56 V 26.4 Z" clip-rule="evenodd"/></clipPath><clipPath id="clipPath8614" clipPathUnits="userSpaceOnUse"><path id="path8612" d="M 248,26.4 V 747.84003 H 874.56 V 26.4 Z" clip-rule="evenodd"/></clipPath><clipPath id="clipPath8648" clipPathUnits="userSpaceOnUse"><path id="path8646" d="M 248,26.4 V 747.84003 H 874.56 V 26.4 Z" clip-rule="evenodd"/></clipPath><clipPath id="clipPath8682" clipPathUnits="userSpaceOnUse"><path id="path8680" d="M 248,26.4 V 747.84003 H 874.56 V 26.4 Z" clip-rule="evenodd"/></clipPath><clipPath id="clipPath8716" clipPathUnits="userSpaceOnUse"><path id="path8714" d="M 248,26.4 V 747.84003 H 874.56 V 26.4 Z" clip-rule="evenodd"/></clipPath><clipPath id="clipPath8750" clipPathUnits="userSpaceOnUse"><path id="path8748" d="M 248,26.4 V 747.84003 H 874.56 V 26.4 Z" clip-rule="evenodd"/></clipPath><clipPath id="clipPath8784" clipPathUnits="userSpaceOnUse"><path id="path8782" d="M 248,26.4 V 747.84003 H 874.56 V 26.4 Z" clip-rule="evenodd"/></clipPath><clipPath id="clipPath8830" clipPathUnits="userSpaceOnUse"><path id="path8828" d="M 248,26.4 V 747.84003 H 874.56 V 26.4 Z" clip-rule="evenodd"/></clipPath><clipPath id="clipPath8870" clipPathUnits="userSpaceOnUse"><path id="path8868" d="M 248,26.4 V 747.84003 H 874.56 V 26.4 Z" clip-rule="evenodd"/></clipPath><clipPath id="clipPath8916" clipPathUnits="userSpaceOnUse"><path id="path8914" d="M 248,26.4 V 747.84003 H 874.56 V 26.4 Z" clip-rule="evenodd"/></clipPath><clipPath id="clipPath8950" clipPathUnits="userSpaceOnUse"><path id="path8948" d="M 248,26.4 V 747.84003 H 874.56 V 26.4 Z" clip-rule="evenodd"/></clipPath><clipPath id="clipPath8984" clipPathUnits="userSpaceOnUse"><path id="path8982" d="M 248,26.4 V 747.84003 H 874.56 V 26.4 Z" clip-rule="evenodd"/></clipPath><clipPath id="clipPath9018" clipPathUnits="userSpaceOnUse"><path id="path9016" d="M 248,26.4 V 747.84003 H 874.56 V 26.4 Z" clip-rule="evenodd"/></clipPath><clipPath id="clipPath9052" clipPathUnits="userSpaceOnUse"><path id="path9050" d="M 248,26.4 V 747.84003 H 874.56 V 26.4 Z" clip-rule="evenodd"/></clipPath><clipPath id="clipPath9092" clipPathUnits="userSpaceOnUse"><path id="path9090" d="M 248,26.4 V 747.84003 H 874.56 V 26.4 Z" clip-rule="evenodd"/></clipPath><clipPath id="clipPath9126" clipPathUnits="userSpaceOnUse"><path id="path9124" d="M 248,26.4 V 747.84003 H 874.56 V 26.4 Z" clip-rule="evenodd"/></clipPath><clipPath id="clipPath9160" clipPathUnits="userSpaceOnUse"><path id="path9158" d="M 248,26.4 V 747.84003 H 874.56 V 26.4 Z" clip-rule="evenodd"/></clipPath><clipPath id="clipPath9194" clipPathUnits="userSpaceOnUse"><path id="path9192" d="M 248,26.4 V 747.84003 H 874.56 V 26.4 Z" clip-rule="evenodd"/></clipPath><clipPath id="clipPath9228" clipPathUnits="userSpaceOnUse"><path id="path9226" d="M 248,26.4 V 747.84003 H 874.56 V 26.4 Z" clip-rule="evenodd"/></clipPath><clipPath id="clipPath9262" clipPathUnits="userSpaceOnUse"><path id="path9260" d="M 248,26.4 V 747.84003 H 874.56 V 26.4 Z" clip-rule="evenodd"/></clipPath></defs><g id="layer1"><g id="g4770" transform="matrix(2.5888601,0,0,2.5888601,-1408.6649,-225.88602)" style="fill:#000"><text style="font-variant:normal;font-weight:400;font-size:1.92px;font-family:F1;-inkscape-font-specification:F1;writing-mode:lr-tb;fill:#000;fill-opacity:1;fill-rule:nonzero;stroke:none" id="text4774" transform="translate(545.59998,89.599998)"><tspan id="tspan4772" x="0" y="0">8. DHT11</tspan></text><g id="g1006" transform="matrix(0,-0.00227143,0.00227143,0,352.31074,-200.43536)"><text style="font-variant:normal;font-weight:400;font-size:327.68px;font-family:F1;-inkscape-font-specification:F1;writing-mode:lr-tb;fill:gray;fill-opacity:1;fill-rule:nonzero;stroke:none" id="text1010" transform="translate(-131113,89088)"><tspan id="tspan1008" x="0 163.84" y="0">5k</tspan></text></g><g id="g1012" transform="matrix(0.58152382,0,0,0.58152382,351.30134,-200.97945)"><text style="font-variant:normal;font-weight:400;font-size:1.92px;font-family:F1;-inkscape-font-specification:F1;writing-mode:lr-tb;fill:gray;fill-opacity:1;fill-rule:nonzero;stroke:none" id="text1016" transform="translate(349.28,518.08002)"><tspan id="tspan1014" x="0 1.114 2.246 3.36" y="0">100n</tspan></text></g><g id="g1018" transform="matrix(0.58152382,0,0,0.58152382,370.78306,-214.96822)"><text style="font-variant:normal;font-weight:400;font-size:1.28px;font-family:F1;-inkscape-font-specification:F1;writing-mode:lr-tb;fill:gray;fill-opacity:1;fill-rule:nonzero;stroke:none" id="text1022" transform="translate(339.04001,536.32001)"><tspan id="tspan1020" x="0 .96 1.28 2.086 2.406 3.366 3.84 4.48 4.966" y="0">DIP Grove</tspan></text></g><g id="g4458" transform="matrix(0,-0.00227143,0.00227143,0,350.66547,-202.92512)"><text style="font-variant:normal;font-weight:400;font-size:327.68px;font-family:F1;-inkscape-font-specification:F1;writing-mode:lr-tb;fill:gray;fill-opacity:1;fill-rule:nonzero;stroke:none" id="text4462" transform="translate(-132342,89088)"><tspan id="tspan4460" x="0 245.76 409.6" y="0">R53</tspan></text></g><g id="g4464" transform="matrix(0.58152382,0,0,0.58152382,350.39195,-200.99942)"><text style="font-variant:normal;font-weight:400;font-size:1.92px;font-family:F1;-inkscape-font-specification:F1;writing-mode:lr-tb;fill:gray;fill-opacity:1;fill-rule:nonzero;stroke:none" id="text4468" transform="translate(344.16,518.08002)"><tspan id="tspan4466" x="0 1.44 2.554" y="0">C54</tspan></text></g><g id="g4470" transform="matrix(0.58152382,0,0,0.58152382,371.22,-214.63303)"><text style="font-variant:normal;font-weight:400;font-size:1.6px;font-family:F1;-inkscape-font-specification:F1;writing-mode:lr-tb;fill:gray;fill-opacity:1;fill-rule:nonzero;stroke:none" id="text4474" transform="translate(344,543.35998)"><tspan id="tspan4472" x="0" y="0">1</tspan></text></g><g id="g4476" transform="matrix(0.58152382,0,0,0.58152382,371.11353,-214.70284)"><text style="font-variant:normal;font-weight:400;font-size:1.6px;font-family:F1;-inkscape-font-specification:F1;writing-mode:lr-tb;fill:gray;fill-opacity:1;fill-rule:nonzero;stroke:none" id="text4480" transform="translate(344,541.28003)"><tspan id="tspan4478" x="0" y="0">2</tspan></text></g><g id="g4482" transform="matrix(0.58152382,0,0,0.58152382,371.11855,-214.68443)"><text style="font-variant:normal;font-weight:400;font-size:1.6px;font-family:F1;-inkscape-font-specification:F1;writing-mode:lr-tb;fill:gray;fill-opacity:1;fill-rule:nonzero;stroke:none" id="text4486" transform="translate(344,539.35998)"><tspan id="tspan4484" x="0" y="0">3</tspan></text></g><g id="g4488" transform="matrix(0.58152382,0,0,0.58152382,371.06858,-214.60757)"><text style="font-variant:normal;font-weight:400;font-size:1.6px;font-family:F1;-inkscape-font-specification:F1;writing-mode:lr-tb;fill:gray;fill-opacity:1;fill-rule:nonzero;stroke:none" id="text4492" transform="translate(344,537.28003)"><tspan id="tspan4490" x="0" y="0">4</tspan></text></g><g id="g4494" transform="matrix(0.58152382,0,0,0.58152382,369.02036,-214.39912)"><text style="font-variant:normal;font-weight:400;font-size:1.28px;font-family:F1;-inkscape-font-specification:F1;writing-mode:lr-tb;fill:gray;fill-opacity:1;fill-rule:nonzero;stroke:none" id="text4498" transform="translate(343.35999,545.91998)"><tspan id="tspan4496" x="0 .64" y="0">J8</tspan></text></g><g id="g4500" transform="matrix(0.58152382,0,0,0.58152382,351.09467,-201.02379)"><text style="font-variant:normal;font-weight:400;font-size:1.6px;font-family:F1;-inkscape-font-specification:F1;writing-mode:lr-tb;fill:gray;fill-opacity:1;fill-rule:nonzero;stroke:none" id="text4504" transform="translate(358.56,516.96002)"><tspan id="tspan4502" x="0 1.12 2.08 3.04" y="0">DATA</tspan></text></g><g id="g4506" transform="matrix(0.58152382,0,0,0.58152382,351.09467,-201.02379)"><text style="font-variant:normal;font-weight:400;font-size:1.6px;font-family:F1;-inkscape-font-specification:F1;writing-mode:lr-tb;fill:gray;fill-opacity:1;fill-rule:nonzero;stroke:none" id="text4510" transform="translate(355.51999,516.15997)"><tspan id="tspan4508" x="0" y="0">2</tspan></text></g><g id="g4512" transform="matrix(0.58152382,0,0,0.58152382,351.09467,-201.02379)"><text style="font-variant:normal;font-weight:400;font-size:1.6px;font-family:F1;-inkscape-font-specification:F1;writing-mode:lr-tb;fill:gray;fill-opacity:1;fill-rule:nonzero;stroke:none" id="text4516" transform="translate(358.56,520.96002)"><tspan id="tspan4514" x="0 1.28 2.4" y="0">GND</tspan></text></g><g id="g4518" transform="matrix(0.58152382,0,0,0.58152382,351.09467,-201.02379)"><text style="font-variant:normal;font-weight:400;font-size:1.6px;font-family:F1;-inkscape-font-specification:F1;writing-mode:lr-tb;fill:gray;fill-opacity:1;fill-rule:nonzero;stroke:none" id="text4522" transform="translate(355.51999,520.15997)"><tspan id="tspan4520" x="0" y="0">4</tspan></text></g><g id="g4524" transform="matrix(0.58152382,0,0,0.58152382,351.09467,-201.02379)"><text style="font-variant:normal;font-weight:400;font-size:1.6px;font-family:F1;-inkscape-font-specification:F1;writing-mode:lr-tb;fill:gray;fill-opacity:1;fill-rule:nonzero;stroke:none" id="text4528" transform="translate(358.56,519.03998)"><tspan id="tspan4526" x="0 1.12" y="0">NC</tspan></text></g><g id="g4530" transform="matrix(0.58152382,0,0,0.58152382,351.09467,-201.02379)"><text style="font-variant:normal;font-weight:400;font-size:1.6px;font-family:F1;-inkscape-font-specification:F1;writing-mode:lr-tb;fill:gray;fill-opacity:1;fill-rule:nonzero;stroke:none" id="text4534" transform="translate(355.51999,518.08002)"><tspan id="tspan4532" x="0" y="0">3</tspan></text></g><g id="g4536" transform="matrix(0.58152382,0,0,0.58152382,351.09467,-201.02379)"><text style="font-variant:normal;font-weight:400;font-size:1.6px;font-family:F1;-inkscape-font-specification:F1;writing-mode:lr-tb;fill:gray;fill-opacity:1;fill-rule:nonzero;stroke:none" id="text4540" transform="translate(358.56,515.03998)"><tspan id="tspan4538" x="0 1.12 2.24" y="0">VCC</tspan></text></g><g id="g4542" transform="matrix(0.58152382,0,0,0.58152382,351.09467,-201.02379)"><text style="font-variant:normal;font-weight:400;font-size:1.6px;font-family:F1;-inkscape-font-specification:F1;writing-mode:lr-tb;fill:gray;fill-opacity:1;fill-rule:nonzero;stroke:none" id="text4546" transform="translate(355.51999,514.08002)"><tspan id="tspan4544" x="0" y="0">1</tspan></text></g><g id="g4548" transform="matrix(0.58152382,0,0,0.58152382,355.4253,-197.93781)"><text style="font-variant:normal;font-weight:400;font-size:1.92px;font-family:F1;-inkscape-font-specification:F1;writing-mode:lr-tb;fill:gray;fill-opacity:1;fill-rule:nonzero;stroke:none" id="text4552" transform="translate(357.76001,511.35999)"><tspan id="tspan4550" x="0 1.44 2.4" y="0">U11</tspan></text></g><g id="g4554" transform="matrix(0.58152382,0,0,0.58152382,355.31114,-197.39526)"><text style="font-variant:normal;font-weight:400;font-size:1.92px;font-family:F1;-inkscape-font-specification:F1;writing-mode:lr-tb;fill:gray;fill-opacity:1;fill-rule:nonzero;stroke:none" id="text4558" transform="translate(357.76001,513.44)"><tspan id="tspan4556" x="0 1.44 2.88 3.994 4.954" y="0">DHT11</tspan></text></g><g id="g4560" transform="matrix(0,-0.0014195,0.0014195,0,347.36651,-209.18405)"><text style="font-variant:normal;font-weight:400;font-size:327.68px;font-family:F1;-inkscape-font-specification:F1;writing-mode:lr-tb;fill:gray;fill-opacity:1;fill-rule:nonzero;stroke:none" id="text4564" transform="translate(-213254,144572)"><tspan id="tspan4562" x="0 196.608 458.752 720.896" y="0">VCC3</tspan></text></g><g id="g4566" transform="matrix(0,-0.0014195,0.0014195,0,353.69553,-191.00821)"><text style="font-variant:normal;font-weight:400;font-size:327.68px;font-family:F1;-inkscape-font-specification:F1;writing-mode:lr-tb;fill:gray;fill-opacity:1;fill-rule:nonzero;stroke:none" id="text4570" transform="translate(-208601,142606)"><tspan id="tspan4568" x="0 262.144 524.288 786.432" y="0">GND3</tspan></text></g><g id="g4572" transform="matrix(0.58152382,0,0,0.58152382,349.20388,-202.32856)"><text style="font-variant:normal;font-weight:400;font-size:.8px;font-family:F1;-inkscape-font-specification:F1;writing-mode:lr-tb;fill:gray;fill-opacity:1;fill-rule:nonzero;stroke:none" id="text4576" transform="translate(338.39999,517.12)"><tspan id="tspan4574" x="0 .48 .64 1.28" y="0">SIG1</tspan></text></g><g id="g4578" transform="matrix(0,-0.0014195,0.0014195,0,350.23611,-202.68622)"><text style="font-variant:normal;font-weight:400;font-size:327.68px;font-family:F1;-inkscape-font-specification:F1;writing-mode:lr-tb;fill:gray;fill-opacity:1;fill-rule:nonzero;stroke:none" id="text4582" transform="translate(-208601,137691)"><tspan id="tspan4580" x="0 262.144 524.288" y="0">NC2</tspan></text></g><g id="g5896" transform="matrix(0.58152382,0,0,0.58152382,351.09467,-201.02379)"><text style="font-variant:normal;font-weight:400;font-size:1.92px;font-family:F1;-inkscape-font-specification:F1;writing-mode:lr-tb;fill:gray;fill-opacity:1;fill-rule:nonzero;stroke:none" id="text5900" transform="translate(338.07999,520.47998)"><tspan id="tspan5898" x="0 1.44 2.88" y="0">GND</tspan></text></g><g id="g5902" transform="matrix(0.58152382,0,0,0.58152382,370.71234,-214.79901)"><text style="font-variant:normal;font-weight:400;font-size:1.92px;font-family:F1;-inkscape-font-specification:F1;writing-mode:lr-tb;fill:gray;fill-opacity:1;fill-rule:nonzero;stroke:none" id="text5906" transform="translate(347.20001,537.59998)"><tspan id="tspan5904" x="0 1.44 2.88" y="0">GND</tspan></text></g><g id="g6286" transform="matrix(0.58152382,0,0,0.58152382,351.09467,-201.02379)"><text style="font-variant:normal;font-weight:400;font-size:1.92px;font-family:F1;-inkscape-font-specification:F1;writing-mode:lr-tb;fill:gray;fill-opacity:1;fill-rule:nonzero;stroke:none" id="text6290" transform="translate(351.67999,509.28)"><tspan id="tspan6288" x="0 1.114 2.554" y="0">VCC</tspan></text></g><g id="g6292" transform="matrix(0.58152382,0,0,0.58152382,351.09467,-201.02379)"><text style="font-variant:normal;font-weight:400;font-size:1.92px;font-family:F1;-inkscape-font-specification:F1;writing-mode:lr-tb;fill:gray;fill-opacity:1;fill-rule:nonzero;stroke:none" id="text6296" transform="translate(338.07999,518.40002)"><tspan id="tspan6294" x="0 1.114 2.554" y="0">VCC</tspan></text></g><g id="g6298" transform="matrix(0.58152382,0,0,0.58152382,370.71808,-214.75521)"><text style="font-variant:normal;font-weight:400;font-size:1.92px;font-family:F1;-inkscape-font-specification:F1;writing-mode:lr-tb;fill:gray;fill-opacity:1;fill-rule:nonzero;stroke:none" id="text6302" transform="translate(347.20001,539.52002)"><tspan id="tspan6300" x="0 1.114 2.554" y="0">VCC</tspan></text></g><g id="g7400" transform="matrix(0.58152382,0,0,0.58152382,351.03111,-201.41278)"><text style="font-variant:normal;font-weight:400;font-size:1.92px;font-family:F1;-inkscape-font-specification:F1;writing-mode:lr-tb;fill:gray;fill-opacity:1;fill-rule:nonzero;stroke:none" id="text7404" transform="translate(338.07999,516.47998)"><tspan id="tspan7402" x="0 1.281 2.721 3.834 4.314 4.794 6.234 7.367" y="0">PD3/INT1</tspan></text></g><g id="g7406" transform="matrix(0.58152382,0,0,0.58152382,370.70044,-214.84411)"><text style="font-variant:normal;font-weight:400;font-size:1.92px;font-family:F1;-inkscape-font-specification:F1;writing-mode:lr-tb;fill:gray;fill-opacity:1;fill-rule:nonzero;stroke:none" id="text7410" transform="translate(347.20001,543.67999)"><tspan id="tspan7408" x="0 1.281 2.721 3.834 4.314 4.794 6.234 7.367" y="0">PD3/INT1</tspan></text></g><g id="g25942" transform="matrix(0.58152382,0,0,0.58152382,351.09467,-201.02379)"><path style="fill:none;stroke:#c90d0c;stroke-width:.32;stroke-linecap:round;stroke-linejoin:round;stroke-miterlimit:10;stroke-dasharray:none;stroke-opacity:1" id="path25944" d="m 347.84,513.44 v -2.08001"/></g><g id="g25946" transform="matrix(0.58152382,0,0,0.58152382,351.09467,-201.02379)"><path style="fill:none;stroke:#c90d0c;stroke-width:.32;stroke-linecap:round;stroke-linejoin:round;stroke-miterlimit:10;stroke-dasharray:none;stroke-opacity:1" id="path25948" d="m 347.84,511.35999 h 0.80001"/></g><g id="g25950" transform="matrix(0.58152382,0,0,0.58152382,351.09467,-201.02379)"><path style="fill:none;stroke:#c90d0c;stroke-width:.32;stroke-linecap:round;stroke-linejoin:round;stroke-miterlimit:10;stroke-dasharray:none;stroke-opacity:1" id="path25952" d="M 348.64001,511.35999 V 513.44"/></g><g id="g25954" transform="matrix(0.58152382,0,0,0.58152382,351.09467,-201.02379)"><path style="fill:none;stroke:#c90d0c;stroke-width:.32;stroke-linecap:round;stroke-linejoin:round;stroke-miterlimit:10;stroke-dasharray:none;stroke-opacity:1" id="path25956" d="M 348.64001,513.44 H 347.84"/></g><g id="g25958" transform="matrix(0.58152382,0,0,0.58152382,351.09467,-201.02379)"><path style="fill:none;stroke:#c90d0c;stroke-width:.16;stroke-linecap:round;stroke-linejoin:round;stroke-miterlimit:10;stroke-dasharray:none;stroke-opacity:1" id="path25960" d="M 348.16,515.35998 V 513.44"/></g><g id="g25962" transform="matrix(0.58152382,0,0,0.58152382,351.09467,-201.02379)"><path style="fill:none;stroke:#c90d0c;stroke-width:.16;stroke-linecap:round;stroke-linejoin:round;stroke-miterlimit:10;stroke-dasharray:none;stroke-opacity:1" id="path25964" d="m 348.16,509.28 v 2.07999"/></g><g id="g25966" transform="matrix(0.58152382,0,0,0.58152382,351.09467,-201.02379)"><path style="fill:none;stroke:#c90d0c;stroke-width:.32;stroke-linecap:round;stroke-linejoin:round;stroke-miterlimit:10;stroke-dasharray:none;stroke-opacity:1" id="path25968" d="m 347.20001,516.32001 v 4.15997"/></g><g id="g25970" transform="matrix(0.58152382,0,0,0.58152382,351.09467,-201.02379)"><path style="fill:none;stroke:#c90d0c;stroke-width:.32;stroke-linecap:round;stroke-linejoin:round;stroke-miterlimit:10;stroke-dasharray:none;stroke-opacity:1" id="path25972" d="m 349.28,516.32001 v 4.15997"/></g><g id="g25974" transform="matrix(0.58152382,0,0,0.58152382,351.09467,-201.02379)"><path style="fill:none;stroke:#c90d0c;stroke-width:.16;stroke-linecap:round;stroke-linejoin:round;stroke-miterlimit:10;stroke-dasharray:none;stroke-opacity:1" id="path25976" d="m 345.12,518.40002 h 2.08001"/></g><g id="g25978" transform="matrix(0.58152382,0,0,0.58152382,351.09467,-201.02379)"><path style="fill:none;stroke:#c90d0c;stroke-width:.16;stroke-linecap:round;stroke-linejoin:round;stroke-miterlimit:10;stroke-dasharray:none;stroke-opacity:1" id="path25980" d="M 351.20001,518.40002 H 349.28"/></g><g id="g25982" transform="matrix(0.58152382,0,0,0.58152382,370.75734,-214.63303)"><path style="fill:none;stroke:#c90d0c;stroke-width:.32;stroke-linecap:round;stroke-linejoin:round;stroke-miterlimit:10;stroke-dasharray:none;stroke-opacity:1" id="path25984" d="m 344.16,544.64001 h -4"/></g><g id="g25986" transform="matrix(0.58152382,0,0,0.58152382,370.75734,-214.63303)"><path style="fill:none;stroke:#c90d0c;stroke-width:.32;stroke-linecap:round;stroke-linejoin:round;stroke-miterlimit:10;stroke-dasharray:none;stroke-opacity:1" id="path25988" d="m 340.16,544.64001 v -8.16003"/></g><g id="g25990" transform="matrix(0.58152382,0,0,0.58152382,370.75734,-214.63303)"><path style="fill:none;stroke:#c90d0c;stroke-width:.32;stroke-linecap:round;stroke-linejoin:round;stroke-miterlimit:10;stroke-dasharray:none;stroke-opacity:1" id="path25992" d="m 340.16,536.47998 h 4"/></g><g id="g25994" transform="matrix(0.58152382,0,0,0.58152382,370.75734,-214.63303)"><path style="fill:none;stroke:#c90d0c;stroke-width:.32;stroke-linecap:round;stroke-linejoin:round;stroke-miterlimit:10;stroke-dasharray:none;stroke-opacity:1" id="path25996" d="m 344.16,536.47998 v 8.16003"/></g><g id="g25998" transform="matrix(0.58152382,0,0,0.58152382,370.75734,-214.63303)"><path style="fill:none;stroke:#c90d0c;stroke-width:.16;stroke-linecap:round;stroke-linejoin:round;stroke-miterlimit:10;stroke-dasharray:none;stroke-opacity:1" id="path26000" d="m 342.23999,544.32001 -1.59998,-0.64002"/></g><g id="g26002" transform="matrix(0.58152382,0,0,0.58152382,370.75734,-214.63303)"><path style="fill:none;stroke:#c90d0c;stroke-width:.16;stroke-linecap:round;stroke-linejoin:round;stroke-miterlimit:10;stroke-dasharray:none;stroke-opacity:1" id="path26004" d="M 340.64001,543.67999 342.23999,542.88"/></g><g id="g26006" transform="matrix(0.58152382,0,0,0.58152382,570.61545,101.52985)"><path style="fill:none;stroke:#c90d0c;stroke-width:.16;stroke-linecap:round;stroke-linejoin:round;stroke-miterlimit:10;stroke-dasharray:none;stroke-opacity:1" id="path26008" d="m 0,0 c 0,0.48 -0.32,0.8 -0.8,0.8 -0.48,0 -0.8,-0.32 -0.8,-0.8 0,-0.48 0.32,-0.8 0.8,-0.8 0.48,0 0.8,0.32 0.8,0.8 z"/></g><g id="g26010" transform="matrix(0.58152382,0,0,0.58152382,370.75734,-214.63303)"><path style="fill:none;stroke:#c90d0c;stroke-width:.16;stroke-linecap:round;stroke-linejoin:round;stroke-miterlimit:10;stroke-dasharray:none;stroke-opacity:1" id="path26012" d="m 346.23999,543.67999 h -2.56"/></g><g id="g26014" transform="matrix(0.58152382,0,0,0.58152382,570.61545,100.32026)"><path style="fill:none;stroke:#c90d0c;stroke-width:.16;stroke-linecap:round;stroke-linejoin:round;stroke-miterlimit:10;stroke-dasharray:none;stroke-opacity:1" id="path26016" d="m 0,0 c 0,0.48 -0.32,0.8 -0.8,0.8 -0.48,0 -0.8,-0.32 -0.8,-0.8 0,-0.48 0.32,-0.8 0.8,-0.8 0.48,0 0.8,0.32 0.8,0.8 z"/></g><g id="g26018" transform="matrix(0.58152382,0,0,0.58152382,370.75734,-214.63303)"><path style="fill:none;stroke:#c90d0c;stroke-width:.16;stroke-linecap:round;stroke-linejoin:round;stroke-miterlimit:10;stroke-dasharray:none;stroke-opacity:1" id="path26020" d="m 346.23999,541.59998 h -2.56"/></g><g id="g26022" transform="matrix(0.58152382,0,0,0.58152382,570.61545,99.11074)"><path style="fill:none;stroke:#c90d0c;stroke-width:.16;stroke-linecap:round;stroke-linejoin:round;stroke-miterlimit:10;stroke-dasharray:none;stroke-opacity:1" id="path26024" d="m 0,0 c 0,0.48 -0.32,0.8 -0.8,0.8 -0.48,0 -0.8,-0.32 -0.8,-0.8 0,-0.48 0.32,-0.8 0.8,-0.8 0.48,0 0.8,0.32 0.8,0.8 z"/></g><g id="g26026" transform="matrix(0.58152382,0,0,0.58152382,370.75734,-214.63303)"><path style="fill:none;stroke:#c90d0c;stroke-width:.16;stroke-linecap:round;stroke-linejoin:round;stroke-miterlimit:10;stroke-dasharray:none;stroke-opacity:1" id="path26028" d="m 346.23999,539.52002 h -2.56"/></g><g id="g26030" transform="matrix(0.58152382,0,0,0.58152382,570.61545,97.99419)"><path style="fill:none;stroke:#c90d0c;stroke-width:.16;stroke-linecap:round;stroke-linejoin:round;stroke-miterlimit:10;stroke-dasharray:none;stroke-opacity:1" id="path26032" d="m 0,0 c 0,0.48 -0.32,0.8 -0.8,0.8 -0.48,0 -0.8,-0.32 -0.8,-0.8 0,-0.48 0.32,-0.8 0.8,-0.8 0.48,0 0.8,0.32 0.8,0.8 z"/></g><g id="g26034" transform="matrix(0.58152382,0,0,0.58152382,370.75734,-214.63303)"><path style="fill:none;stroke:#c90d0c;stroke-width:.16;stroke-linecap:round;stroke-linejoin:round;stroke-miterlimit:10;stroke-dasharray:none;stroke-opacity:1" id="path26036" d="m 346.23999,537.59998 h -2.56"/></g><g id="g26038" transform="matrix(0.58152382,0,0,0.58152382,351.09467,-201.02379)"><path style="fill:none;stroke:#c90d0c;stroke-width:.32;stroke-linecap:round;stroke-linejoin:round;stroke-miterlimit:10;stroke-dasharray:none;stroke-opacity:1" id="path26040" d="m 357.76001,521.28003 v -0.80005"/></g><g id="g26042" transform="matrix(0.58152382,0,0,0.58152382,351.09467,-201.02379)"><path style="fill:none;stroke:#c90d0c;stroke-width:.32;stroke-linecap:round;stroke-linejoin:round;stroke-miterlimit:10;stroke-dasharray:none;stroke-opacity:1" id="path26044" d="m 357.76001,520.47998 v -2.07996"/></g><g id="g26046" transform="matrix(0.58152382,0,0,0.58152382,351.09467,-201.02379)"><path style="fill:none;stroke:#c90d0c;stroke-width:.32;stroke-linecap:round;stroke-linejoin:round;stroke-miterlimit:10;stroke-dasharray:none;stroke-opacity:1" id="path26048" d="m 357.76001,518.40002 v -2.08001"/></g><g id="g26050" transform="matrix(0.58152382,0,0,0.58152382,351.09467,-201.02379)"><path style="fill:none;stroke:#c90d0c;stroke-width:.32;stroke-linecap:round;stroke-linejoin:round;stroke-miterlimit:10;stroke-dasharray:none;stroke-opacity:1" id="path26052" d="m 357.76001,516.32001 v -1.91999"/></g><g id="g26054" transform="matrix(0.58152382,0,0,0.58152382,351.09467,-201.02379)"><path style="fill:none;stroke:#c90d0c;stroke-width:.32;stroke-linecap:round;stroke-linejoin:round;stroke-miterlimit:10;stroke-dasharray:none;stroke-opacity:1" id="path26056" d="M 357.76001,514.40002 V 513.44"/></g><g id="g26058" transform="matrix(0.58152382,0,0,0.58152382,351.09467,-201.02379)"><path style="fill:none;stroke:#c90d0c;stroke-width:.32;stroke-linecap:round;stroke-linejoin:round;stroke-miterlimit:10;stroke-dasharray:none;stroke-opacity:1" id="path26060" d="M 357.76001,521.28003 H 363.84"/></g><g id="g26062" transform="matrix(0.58152382,0,0,0.58152382,351.09467,-201.02379)"><path style="fill:none;stroke:#c90d0c;stroke-width:.32;stroke-linecap:round;stroke-linejoin:round;stroke-miterlimit:10;stroke-dasharray:none;stroke-opacity:1" id="path26064" d="M 363.84,521.28003 V 513.44"/></g><g id="g26066" transform="matrix(0.58152382,0,0,0.58152382,351.09467,-201.02379)"><path style="fill:none;stroke:#c90d0c;stroke-width:.32;stroke-linecap:round;stroke-linejoin:round;stroke-miterlimit:10;stroke-dasharray:none;stroke-opacity:1" id="path26068" d="m 363.84,513.44 h -6.07999"/></g><g id="g26070" transform="matrix(0.58152382,0,0,0.58152382,351.09467,-201.02379)"><path style="fill:none;stroke:#c90d0c;stroke-width:.16;stroke-linecap:round;stroke-linejoin:round;stroke-miterlimit:10;stroke-dasharray:none;stroke-opacity:1" id="path26072" d="m 354.72,516.32001 h 2.07999"/></g><g id="g26074" transform="matrix(0.58152382,0,0,0.58152382,351.09467,-201.02379)"><path style="fill:none;stroke:#c90d0c;stroke-width:.16;stroke-linecap:round;stroke-linejoin:round;stroke-miterlimit:10;stroke-dasharray:none;stroke-opacity:1" id="path26076" d="m 354.72,520.47998 h 2.07999"/></g><g id="g26078" transform="matrix(0.58152382,0,0,0.58152382,351.09467,-201.02379)"><path style="fill:none;stroke:#c90d0c;stroke-width:.16;stroke-linecap:round;stroke-linejoin:round;stroke-miterlimit:10;stroke-dasharray:none;stroke-opacity:1" id="path26080" d="m 354.72,518.40002 h 2.07999"/></g><g id="g26082" transform="matrix(0.58152382,0,0,0.58152382,351.09467,-201.02379)"><path style="fill:none;stroke:#c90d0c;stroke-width:.16;stroke-linecap:round;stroke-linejoin:round;stroke-miterlimit:10;stroke-dasharray:none;stroke-opacity:1" id="path26084" d="m 354.72,514.40002 h 2.07999"/></g><g id="g26086" transform="matrix(0.58152382,0,0,0.58152382,351.09467,-201.02379)"><path style="fill:none;stroke:#c90d0c;stroke-width:.16;stroke-linecap:round;stroke-linejoin:round;stroke-miterlimit:10;stroke-dasharray:none;stroke-opacity:1" id="path26088" d="m 356.79999,514.40002 h 0.96002"/></g><g id="g26090" transform="matrix(0.58152382,0,0,0.58152382,351.09467,-201.02379)"><path style="fill:none;stroke:#c90d0c;stroke-width:.16;stroke-linecap:round;stroke-linejoin:round;stroke-miterlimit:10;stroke-dasharray:none;stroke-opacity:1" id="path26092" d="m 356.79999,516.32001 h 0.96002"/></g><g id="g26094" transform="matrix(0.58152382,0,0,0.58152382,351.09467,-201.02379)"><path style="fill:none;stroke:#c90d0c;stroke-width:.16;stroke-linecap:round;stroke-linejoin:round;stroke-miterlimit:10;stroke-dasharray:none;stroke-opacity:1" id="path26096" d="m 356.79999,518.40002 h 0.96002"/></g><g id="g26098" transform="matrix(0.58152382,0,0,0.58152382,351.09467,-201.02379)"><path style="fill:none;stroke:#c90d0c;stroke-width:.16;stroke-linecap:round;stroke-linejoin:round;stroke-miterlimit:10;stroke-dasharray:none;stroke-opacity:1" id="path26100" d="m 356.79999,520.47998 h 0.96002"/></g><g id="g26102" transform="matrix(0.58152382,0,0,0.58152382,556.53542,102.76428)"><path style="fill:none;stroke:#c90d0c;stroke-width:.16;stroke-linecap:round;stroke-linejoin:round;stroke-miterlimit:10;stroke-dasharray:none;stroke-opacity:1" id="path26104" d="m 0,0 c 0,0.48 -0.48,0.96 -0.96,0.96 -0.48,0 -0.96,-0.48 -0.96,-0.96 0,-0.48 0.48,-0.96 0.96,-0.96 C -0.48,-0.96 0,-0.48 0,0 Z"/></g><g id="g26106" transform="matrix(0.58152382,0,0,0.58152382,351.09467,-201.02379)"><path style="fill:none;stroke:#c90d0c;stroke-width:.16;stroke-linecap:round;stroke-linejoin:round;stroke-miterlimit:10;stroke-dasharray:none;stroke-opacity:1" id="path26108" d="M 352.32001,520.47998 V 521.44"/></g><g id="g26110" transform="matrix(0.58152382,0,0,0.58152382,554.11625,92.808564)"><path style="fill:none;stroke:#c90d0c;stroke-width:.16;stroke-linecap:round;stroke-linejoin:round;stroke-miterlimit:10;stroke-dasharray:none;stroke-opacity:1" id="path26112" d="m 0,0 c 0,0.48 -0.48,0.96 -0.96,0.96 -0.48,0 -0.96,-0.48 -0.96,-0.96 0,-0.48 0.48,-0.96 0.96,-0.96 C -0.48,-0.96 0,-0.48 0,0 Z"/></g><g id="g26114" transform="matrix(0.58152382,0,0,0.58152382,351.09467,-201.02379)"><path style="fill:none;stroke:#c90d0c;stroke-width:.16;stroke-linecap:round;stroke-linejoin:round;stroke-miterlimit:10;stroke-dasharray:none;stroke-opacity:1" id="path26116" d="m 348.16,507.35999 v -1.12"/></g><g id="g26118" transform="matrix(0.58152382,0,0,0.58152382,547.13796,99.228615)"><path style="fill:none;stroke:#c90d0c;stroke-width:.16;stroke-linecap:round;stroke-linejoin:round;stroke-miterlimit:10;stroke-dasharray:none;stroke-opacity:1" id="path26120" d="m 0,0 c 0,0.48 -0.48,0.96 -0.96,0.96 -0.48,0 -0.96,-0.48 -0.96,-0.96 0,-0.48 0.48,-0.96 0.96,-0.96 C -0.48,-0.96 0,-0.48 0,0 Z"/></g><g id="g26122" transform="matrix(0.58152382,0,0,0.58152382,351.09467,-201.02379)"><path style="fill:none;stroke:#c90d0c;stroke-width:.16;stroke-linecap:round;stroke-linejoin:round;stroke-miterlimit:10;stroke-dasharray:none;stroke-opacity:1" id="path26124" d="M 338.07999,516.32001 H 337.12"/></g><g id="g26126" transform="matrix(0.58152382,0,0,0.58152382,547.13796,92.808564)"><path style="fill:none;stroke:#c90d0c;stroke-width:.16;stroke-linecap:round;stroke-linejoin:round;stroke-miterlimit:10;stroke-dasharray:none;stroke-opacity:1" id="path26128" d="m 0,0 c 0,0.48 -0.48,0.96 -0.96,0.96 -0.48,0 -0.96,-0.48 -0.96,-0.96 0,-0.48 0.48,-0.96 0.96,-0.96 C -0.48,-0.96 0,-0.48 0,0 Z"/></g><g id="g26130" transform="matrix(0.58152382,0,0,0.58152382,351.09467,-201.02379)"><path style="fill:none;stroke:#c90d0c;stroke-width:.16;stroke-linecap:round;stroke-linejoin:round;stroke-miterlimit:10;stroke-dasharray:none;stroke-opacity:1" id="path26132" d="m 336.16,507.35999 v -1.12"/></g><g id="g36012" transform="matrix(0.58152382,0,0,0.58152382,351.09467,-201.02379)"><path style="fill:none;stroke:#0dab76;stroke-width:.16;stroke-linecap:round;stroke-linejoin:round;stroke-miterlimit:10;stroke-dasharray:none;stroke-opacity:1" id="path36014" d="m 354.72,520.47998 h -2.39999"/></g><g id="g36016" transform="matrix(0.58152382,0,0,0.58152382,351.09467,-201.02379)"><path style="fill:none;stroke:#0dab76;stroke-width:.16;stroke-linecap:round;stroke-linejoin:round;stroke-miterlimit:10;stroke-dasharray:none;stroke-opacity:1" id="path36018" d="M 352.32001,520.47998 H 338.07999"/></g><g id="g36020" transform="matrix(0.58152382,0,0,0.58152382,351.09467,-201.02379)"><path style="fill:none;stroke:#0dab76;stroke-width:.16;stroke-linecap:round;stroke-linejoin:round;stroke-miterlimit:10;stroke-dasharray:none;stroke-opacity:1" id="path36022" d="m 351.20001,518.40002 h 1.12"/></g><g id="g36024" transform="matrix(0.58152382,0,0,0.58152382,351.09467,-201.02379)"><path style="fill:none;stroke:#0dab76;stroke-width:.16;stroke-linecap:round;stroke-linejoin:round;stroke-miterlimit:10;stroke-dasharray:none;stroke-opacity:1" id="path36026" d="m 352.32001,518.40002 v 2.07996"/></g><g id="g36028" transform="matrix(0.58152382,0,0,0.58152382,556.25627,101.64773)"><path style="fill:#0dab76;fill-opacity:1;fill-rule:evenodd;stroke:none" id="path36030" d="M 0,0 C 0,0.32 -0.16,0.48 -0.48,0.48 -0.8,0.48 -0.96,0.32 -0.96,0 c 0,-0.32 0.16,-0.48 0.48,-0.48 C -0.16,-0.48 0,-0.32 0,0 Z"/></g><g id="g36032" transform="matrix(0.58152382,0,0,0.58152382,556.25627,101.64773)"><path style="fill:none;stroke:#0dab76;stroke-width:.16;stroke-linecap:round;stroke-linejoin:round;stroke-miterlimit:10;stroke-dasharray:none;stroke-opacity:1" id="path36034" d="M 0,0 C 0,0.32 -0.16,0.48 -0.48,0.48 -0.8,0.48 -0.96,0.32 -0.96,0 c 0,-0.32 0.16,-0.48 0.48,-0.48 C -0.16,-0.48 0,-0.32 0,0 Z"/></g><g id="g36036" transform="matrix(0.58152382,0,0,0.58152382,370.75734,-214.63303)"><path style="fill:none;stroke:#0dab76;stroke-width:.16;stroke-linecap:round;stroke-linejoin:round;stroke-miterlimit:10;stroke-dasharray:none;stroke-opacity:1" id="path36038" d="m 346.23999,537.59998 h 4"/></g><g id="g36952" transform="matrix(0.58152382,0,0,0.58152382,351.09467,-201.02379)"><path style="fill:none;stroke:#0dab76;stroke-width:.16;stroke-linecap:round;stroke-linejoin:round;stroke-miterlimit:10;stroke-dasharray:none;stroke-opacity:1" id="path36954" d="m 354.72,514.40002 h -3.51999"/></g><g id="g36956" transform="matrix(0.58152382,0,0,0.58152382,351.09467,-201.02379)"><path style="fill:none;stroke:#0dab76;stroke-width:.16;stroke-linecap:round;stroke-linejoin:round;stroke-miterlimit:10;stroke-dasharray:none;stroke-opacity:1" id="path36958" d="m 351.20001,514.40002 v -7.04003"/></g><g id="g36960" transform="matrix(0.58152382,0,0,0.58152382,351.09467,-201.02379)"><path style="fill:none;stroke:#0dab76;stroke-width:.16;stroke-linecap:round;stroke-linejoin:round;stroke-miterlimit:10;stroke-dasharray:none;stroke-opacity:1" id="path36962" d="M 351.20001,507.35999 H 348.16"/></g><g id="g36964" transform="matrix(0.58152382,0,0,0.58152382,351.09467,-201.02379)"><path style="fill:none;stroke:#0dab76;stroke-width:.16;stroke-linecap:round;stroke-linejoin:round;stroke-miterlimit:10;stroke-dasharray:none;stroke-opacity:1" id="path36966" d="M 348.16,507.35999 V 509.28"/></g><g id="g36968" transform="matrix(0.58152382,0,0,0.58152382,553.83716,94.018149)"><path style="fill:#0dab76;fill-opacity:1;fill-rule:evenodd;stroke:none" id="path36970" d="M 0,0 C 0,0.32 -0.16,0.48 -0.48,0.48 -0.8,0.48 -0.96,0.32 -0.96,0 c 0,-0.32 0.16,-0.48 0.48,-0.48 C -0.16,-0.48 0,-0.32 0,0 Z"/></g><g id="g36972" transform="matrix(0.58152382,0,0,0.58152382,553.83716,94.018149)"><path style="fill:none;stroke:#0dab76;stroke-width:.16;stroke-linecap:round;stroke-linejoin:round;stroke-miterlimit:10;stroke-dasharray:none;stroke-opacity:1" id="path36974" d="M 0,0 C 0,0.32 -0.16,0.48 -0.48,0.48 -0.8,0.48 -0.96,0.32 -0.96,0 c 0,-0.32 0.16,-0.48 0.48,-0.48 C -0.16,-0.48 0,-0.32 0,0 Z"/></g><g id="g36976" transform="matrix(0.58152382,0,0,0.58152382,351.09467,-201.02379)"><path style="fill:none;stroke:#0dab76;stroke-width:.16;stroke-linecap:round;stroke-linejoin:round;stroke-miterlimit:10;stroke-dasharray:none;stroke-opacity:1" id="path36978" d="M 338.07999,518.40002 H 345.12"/></g><g id="g36980" transform="matrix(0.58152382,0,0,0.58152382,370.75734,-214.63303)"><path style="fill:none;stroke:#0dab76;stroke-width:.16;stroke-linecap:round;stroke-linejoin:round;stroke-miterlimit:10;stroke-dasharray:none;stroke-opacity:1" id="path36982" d="m 346.23999,539.52002 h 4"/></g><g id="g37872" transform="matrix(0.58152382,0,0,0.58152382,351.09467,-201.02379)"><path style="fill:none;stroke:#0dab76;stroke-width:.16;stroke-linecap:round;stroke-linejoin:round;stroke-miterlimit:10;stroke-dasharray:none;stroke-opacity:1" id="path37874" d="m 354.72,516.32001 h -6.56"/></g><g id="g37876" transform="matrix(0.58152382,0,0,0.58152382,351.09467,-201.02379)"><path style="fill:none;stroke:#0dab76;stroke-width:.16;stroke-linecap:round;stroke-linejoin:round;stroke-miterlimit:10;stroke-dasharray:none;stroke-opacity:1" id="path37878" d="m 348.16,516.32001 v -0.96003"/></g><g id="g37880" transform="matrix(0.58152382,0,0,0.58152382,351.09467,-201.02379)"><path style="fill:none;stroke:#0dab76;stroke-width:.16;stroke-linecap:round;stroke-linejoin:round;stroke-miterlimit:10;stroke-dasharray:none;stroke-opacity:1" id="path37882" d="M 348.16,516.32001 H 338.07999"/></g><g id="g37884" transform="matrix(0.58152382,0,0,0.58152382,553.83716,99.228615)"><path style="fill:#0dab76;fill-opacity:1;fill-rule:evenodd;stroke:none" id="path37886" d="M 0,0 C 0,0.32 -0.16,0.48 -0.48,0.48 -0.8,0.48 -0.96,0.32 -0.96,0 c 0,-0.32 0.16,-0.48 0.48,-0.48 C -0.16,-0.48 0,-0.32 0,0 Z"/></g><g id="g37888" transform="matrix(0.58152382,0,0,0.58152382,553.83716,99.228615)"><path style="fill:none;stroke:#0dab76;stroke-width:.16;stroke-linecap:round;stroke-linejoin:round;stroke-miterlimit:10;stroke-dasharray:none;stroke-opacity:1" id="path37890" d="M 0,0 C 0,0.32 -0.16,0.48 -0.48,0.48 -0.8,0.48 -0.96,0.32 -0.96,0 c 0,-0.32 0.16,-0.48 0.48,-0.48 C -0.16,-0.48 0,-0.32 0,0 Z"/></g><g id="g37892" transform="matrix(0.58152382,0,0,0.58152382,370.75734,-214.63303)"><path style="fill:none;stroke:#0dab76;stroke-width:.16;stroke-linecap:round;stroke-linejoin:round;stroke-miterlimit:10;stroke-dasharray:none;stroke-opacity:1" id="path37894" d="m 346.23999,543.67999 h 4"/></g></g></g></svg>